<svg width="1240" height="178" viewBox="0 0 1240 178" fill="none" xmlns="http://www.w3.org/2000/svg">
<path d="M0.75 40.0005L132.827 104.572C177.49 126.407 229.502 127.469 275.02 107.475L350.716 74.2256C393.192 55.5681 441.47 55.1922 484.231 73.1862L561.69 105.781C604.497 123.795 652.832 123.398 695.338 104.683L735.5 87.0005L773.829 70.1249C817.406 50.9387 867.055 51.0251 910.566 70.363L980.361 101.383C1026.8 122.022 1080.06 120.669 1125.39 97.6985L1239.25 40.0005" stroke="#AB0E12" stroke-width="3"/>
<circle cx="408.25" cy="57.5005" r="15" fill="#AB0E12"/>
<path d="M403.842 61.5005V60.4125L408.402 56.0125C408.807 55.6285 409.106 55.2925 409.298 55.0045C409.501 54.7058 409.634 54.4338 409.698 54.1885C409.773 53.9325 409.81 53.6872 409.81 53.4525C409.81 52.8765 409.607 52.4232 409.202 52.0925C408.797 51.7618 408.205 51.5965 407.426 51.5965C406.829 51.5965 406.29 51.6978 405.81 51.9005C405.33 52.0925 404.914 52.3965 404.562 52.8125L403.474 51.8685C403.901 51.3245 404.471 50.9085 405.186 50.6205C405.911 50.3218 406.706 50.1725 407.57 50.1725C408.349 50.1725 409.026 50.3005 409.602 50.5565C410.178 50.8018 410.621 51.1592 410.93 51.6285C411.25 52.0978 411.41 52.6525 411.41 53.2925C411.41 53.6552 411.362 54.0125 411.266 54.3645C411.17 54.7165 410.989 55.0898 410.722 55.4845C410.455 55.8792 410.071 56.3218 409.57 56.8125L405.506 60.7325L405.122 60.1085H411.89V61.5005H403.842Z" fill="white"/>
<path d="M408.125 78V178" stroke="#AB0E12" stroke-dasharray="2 2"/>
<circle cx="627.25" cy="115.5" r="15" fill="#AB0E12"/>
<path d="M626.442 119.628C625.653 119.628 624.885 119.506 624.138 119.26C623.402 119.015 622.799 118.684 622.33 118.268L623.066 117.004C623.439 117.356 623.925 117.644 624.522 117.868C625.119 118.092 625.759 118.204 626.442 118.204C627.274 118.204 627.919 118.028 628.378 117.676C628.847 117.314 629.082 116.828 629.082 116.22C629.082 115.634 628.858 115.164 628.41 114.812C627.973 114.45 627.274 114.268 626.314 114.268H625.418V113.148L628.746 109.052L628.97 109.692H622.842V108.3H630.234V109.388L626.922 113.468L626.09 112.972H626.618C627.973 112.972 628.986 113.276 629.658 113.884C630.341 114.492 630.682 115.266 630.682 116.204C630.682 116.834 630.527 117.41 630.218 117.932C629.909 118.455 629.439 118.871 628.81 119.18C628.191 119.479 627.402 119.628 626.442 119.628Z" fill="white"/>
<path d="M625 0V100" stroke="#AB0E12" stroke-dasharray="2 2"/>
<circle cx="830.25" cy="55.5005" r="15" fill="#AB0E12"/>
<path d="M825.858 56.7485V55.6285L831.586 48.3005H833.314L827.634 55.6285L826.818 55.3725H835.762V56.7485H825.858ZM832.082 59.5005V56.7485L832.13 55.3725V52.9405H833.634V59.5005H832.082Z" fill="white"/>
<path d="M830.125 76V176" stroke="#AB0E12" stroke-dasharray="2 2"/>
<circle cx="1044.25" cy="115.5" r="15" fill="#AB0E12"/>
<path d="M1043.63 119.628C1042.84 119.628 1042.08 119.506 1041.33 119.26C1040.59 119.015 1039.99 118.684 1039.52 118.268L1040.26 117.004C1040.63 117.356 1041.12 117.644 1041.71 117.868C1042.31 118.092 1042.95 118.204 1043.62 118.204C1044.47 118.204 1045.13 118.023 1045.59 117.66C1046.04 117.298 1046.27 116.812 1046.27 116.204C1046.27 115.788 1046.17 115.426 1045.97 115.116C1045.77 114.807 1045.42 114.572 1044.91 114.412C1044.42 114.242 1043.75 114.156 1042.88 114.156H1040.34L1040.93 108.3H1047.25V109.692H1041.52L1042.35 108.908L1041.89 113.532L1041.06 112.764H1043.22C1044.34 112.764 1045.24 112.908 1045.92 113.196C1046.6 113.484 1047.1 113.884 1047.41 114.396C1047.72 114.898 1047.87 115.479 1047.87 116.14C1047.87 116.78 1047.72 117.367 1047.41 117.9C1047.1 118.423 1046.63 118.844 1046 119.164C1045.38 119.474 1044.59 119.628 1043.63 119.628Z" fill="white"/>
<path d="M1044 0V100" stroke="#AB0E12" stroke-dasharray="2 2"/>
<path d="M205.125 0V100" stroke="#AB0E12" stroke-dasharray="2 2"/>
<circle cx="207.25" cy="118.5" r="15" fill="#AB0E12"/>
<path d="M206.906 122.5V111.94L207.594 112.692H204.378V111.3H208.49V122.5H206.906Z" fill="white"/>
</svg>
