<svg width="38" height="38" viewBox="0 0 38 38" fill="none" xmlns="http://www.w3.org/2000/svg">
<g clip-path="url(#clip0_497_7539)">
<path d="M35.2258 12.531C34.3017 10.3472 32.981 8.38674 31.2963 6.70338C29.613 5.02001 27.6525 3.69799 25.4699 2.77513C23.2091 1.81813 20.8075 1.3335 18.3331 1.3335C15.8581 1.3335 13.4576 1.81813 11.1969 2.77513C9.01366 3.69799 7.05262 5.02001 5.36926 6.70338C3.68589 8.38674 2.3645 10.3472 1.44109 12.531C0.484634 14.7918 0 17.1929 0 19.6672C0 22.1417 0.484634 24.5427 1.44101 26.8035C2.3645 28.9861 3.68589 30.9478 5.36926 32.6312C7.05255 34.3145 9.01366 35.6353 11.1969 36.5593C13.4576 37.5151 15.8581 37.9998 18.3331 37.9998C20.8075 37.9998 23.2091 37.5152 25.4699 36.5593C27.6526 35.6353 29.613 34.3145 31.2963 32.6312C32.9809 30.9478 34.3017 28.9861 35.2258 26.8035C36.1815 24.5427 36.6662 22.1417 36.6662 19.6672C36.6662 17.1929 36.1815 14.7918 35.2258 12.531Z" fill="#ED5564"/>
<path d="M27.1715 10.8284C24.8106 8.46755 21.6722 7.16748 18.333 7.16748C14.9938 7.16748 11.8548 8.46755 9.4939 10.8284C7.133 13.1892 5.83301 16.3289 5.83301 19.6674C5.83301 23.006 7.13307 26.1445 9.4939 28.5065C11.8547 30.8674 14.9938 32.1674 18.333 32.1674C21.6722 32.1674 24.8106 30.8674 27.1715 28.5065C29.5335 26.1445 30.8336 23.0061 30.8336 19.6674C30.8336 16.3288 29.5335 13.1892 27.1715 10.8284Z" fill="#E6E9ED"/>
<path d="M18.3329 12.9995C14.6568 12.9995 11.666 15.9902 11.666 19.667C11.666 23.3425 14.6567 26.3332 18.3329 26.3332C22.009 26.3332 24.9997 23.3425 24.9997 19.667C24.9997 15.9902 22.009 12.9995 18.3329 12.9995Z" fill="#ED5564"/>
<path d="M39.9538 4.45014C39.8476 4.14864 39.5779 3.93378 39.2593 3.89839L34.6182 3.38211L34.103 -1.25781C34.0676 -1.57642 33.8527 -1.8462 33.5501 -1.95246C33.2486 -2.05863 32.9117 -1.98175 32.6846 -1.75588L26.7923 4.1377C26.6568 4.27317 26.5713 4.45264 26.5531 4.64429L26.127 8.93263C26.0953 9.25733 26.2552 9.57102 26.5372 9.73579C26.6678 9.8115 26.8119 9.84814 26.9571 9.84814C27.1256 9.84814 27.294 9.79806 27.438 9.69556L30.3897 7.61061L28.3046 10.5635C28.1167 10.8296 28.1008 11.1811 28.2656 11.4631C28.4157 11.7219 28.6904 11.877 28.9846 11.877C29.0126 11.877 29.0395 11.8757 29.0676 11.8733L33.3571 11.4485C33.5487 11.4289 33.7269 11.3447 33.8636 11.208L39.7559 5.31573C39.9831 5.08978 40.0587 4.75288 39.9538 4.45014Z" fill="#F6BB42"/>
<path d="M18.3335 20.4996C18.1199 20.4996 17.9068 20.419 17.7439 20.2554C17.4186 19.9307 17.4186 19.4034 17.7445 19.0775L20.3104 16.5116C20.6357 16.1856 21.1637 16.1856 21.4896 16.5116C21.8143 16.8363 21.8143 17.3648 21.4896 17.6895L18.9225 20.2554C18.7601 20.419 18.5465 20.4996 18.3335 20.4996Z" fill="#434A54"/>
<path d="M34.4526 3.54781C34.311 3.40624 34.0607 3.23779 33.6714 3.23779C32.9048 3.23779 31.4484 3.91033 26.0334 8.78831C23.0939 11.4372 20.3437 14.1203 20.3169 14.1472C20.1563 14.3047 20.0654 14.5195 20.0654 14.7442V17.1001C20.0654 17.5603 20.439 17.9339 20.8991 17.9339H23.2563C23.4809 17.9339 23.6958 17.8435 23.852 17.6824C23.8813 17.6531 26.8086 14.6538 29.571 11.5654C31.203 9.74047 32.4616 8.23898 33.3124 7.10127C33.8446 6.38967 34.2158 5.82566 34.4476 5.374C34.6016 5.07492 35.0691 4.16425 34.4526 3.54781Z" fill="#FFCE54"/>
</g>
<defs>
<clipPath id="clip0_497_7539">
<rect width="40" height="40" fill="white" transform="translate(0 -2)"/>
</clipPath>
</defs>
</svg>
