<svg width="355" height="356" viewBox="0 0 355 356" fill="none" xmlns="http://www.w3.org/2000/svg">
<circle cx="177.5" cy="178" r="177.216" stroke="#AB0E12" stroke-width="0.568" stroke-dasharray="4.54 4.54"/>
<path fill-rule="evenodd" clip-rule="evenodd" d="M342.587 178.368C342.587 269.341 268.84 343.088 177.867 343.088C86.8951 343.088 13.1475 269.341 13.1475 178.368C13.1475 87.3961 86.8951 13.6484 177.867 13.6484C268.84 13.6484 342.587 87.3961 342.587 178.368ZM177.867 294.24C241.862 294.24 293.739 242.363 293.739 178.368C293.739 114.374 241.862 62.4964 177.867 62.4964C113.873 62.4964 61.9955 114.374 61.9955 178.368C61.9955 242.363 113.873 294.24 177.867 294.24Z" fill="#AB0E12"/>
<path d="M62.3107 114.927C61.7859 115.951 61.1199 116.72 60.3129 117.232C59.4951 117.739 58.5715 117.974 57.5422 117.937C56.5129 117.9 55.3889 117.569 54.1702 116.945C52.876 116.282 51.9002 115.489 51.2426 114.567C50.5905 113.634 50.2453 112.634 50.2069 111.566C50.174 110.487 50.4366 109.403 50.9945 108.314C51.2873 107.742 51.6256 107.228 52.0094 106.771C52.3987 106.303 52.8113 105.95 53.2472 105.71L54.4348 107.299C54.0697 107.506 53.7555 107.774 53.4921 108.102C53.2236 108.414 52.9871 108.769 52.7827 109.168C52.2358 110.236 52.1311 111.251 52.4685 112.214C52.806 113.176 53.6164 113.986 54.8998 114.643C55.1047 114.748 55.3502 114.867 55.6361 115C55.9112 115.127 56.2056 115.231 56.5191 115.31L55.4759 115.592C55.1331 115.171 54.9018 114.719 54.7819 114.236C54.6567 113.736 54.6373 113.216 54.7239 112.675C54.816 112.123 55.0029 111.572 55.2846 111.022C55.6658 110.278 56.1511 109.689 56.7406 109.256C57.3193 108.817 57.9613 108.56 58.6665 108.486C59.361 108.406 60.0587 108.545 60.7597 108.905C61.5039 109.286 62.0571 109.801 62.4193 110.449C62.7815 111.097 62.9534 111.812 62.9349 112.592C62.9165 113.372 62.7084 114.15 62.3107 114.927ZM60.6026 114.195C60.8236 113.764 60.9442 113.342 60.9644 112.93C60.9739 112.513 60.88 112.138 60.6827 111.806C60.491 111.463 60.201 111.191 59.8127 110.993C59.2196 110.689 58.6455 110.653 58.0904 110.886C57.5354 111.119 57.0811 111.581 56.7275 112.271C56.4955 112.724 56.3774 113.168 56.3732 113.601C56.3637 114.018 56.4521 114.404 56.6383 114.758C56.8301 115.101 57.1147 115.37 57.4921 115.563C57.8373 115.74 58.2024 115.811 58.5875 115.777C58.9726 115.743 59.3398 115.597 59.6891 115.34C60.044 115.073 60.3485 114.691 60.6026 114.195Z" fill="white"/>
<path d="M73.1178 97.1771L69.0996 94.1436L70.5777 94.599L59.9517 93.5004L61.474 91.484L70.0212 92.3797L69.167 93.5112L65.986 85.5074L67.3877 83.6506L71.3552 93.569L70.5232 92.2577L74.5415 95.2913L73.1178 97.1771Z" fill="white"/>
<path d="M76.7007 81.1614L81.0682 76.5861L82.475 77.929L78.1074 82.5043L76.7007 81.1614ZM80.7704 84.7951L85.7278 79.6019L87.1609 80.9699L80.5719 87.8722L71.3687 79.0869L77.782 72.3686L79.2151 73.7366L74.4333 78.7458L80.7704 84.7951Z" fill="white"/>
<path d="M89.7999 78.3633L86.1327 64.9018L87.9287 63.423L100.45 69.5944L98.5417 71.1656L87.449 65.4425L88.1786 64.8417L91.6802 76.8151L89.7999 78.3633ZM89.9629 74.4149L89.2756 72.5793L94.5796 68.2122L96.2491 69.2391L89.9629 74.4149Z" fill="white"/>
<path d="M103.9 67.2329L97.0907 56.4854L101.513 53.6837C102.464 53.0806 103.375 52.7186 104.246 52.5976C105.126 52.4702 105.932 52.5763 106.664 52.916C107.395 53.2558 108.011 53.8197 108.51 54.6079C109.01 55.396 109.257 56.1934 109.251 57.0001C109.239 57.7965 108.988 58.5656 108.497 59.3071C108.009 60.032 107.289 60.696 106.338 61.2991L103.021 63.4004L103.338 61.9303L105.896 65.9683L103.9 67.2329ZM110.932 62.7775L105.744 60.5996L107.878 59.2474L113.082 61.4156L110.932 62.7775ZM103.474 62.1452L101.98 61.7575L105.205 59.7147C106.085 59.1569 106.625 58.5493 106.825 57.8917C107.036 57.2276 106.927 56.5578 106.499 55.8822C106.064 55.1964 105.505 54.812 104.821 54.7288C104.148 54.6392 103.371 54.8733 102.49 55.431L99.2662 57.4739L99.5341 55.927L103.474 62.1452Z" fill="white"/>
<path d="M121.411 57.374C120.515 57.8036 119.597 58.0892 118.657 58.2308C117.712 58.3615 116.902 58.34 116.228 58.1662L116.171 56.1572C116.803 56.2978 117.515 56.3258 118.308 56.2414C119.101 56.1569 119.852 55.9445 120.562 55.6039C121.163 55.3158 121.618 55.0171 121.927 54.7079C122.235 54.3986 122.425 54.0928 122.495 53.7905C122.56 53.4772 122.524 53.1785 122.388 52.8944C122.22 52.5448 121.961 52.3264 121.61 52.2393C121.254 52.1413 120.845 52.1291 120.383 52.2028C119.927 52.2602 119.427 52.3522 118.883 52.4787C118.349 52.6 117.803 52.7075 117.243 52.8012C116.689 52.8787 116.155 52.8997 115.641 52.8641C115.132 52.8123 114.658 52.65 114.218 52.3771C113.778 52.1043 113.411 51.6619 113.118 51.05C112.819 50.4272 112.711 49.7805 112.792 49.1098C112.879 48.4229 113.188 47.7641 113.719 47.1334C114.256 46.4864 115.048 45.9115 116.097 45.4086C116.786 45.0785 117.51 44.8385 118.272 44.6885C119.033 44.5385 119.743 44.5069 120.403 44.5937L120.525 46.5713C119.865 46.5115 119.227 46.5416 118.613 46.6615C117.993 46.7705 117.432 46.9455 116.93 47.1865C116.34 47.4694 115.893 47.7709 115.589 48.0911C115.297 48.406 115.118 48.7201 115.054 49.0334C115 49.3414 115.043 49.643 115.185 49.938C115.353 50.2876 115.609 50.5141 115.954 50.6173C116.305 50.7044 116.706 50.7138 117.157 50.6454C117.619 50.5717 118.124 50.4771 118.674 50.3616C119.218 50.2351 119.764 50.1276 120.313 50.0391C120.873 49.9454 121.404 49.919 121.908 49.9598C122.422 49.9954 122.894 50.1523 123.323 50.4304C123.763 50.7032 124.127 51.1401 124.415 51.7411C124.708 52.3529 124.811 53.0023 124.724 53.6892C124.642 54.3599 124.333 55.0187 123.797 55.6656C123.255 56.3016 122.46 56.8711 121.411 57.374Z" fill="white"/>
<path d="M144.101 48.9296C143.142 49.1881 142.216 49.2681 141.323 49.1696C140.431 49.0712 139.611 48.8215 138.863 48.4206C138.112 48.0081 137.47 47.4656 136.937 46.7934C136.402 46.1094 136.011 45.3111 135.765 44.3985C135.519 43.4859 135.458 42.6052 135.581 41.7564C135.7 40.8959 135.983 40.1045 136.428 39.3822C136.87 38.6481 137.453 38.0144 138.175 37.481C138.897 36.9477 139.732 36.5533 140.68 36.298C141.639 36.0396 142.559 35.9612 143.44 36.0628C144.332 36.1612 145.154 36.4167 145.905 36.8293C146.653 37.2302 147.295 37.7726 147.831 38.4566C148.363 39.1288 148.752 39.9213 148.998 40.8339C149.244 41.7465 149.307 42.6331 149.188 43.4935C149.068 44.354 148.785 45.1454 148.34 45.8678C147.895 46.5901 147.311 47.218 146.589 47.7513C145.878 48.2816 145.049 48.6743 144.101 48.9296ZM143.545 46.9336C144.165 46.7666 144.71 46.5068 145.179 46.1544C145.649 45.802 146.025 45.3807 146.307 44.8906C146.586 44.3887 146.762 43.8521 146.834 43.2805C146.914 42.6941 146.869 42.085 146.699 41.4532C146.529 40.8214 146.263 40.278 145.902 39.8231C145.55 39.3533 145.129 38.9774 144.638 38.6953C144.145 38.4015 143.607 38.2202 143.024 38.1514C142.44 38.0826 141.839 38.1317 141.219 38.2988C140.599 38.4658 140.054 38.7256 139.584 39.078C139.126 39.4273 138.751 39.8544 138.461 40.3594C138.179 40.8495 137.997 41.3877 137.917 41.9741C137.845 42.5457 137.894 43.1473 138.064 43.7792C138.231 44.3993 138.491 44.9442 138.843 45.414C139.208 45.8806 139.636 46.2609 140.13 46.5547C140.62 46.8368 141.156 47.0122 141.74 47.081C142.323 47.1498 142.925 47.1006 143.545 46.9336Z" fill="white"/>
<path d="M156.853 39.0148L163.135 38.1355L163.413 40.1156L157.13 40.9948L156.853 39.0148ZM158.004 45.7913L155.663 46.1188L153.9 33.5184L163.098 32.231L163.373 34.1931L156.515 35.1529L158.004 45.7913Z" fill="white"/>
<path d="M180.289 36.8375L186.61 37.0539L186.543 38.9976L180.222 38.7812L180.289 36.8375ZM180.284 42.2933L187.459 42.539L187.391 44.519L177.854 44.1925L178.29 31.4767L187.572 31.7945L187.504 33.7746L180.583 33.5376L180.284 42.2933Z" fill="white"/>
<path d="M191.347 44.8078L197.764 38.3245L197.495 40.0853L193.524 32.2695L196.165 32.6738L199.123 38.4589L198.042 38.3119L202.561 33.6528L205.095 34.0406L199.023 40.1905L199.282 38.5016L203.493 46.6668L200.798 46.2543L197.692 40.1155L198.752 40.2778L194.007 45.2148L191.347 44.8078Z" fill="white"/>
<path d="M213.862 49.5105C212.929 49.2484 212.102 48.8526 211.382 48.3232C210.677 47.7854 210.106 47.153 209.669 46.4259C209.246 45.6905 208.979 44.8919 208.869 44.0302C208.758 43.1685 208.831 42.2827 209.087 41.3727C209.342 40.4628 209.741 39.6687 210.284 38.9905C210.827 38.3123 211.475 37.7768 212.227 37.3839C212.983 36.9794 213.8 36.7369 214.678 36.6564C215.56 36.5642 216.473 36.6509 217.418 36.9163C218.421 37.1981 219.288 37.6303 220.018 38.2129C220.751 38.7838 221.309 39.4879 221.69 40.3251L219.832 41.2946C219.523 40.6918 219.127 40.1968 218.644 39.8094C218.165 39.4104 217.604 39.1208 216.963 38.9406C216.321 38.7604 215.703 38.6999 215.107 38.7592C214.523 38.8217 213.979 38.9898 213.474 39.2633C212.981 39.5402 212.55 39.91 212.181 40.3727C211.823 40.8387 211.556 41.3866 211.379 42.0166C211.202 42.6466 211.145 43.2535 211.207 43.8375C211.282 44.4247 211.457 44.9648 211.734 45.4579C212.022 45.9543 212.4 46.3812 212.866 46.7387C213.343 47.0994 213.903 47.3698 214.545 47.5501C215.186 47.7303 215.814 47.7807 216.428 47.7014C217.045 47.6104 217.644 47.3822 218.225 47.0168L219.302 48.8295C218.543 49.3339 217.701 49.6448 216.774 49.7621C215.848 49.8795 214.877 49.7956 213.862 49.5105Z" fill="white"/>
<path d="M228.566 46.4632L234.408 48.8891L233.662 50.6852L227.82 48.2593L228.566 46.4632ZM226.643 51.5687L233.273 54.3223L232.513 56.152L223.701 52.4922L228.58 40.7419L237.158 44.3041L236.398 46.1338L230.003 43.4778L226.643 51.5687Z" fill="white"/>
<path d="M237.464 58.6023L243.618 47.4664L245.686 48.6092L240.499 57.9952L246.322 61.2129L245.355 62.9628L237.464 58.6023Z" fill="white"/>
<path d="M249.502 65.62L256.809 55.2047L258.744 56.5619L252.584 65.3405L258.03 69.1613L256.882 70.798L249.502 65.62Z" fill="white"/>
<path d="M267.278 69.7308L272.02 73.9161L270.733 75.3743L265.991 71.189L267.278 69.7308ZM263.806 73.9395L269.189 78.6901L267.878 80.1755L260.723 73.8615L269.142 64.3218L276.106 70.4675L274.795 71.9529L269.603 67.3708L263.806 73.9395Z" fill="white"/>
<path d="M271.795 84.0308L281.329 75.6063L282.617 77.0638L280.559 89.5302L279.921 88.8083L287.263 82.3214L288.815 84.0785L279.28 92.503L277.993 91.0455L280.051 78.5792L280.689 79.3011L273.347 85.7879L271.795 84.0308Z" fill="white"/>
<path d="M286.078 102.237C285.534 101.435 285.158 100.599 284.95 99.73C284.759 98.8643 284.731 98.0125 284.866 97.1747C285.018 96.3401 285.33 95.5581 285.802 94.8287C286.273 94.0993 286.901 93.4696 287.683 92.9396C288.466 92.4096 289.283 92.0608 290.136 91.8932C290.988 91.7257 291.828 91.7347 292.657 91.9202C293.495 92.0989 294.275 92.441 294.998 92.9466C295.731 93.4454 296.373 94.1011 296.923 94.9137C297.508 95.7766 297.89 96.6661 298.072 97.5822C298.263 98.4916 298.235 99.3892 297.986 100.275L295.941 99.816C296.094 99.1561 296.111 98.5225 295.992 97.915C295.884 97.3008 295.642 96.7178 295.269 96.166C294.895 95.6142 294.462 95.1687 293.968 94.8295C293.482 94.5003 292.958 94.2773 292.396 94.1604C291.84 94.0536 291.272 94.0577 290.692 94.1729C290.118 94.298 289.56 94.5441 289.019 94.911C288.477 95.278 288.041 95.7046 287.712 96.191C287.39 96.6874 287.175 97.2132 287.068 97.7686C286.968 98.3339 286.981 98.9035 287.106 99.4773C287.238 100.061 287.491 100.629 287.865 101.181C288.238 101.733 288.685 102.176 289.205 102.512C289.735 102.841 290.34 103.053 291.02 103.149L290.672 105.228C289.767 105.124 288.923 104.818 288.139 104.309C287.356 103.801 286.669 103.11 286.078 102.237Z" fill="white"/>
<path d="M299.277 109.402L302.172 115.025L300.443 115.916L297.547 110.292L299.277 109.402ZM294.512 112.06L297.799 118.443L296.037 119.35L291.669 110.866L302.98 105.041L307.232 113.299L305.471 114.206L302.301 108.049L294.512 112.06Z" fill="white"/>
<path d="M50.0643 256.241C49.4223 255.286 49.0727 254.331 49.0155 253.377C48.9684 252.416 49.2104 251.494 49.7416 250.611C50.2728 249.729 51.1066 248.906 52.2432 248.142C53.4501 247.331 54.6163 246.862 55.7417 246.733C56.8739 246.615 57.9164 246.798 58.8692 247.282C59.8288 247.776 60.6498 248.53 61.3324 249.546C61.6905 250.079 61.9765 250.624 62.1902 251.182C62.4107 251.749 62.5202 252.281 62.5186 252.778L60.5535 253.048C60.5486 252.628 60.4665 252.223 60.3072 251.834C60.1646 251.448 59.9683 251.069 59.7183 250.696C59.0493 249.701 58.212 249.117 57.2066 248.946C56.2011 248.775 55.0999 249.092 53.903 249.896C53.7119 250.024 53.489 250.181 53.2342 250.367C52.9895 250.546 52.7567 250.753 52.5357 250.989L52.7941 249.94C53.3281 249.844 53.8356 249.861 54.3167 249.99C54.8146 250.123 55.2792 250.358 55.7106 250.696C56.1487 251.044 56.5401 251.474 56.8848 251.987C57.3511 252.681 57.6309 253.391 57.7242 254.116C57.8276 254.835 57.741 255.521 57.4644 256.174C57.1979 256.82 56.7378 257.363 56.084 257.802C55.39 258.269 54.6716 258.503 53.9289 258.506C53.1862 258.509 52.478 258.313 51.8045 257.919C51.1309 257.524 50.5508 256.965 50.0643 256.241ZM51.5322 255.102C51.8025 255.504 52.1128 255.814 52.4631 256.031C52.8235 256.241 53.1969 256.341 53.5833 256.329C53.9765 256.328 54.3542 256.206 54.7163 255.962C55.2694 255.591 55.5786 255.106 55.6436 254.507C55.7087 253.909 55.525 253.288 55.0925 252.644C54.8087 252.221 54.4782 251.903 54.101 251.69C53.7406 251.479 53.3605 251.37 52.9605 251.361C52.5673 251.362 52.1947 251.481 51.8427 251.718C51.5208 251.934 51.2815 252.219 51.1249 252.572C50.9682 252.926 50.9175 253.318 50.9728 253.748C51.0349 254.188 51.2213 254.639 51.5322 255.102Z" fill="white"/>
<path d="M63.5556 273.149L67.2524 269.731L66.5426 271.105L69.5046 260.841L71.2197 262.697L68.8253 270.95L67.8628 269.909L76.3034 268.195L77.8827 269.903L67.4186 272.053L68.8565 271.466L65.1596 274.884L63.5556 273.149Z" fill="white"/>
<path d="M78.8104 277.931L83.5595 282.109L82.2749 283.569L77.5258 279.391L78.8104 277.931ZM75.3452 282.145L80.7356 286.887L79.427 288.375L72.2625 282.072L80.6665 272.519L87.6399 278.654L86.3313 280.141L81.1319 275.567L75.3452 282.145Z" fill="white"/>
<path d="M82.716 291.1L94.7304 284.007L96.6312 285.349L93.9868 299.055L91.9673 297.63L94.5567 285.419L95.3288 285.964L84.7058 292.505L82.716 291.1ZM86.5671 290.214L88.1559 289.067L93.7691 293.028L93.2197 294.91L86.5671 290.214Z" fill="white"/>
<path d="M98.0752 301.498L104.219 290.356L108.803 292.884C109.79 293.428 110.545 294.052 111.07 294.757C111.606 295.467 111.901 296.225 111.955 297.029C112.009 297.834 111.811 298.645 111.361 299.462C110.91 300.279 110.33 300.88 109.62 301.263C108.917 301.636 108.121 301.786 107.235 301.712C106.365 301.634 105.436 301.322 104.45 300.778L101.012 298.883L102.453 298.453L100.144 302.639L98.0752 301.498ZM105.365 305.517L104.777 299.921L106.989 301.141L107.593 306.746L105.365 305.517ZM102.33 298.675L101.951 297.18L105.293 299.023C106.206 299.526 106.998 299.707 107.671 299.566C108.355 299.431 108.889 299.013 109.276 298.313C109.668 297.602 109.735 296.926 109.479 296.287C109.234 295.653 108.654 295.085 107.742 294.582L104.399 292.739L105.884 292.229L102.33 298.675Z" fill="white"/>
<path d="M116.476 310.936C115.56 310.55 114.738 310.052 114.008 309.442C113.284 308.821 112.763 308.2 112.446 307.58L113.913 306.206C114.226 306.772 114.678 307.324 115.266 307.862C115.855 308.399 116.512 308.821 117.238 309.127C117.852 309.386 118.377 309.528 118.813 309.554C119.25 309.58 119.604 309.519 119.877 309.371C120.154 309.212 120.354 308.987 120.477 308.697C120.627 308.34 120.619 308.001 120.451 307.68C120.289 307.349 120.027 307.035 119.665 306.738C119.32 306.434 118.919 306.121 118.464 305.797C118.02 305.478 117.577 305.141 117.136 304.784C116.71 304.42 116.341 304.034 116.026 303.626C115.728 303.21 115.535 302.748 115.448 302.238C115.36 301.727 115.448 301.16 115.712 300.534C115.98 299.898 116.392 299.388 116.949 299.004C117.521 298.614 118.219 298.409 119.043 298.388C119.883 298.361 120.839 298.573 121.911 299.025C122.614 299.321 123.274 299.705 123.891 300.175C124.508 300.646 125.003 301.157 125.375 301.708L123.976 303.11C123.583 302.577 123.137 302.119 122.64 301.739C122.148 301.347 121.645 301.043 121.131 300.827C120.528 300.572 120.007 300.438 119.566 300.423C119.136 300.413 118.782 300.487 118.505 300.647C118.239 300.81 118.042 301.043 117.915 301.345C117.764 301.702 117.765 302.044 117.916 302.371C118.084 302.691 118.342 302.998 118.693 303.29C119.054 303.587 119.46 303.903 119.911 304.237C120.366 304.561 120.809 304.899 121.239 305.251C121.68 305.608 122.052 305.988 122.355 306.392C122.67 306.801 122.865 307.258 122.941 307.763C123.029 308.274 122.943 308.836 122.684 309.45C122.42 310.075 122.003 310.583 121.43 310.973C120.874 311.357 120.176 311.562 119.336 311.589C118.501 311.605 117.547 311.387 116.476 310.936Z" fill="white"/>
<path d="M140.364 318.795C139.398 318.564 138.546 318.192 137.809 317.68C137.072 317.167 136.47 316.556 136.005 315.846C135.542 315.125 135.237 314.342 135.09 313.497C134.946 312.64 134.984 311.753 135.204 310.833C135.424 309.914 135.791 309.111 136.304 308.424C136.82 307.725 137.446 307.165 138.182 306.743C138.921 306.309 139.736 306.03 140.625 305.907C141.514 305.783 142.436 305.835 143.391 306.063C144.357 306.295 145.203 306.665 145.928 307.175C146.665 307.688 147.265 308.305 147.728 309.026C148.194 309.735 148.499 310.518 148.643 311.375C148.789 312.22 148.753 313.102 148.533 314.021C148.313 314.941 147.945 315.75 147.429 316.449C146.913 317.147 146.287 317.708 145.551 318.13C144.814 318.552 144.001 318.824 143.112 318.948C142.235 319.075 141.319 319.024 140.364 318.795ZM140.828 316.776C141.453 316.925 142.056 316.957 142.637 316.872C143.218 316.787 143.749 316.596 144.231 316.3C144.716 315.993 145.127 315.605 145.463 315.137C145.813 314.66 146.065 314.104 146.217 313.467C146.369 312.831 146.396 312.227 146.296 311.655C146.21 311.074 146.02 310.542 145.724 310.06C145.431 309.567 145.045 309.15 144.565 308.811C144.085 308.472 143.533 308.228 142.909 308.079C142.284 307.929 141.681 307.897 141.1 307.983C140.531 308.071 139.998 308.267 139.501 308.572C139.02 308.868 138.603 309.254 138.252 309.731C137.916 310.199 137.672 310.751 137.52 311.387C137.371 312.012 137.338 312.615 137.424 313.196C137.521 313.78 137.716 314.318 138.009 314.812C138.305 315.294 138.693 315.704 139.172 316.043C139.652 316.382 140.204 316.627 140.828 316.776Z" fill="white"/>
<path d="M155.648 314.529L161.943 315.314L161.695 317.298L155.401 316.513L155.648 314.529ZM154.996 321.371L152.651 321.079L154.226 308.454L163.443 309.603L163.197 311.569L156.326 310.712L154.996 321.371Z" fill="white"/>
<path d="M177.63 315.34L183.953 315.147L184.012 317.091L177.69 317.284L177.63 315.34ZM177.979 320.785L185.155 320.566L185.215 322.546L175.677 322.837L175.289 310.12L184.572 309.837L184.633 311.817L177.711 312.028L177.979 320.785Z" fill="white"/>
<path d="M189.726 322.242L194.042 314.205L194.282 315.97L188.259 309.601L190.906 309.24L195.382 313.949L194.304 314.114L197.318 308.365L199.857 308.019L195.778 315.638L195.547 313.945L201.9 320.581L199.199 320.95L194.48 315.943L195.543 315.798L192.391 321.878L189.726 322.242Z" fill="white"/>
<path d="M212.993 318.263C212.052 318.497 211.138 318.563 210.251 318.46C209.372 318.341 208.562 318.075 207.822 317.66C207.091 317.23 206.464 316.669 205.941 315.975C205.418 315.281 205.043 314.475 204.814 313.558C204.585 312.641 204.539 311.754 204.675 310.896C204.81 310.037 205.108 309.252 205.567 308.538C206.023 307.812 206.612 307.197 207.336 306.692C208.056 306.175 208.892 305.798 209.845 305.56C210.856 305.308 211.823 305.255 212.745 305.399C213.665 305.532 214.498 305.868 215.244 306.406L214.11 308.169C213.543 307.798 212.954 307.564 212.343 307.467C211.729 307.357 211.098 307.383 210.452 307.545C209.805 307.706 209.238 307.96 208.75 308.306C208.273 308.65 207.884 309.065 207.581 309.553C207.289 310.038 207.098 310.572 207.006 311.157C206.927 311.739 206.966 312.347 207.124 312.982C207.283 313.617 207.533 314.173 207.877 314.649C208.232 315.123 208.652 315.505 209.137 315.796C209.634 316.084 210.173 316.269 210.755 316.348C211.348 316.425 211.968 316.383 212.615 316.222C213.262 316.06 213.832 315.793 214.326 315.42C214.817 315.036 215.224 314.541 215.548 313.936L217.381 314.977C216.972 315.791 216.394 316.478 215.647 317.039C214.901 317.6 214.016 318.008 212.993 318.263Z" fill="white"/>
<path d="M222.869 307.365L228.808 305.189L229.478 307.015L223.538 309.191L222.869 307.365ZM224.916 312.422L231.657 309.952L232.339 311.813L223.379 315.096L219.002 303.149L227.723 299.954L228.404 301.814L221.902 304.196L224.916 312.422Z" fill="white"/>
<path d="M237.887 309.406L232.347 297.952L234.474 296.924L239.143 306.578L245.132 303.681L246.003 305.481L237.887 309.406Z" fill="white"/>
<path d="M250.745 302.842L244.139 291.968L246.159 290.742L251.727 299.907L257.412 296.453L258.45 298.162L250.745 302.842Z" fill="white"/>
<path d="M260.211 287.84L265.264 284.036L266.434 285.59L261.38 289.394L260.211 287.84ZM263.635 292.087L269.371 287.77L270.562 289.353L262.938 295.091L255.287 284.925L262.708 279.34L263.9 280.923L258.367 285.087L263.635 292.087Z" fill="white"/>
<path d="M275.232 285.464L266.505 276.205L267.921 274.871L280.447 276.527L279.746 277.188L273.026 270.059L274.732 268.451L283.459 277.709L282.044 279.043L269.518 277.387L270.219 276.727L276.939 283.856L275.232 285.464Z" fill="white"/>
<path d="M291.906 268.512C291.281 269.253 290.579 269.841 289.799 270.278C289.018 270.697 288.206 270.955 287.363 271.053C286.518 271.133 285.681 271.046 284.851 270.79C284.02 270.534 283.244 270.101 282.521 269.492C281.799 268.883 281.241 268.191 280.848 267.416C280.455 266.641 280.236 265.83 280.189 264.982C280.134 264.127 280.251 263.283 280.541 262.45C280.822 261.609 281.279 260.813 281.912 260.063C282.583 259.266 283.335 258.656 284.168 258.233C284.991 257.801 285.862 257.585 286.783 257.584L286.896 259.677C286.22 259.709 285.605 259.864 285.053 260.144C284.491 260.415 283.996 260.806 283.566 261.315C283.137 261.825 282.826 262.363 282.633 262.93C282.448 263.487 282.376 264.052 282.416 264.625C282.464 265.188 282.623 265.734 282.891 266.261C283.167 266.78 283.556 267.25 284.056 267.671C284.556 268.093 285.085 268.396 285.643 268.581C286.208 268.756 286.772 268.82 287.336 268.772C287.907 268.715 288.452 268.548 288.97 268.272C289.496 267.986 289.974 267.588 290.403 267.079C290.833 266.569 291.139 266.019 291.32 265.427C291.493 264.828 291.533 264.188 291.441 263.508L293.536 263.278C293.682 264.177 293.616 265.072 293.34 265.964C293.063 266.857 292.585 267.706 291.906 268.512Z" fill="white"/>
<path d="M293.523 253.893L297.061 248.649L298.673 249.737L295.136 254.981L293.523 253.893ZM298.145 256.792L302.161 250.84L303.803 251.948L298.466 259.859L287.919 252.743L293.113 245.043L294.756 246.151L290.883 251.892L298.145 256.792Z" fill="white"/>
<circle cx="38.7067" cy="181.209" r="5.112" fill="white"/>
<circle cx="317.027" cy="181.209" r="5.112" fill="white"/>
<path d="M122.065 184.622V152.961L124.841 155.835H114.855V150.525H128.397V184.622H122.065ZM149.384 185.109C146.689 185.109 144.253 184.427 142.077 183.063C139.934 181.699 138.246 179.719 137.012 177.121C135.778 174.49 135.161 171.308 135.161 167.574C135.161 163.839 135.778 160.673 137.012 158.075C138.246 155.445 139.934 153.448 142.077 152.084C144.253 150.72 146.689 150.038 149.384 150.038C152.112 150.038 154.547 150.72 156.69 152.084C158.833 153.448 160.522 155.445 161.756 158.075C163.022 160.673 163.656 163.839 163.656 167.574C163.656 171.308 163.022 174.49 161.756 177.121C160.522 179.719 158.833 181.699 156.69 183.063C154.547 184.427 152.112 185.109 149.384 185.109ZM149.384 179.605C150.975 179.605 152.355 179.183 153.524 178.339C154.693 177.462 155.602 176.13 156.252 174.344C156.934 172.558 157.275 170.301 157.275 167.574C157.275 164.813 156.934 162.557 156.252 160.803C155.602 159.017 154.693 157.702 153.524 156.858C152.355 155.981 150.975 155.542 149.384 155.542C147.858 155.542 146.494 155.981 145.292 156.858C144.123 157.702 143.198 159.017 142.516 160.803C141.866 162.557 141.542 164.813 141.542 167.574C141.542 170.301 141.866 172.558 142.516 174.344C143.198 176.13 144.123 177.462 145.292 178.339C146.494 179.183 147.858 179.605 149.384 179.605ZM182.158 185.109C179.463 185.109 177.027 184.427 174.852 183.063C172.708 181.699 171.02 179.719 169.786 177.121C168.552 174.49 167.935 171.308 167.935 167.574C167.935 163.839 168.552 160.673 169.786 158.075C171.02 155.445 172.708 153.448 174.852 152.084C177.027 150.72 179.463 150.038 182.158 150.038C184.886 150.038 187.321 150.72 189.465 152.084C191.608 153.448 193.296 155.445 194.53 158.075C195.797 160.673 196.43 163.839 196.43 167.574C196.43 171.308 195.797 174.49 194.53 177.121C193.296 179.719 191.608 181.699 189.465 183.063C187.321 184.427 184.886 185.109 182.158 185.109ZM182.158 179.605C183.749 179.605 185.129 179.183 186.298 178.339C187.467 177.462 188.377 176.13 189.026 174.344C189.708 172.558 190.049 170.301 190.049 167.574C190.049 164.813 189.708 162.557 189.026 160.803C188.377 159.017 187.467 157.702 186.298 156.858C185.129 155.981 183.749 155.542 182.158 155.542C180.632 155.542 179.268 155.981 178.067 156.858C176.897 157.702 175.972 159.017 175.29 160.803C174.641 162.557 174.316 164.813 174.316 167.574C174.316 170.301 174.641 172.558 175.29 174.344C175.972 176.13 176.897 177.462 178.067 178.339C179.268 179.183 180.632 179.605 182.158 179.605ZM205.483 184.622L228.766 150.525H233.54L210.256 184.622H205.483ZM208.308 168.889C206.717 168.889 205.304 168.499 204.07 167.72C202.836 166.94 201.878 165.853 201.196 164.456C200.514 163.06 200.173 161.42 200.173 159.537C200.173 157.653 200.514 156.013 201.196 154.617C201.878 153.221 202.836 152.133 204.07 151.353C205.304 150.574 206.717 150.184 208.308 150.184C209.964 150.184 211.393 150.574 212.594 151.353C213.828 152.133 214.786 153.221 215.468 154.617C216.15 156.013 216.491 157.653 216.491 159.537C216.491 161.42 216.15 163.06 215.468 164.456C214.786 165.853 213.828 166.94 212.594 167.72C211.393 168.499 209.964 168.889 208.308 168.889ZM208.357 165.479C209.656 165.479 210.662 164.976 211.377 163.969C212.124 162.93 212.497 161.453 212.497 159.537C212.497 157.621 212.124 156.159 211.377 155.153C210.662 154.114 209.656 153.594 208.357 153.594C207.058 153.594 206.019 154.114 205.239 155.153C204.492 156.192 204.119 157.653 204.119 159.537C204.119 161.42 204.492 162.881 205.239 163.92C206.019 164.96 207.058 165.479 208.357 165.479ZM230.666 184.963C229.074 184.963 227.662 184.573 226.428 183.794C225.194 183.015 224.236 181.927 223.554 180.53C222.872 179.134 222.531 177.494 222.531 175.611C222.531 173.727 222.872 172.087 223.554 170.691C224.236 169.295 225.194 168.207 226.428 167.428C227.662 166.648 229.074 166.259 230.666 166.259C232.322 166.259 233.751 166.648 234.952 167.428C236.186 168.207 237.144 169.295 237.826 170.691C238.508 172.087 238.849 173.727 238.849 175.611C238.849 177.494 238.508 179.134 237.826 180.53C237.144 181.927 236.186 183.015 234.952 183.794C233.751 184.573 232.322 184.963 230.666 184.963ZM230.666 181.553C231.965 181.553 232.987 181.034 233.734 179.995C234.481 178.956 234.855 177.494 234.855 175.611C234.855 173.727 234.481 172.266 233.734 171.227C232.987 170.188 231.965 169.668 230.666 169.668C229.399 169.668 228.376 170.188 227.597 171.227C226.85 172.234 226.477 173.695 226.477 175.611C226.477 177.527 226.85 179.004 227.597 180.043C228.376 181.05 229.399 181.553 230.666 181.553Z" fill="#222222"/>
<path d="M121.992 212.709C121.414 212.709 120.88 212.615 120.389 212.427C119.906 212.232 119.483 211.962 119.122 211.615C118.769 211.261 118.491 210.85 118.289 210.381C118.087 209.911 117.986 209.395 117.986 208.832C117.986 208.269 118.087 207.753 118.289 207.284C118.491 206.815 118.772 206.407 119.133 206.06C119.494 205.707 119.917 205.436 120.4 205.248C120.891 205.053 121.425 204.956 122.003 204.956C122.587 204.956 123.125 205.057 123.616 205.259C124.114 205.454 124.536 205.746 124.883 206.136L124.179 206.818C123.89 206.515 123.566 206.291 123.205 206.147C122.844 205.995 122.457 205.92 122.046 205.92C121.62 205.92 121.223 205.992 120.855 206.136C120.494 206.281 120.18 206.483 119.913 206.743C119.646 207.002 119.436 207.313 119.285 207.674C119.141 208.027 119.068 208.414 119.068 208.832C119.068 209.251 119.141 209.641 119.285 210.002C119.436 210.355 119.646 210.662 119.913 210.922C120.18 211.182 120.494 211.384 120.855 211.528C121.223 211.673 121.62 211.745 122.046 211.745C122.457 211.745 122.844 211.673 123.205 211.528C123.566 211.377 123.89 211.146 124.179 210.835L124.883 211.518C124.536 211.907 124.114 212.203 123.616 212.406C123.125 212.608 122.584 212.709 121.992 212.709ZM128.511 212.687C128.02 212.687 127.587 212.597 127.212 212.416C126.843 212.236 126.555 211.962 126.345 211.593C126.143 211.218 126.042 210.749 126.042 210.186V206.883H127.082V210.067C127.082 210.63 127.215 211.052 127.482 211.334C127.757 211.615 128.139 211.756 128.63 211.756C128.991 211.756 129.305 211.684 129.572 211.539C129.839 211.388 130.045 211.171 130.189 210.89C130.334 210.601 130.406 210.254 130.406 209.85V206.883H131.445V212.622H130.46V211.074L130.622 211.485C130.435 211.868 130.153 212.164 129.778 212.373C129.402 212.582 128.98 212.687 128.511 212.687ZM135.07 212.687C134.594 212.687 134.139 212.622 133.706 212.492C133.28 212.362 132.944 212.203 132.699 212.016L133.132 211.193C133.377 211.359 133.68 211.5 134.041 211.615C134.402 211.731 134.77 211.788 135.146 211.788C135.629 211.788 135.976 211.72 136.185 211.583C136.402 211.445 136.51 211.254 136.51 211.009C136.51 210.828 136.445 210.687 136.315 210.586C136.185 210.485 136.012 210.41 135.795 210.359C135.586 210.309 135.351 210.265 135.092 210.229C134.832 210.186 134.572 210.135 134.312 210.078C134.052 210.013 133.814 209.926 133.597 209.818C133.381 209.702 133.208 209.547 133.078 209.352C132.948 209.15 132.883 208.883 132.883 208.551C132.883 208.204 132.98 207.901 133.175 207.641C133.37 207.381 133.644 207.183 133.998 207.046C134.359 206.901 134.785 206.829 135.276 206.829C135.651 206.829 136.03 206.876 136.413 206.97C136.802 207.057 137.12 207.183 137.365 207.349L136.922 208.172C136.662 207.999 136.391 207.879 136.109 207.814C135.828 207.75 135.546 207.717 135.265 207.717C134.81 207.717 134.471 207.793 134.247 207.944C134.023 208.089 133.911 208.276 133.911 208.507C133.911 208.702 133.976 208.854 134.106 208.962C134.243 209.063 134.417 209.143 134.626 209.2C134.843 209.258 135.081 209.309 135.341 209.352C135.6 209.388 135.86 209.439 136.12 209.504C136.38 209.561 136.615 209.644 136.824 209.753C137.041 209.861 137.214 210.013 137.344 210.207C137.481 210.402 137.55 210.662 137.55 210.987C137.55 211.334 137.448 211.633 137.246 211.886C137.044 212.138 136.759 212.337 136.391 212.481C136.023 212.618 135.582 212.687 135.07 212.687ZM140.819 212.687C140.242 212.687 139.794 212.532 139.477 212.221C139.159 211.911 139 211.467 139 210.89V205.627H140.04V210.846C140.04 211.157 140.115 211.395 140.267 211.561C140.426 211.727 140.65 211.81 140.938 211.81C141.263 211.81 141.534 211.72 141.75 211.539L142.075 212.286C141.917 212.424 141.725 212.525 141.501 212.59C141.285 212.655 141.058 212.687 140.819 212.687ZM138.026 207.739V206.883H141.686V207.739H138.026ZM145.6 212.687C145.022 212.687 144.51 212.561 144.062 212.308C143.615 212.055 143.261 211.709 143.001 211.269C142.741 210.821 142.611 210.316 142.611 209.753C142.611 209.182 142.741 208.677 143.001 208.237C143.261 207.796 143.615 207.454 144.062 207.208C144.51 206.955 145.022 206.829 145.6 206.829C146.17 206.829 146.679 206.955 147.126 207.208C147.581 207.454 147.935 207.796 148.187 208.237C148.447 208.67 148.577 209.175 148.577 209.753C148.577 210.323 148.447 210.828 148.187 211.269C147.935 211.709 147.581 212.055 147.126 212.308C146.679 212.561 146.17 212.687 145.6 212.687ZM145.6 211.777C145.968 211.777 146.296 211.694 146.585 211.528C146.881 211.362 147.112 211.128 147.278 210.825C147.444 210.514 147.527 210.157 147.527 209.753C147.527 209.341 147.444 208.988 147.278 208.692C147.112 208.388 146.881 208.154 146.585 207.988C146.296 207.822 145.968 207.739 145.6 207.739C145.231 207.739 144.903 207.822 144.614 207.988C144.326 208.154 144.095 208.388 143.921 208.692C143.748 208.988 143.661 209.341 143.661 209.753C143.661 210.157 143.748 210.514 143.921 210.825C144.095 211.128 144.326 211.362 144.614 211.528C144.903 211.694 145.231 211.777 145.6 211.777ZM157.194 206.829C157.656 206.829 158.064 206.919 158.417 207.1C158.771 207.28 159.045 207.555 159.24 207.923C159.442 208.291 159.543 208.757 159.543 209.32V212.622H158.504V209.439C158.504 208.883 158.374 208.464 158.114 208.183C157.854 207.901 157.49 207.76 157.021 207.76C156.674 207.76 156.371 207.833 156.111 207.977C155.851 208.121 155.649 208.334 155.505 208.616C155.367 208.897 155.299 209.247 155.299 209.666V212.622H154.259V209.439C154.259 208.883 154.129 208.464 153.87 208.183C153.617 207.901 153.252 207.76 152.776 207.76C152.437 207.76 152.137 207.833 151.877 207.977C151.617 208.121 151.415 208.334 151.271 208.616C151.127 208.897 151.054 209.247 151.054 209.666V212.622H150.015V206.883H151.011V208.41L150.849 208.02C151.029 207.645 151.307 207.352 151.682 207.143C152.058 206.934 152.494 206.829 152.993 206.829C153.541 206.829 154.014 206.966 154.411 207.241C154.808 207.508 155.068 207.916 155.191 208.464L154.768 208.291C154.942 207.851 155.245 207.497 155.678 207.23C156.111 206.963 156.616 206.829 157.194 206.829ZM164.011 212.687C163.398 212.687 162.856 212.561 162.387 212.308C161.925 212.055 161.564 211.709 161.304 211.269C161.052 210.828 160.925 210.323 160.925 209.753C160.925 209.182 161.048 208.677 161.294 208.237C161.546 207.796 161.889 207.454 162.322 207.208C162.763 206.955 163.257 206.829 163.806 206.829C164.362 206.829 164.852 206.952 165.278 207.197C165.704 207.443 166.036 207.789 166.274 208.237C166.52 208.677 166.643 209.193 166.643 209.785C166.643 209.828 166.639 209.879 166.632 209.937C166.632 209.995 166.628 210.049 166.621 210.099H161.738V209.352H166.08L165.657 209.612C165.664 209.244 165.589 208.915 165.43 208.627C165.271 208.338 165.051 208.114 164.769 207.955C164.495 207.789 164.174 207.706 163.806 207.706C163.445 207.706 163.124 207.789 162.842 207.955C162.56 208.114 162.34 208.341 162.182 208.637C162.023 208.926 161.943 209.258 161.943 209.634V209.807C161.943 210.189 162.03 210.532 162.203 210.835C162.384 211.131 162.633 211.362 162.95 211.528C163.268 211.694 163.632 211.777 164.044 211.777C164.383 211.777 164.69 211.72 164.964 211.604C165.246 211.489 165.491 211.316 165.701 211.085L166.274 211.756C166.015 212.059 165.69 212.29 165.3 212.449C164.917 212.608 164.488 212.687 164.011 212.687ZM168.086 212.622V206.883H169.082V208.443L168.985 208.053C169.144 207.656 169.411 207.352 169.786 207.143C170.161 206.934 170.623 206.829 171.172 206.829V207.836C171.129 207.829 171.085 207.825 171.042 207.825C171.006 207.825 170.97 207.825 170.934 207.825C170.378 207.825 169.938 207.991 169.613 208.323C169.288 208.655 169.125 209.135 169.125 209.764V212.622H168.086ZM177.081 212.687C176.604 212.687 176.15 212.622 175.717 212.492C175.291 212.362 174.955 212.203 174.71 212.016L175.143 211.193C175.388 211.359 175.691 211.5 176.052 211.615C176.413 211.731 176.781 211.788 177.157 211.788C177.64 211.788 177.987 211.72 178.196 211.583C178.413 211.445 178.521 211.254 178.521 211.009C178.521 210.828 178.456 210.687 178.326 210.586C178.196 210.485 178.023 210.41 177.806 210.359C177.597 210.309 177.362 210.265 177.103 210.229C176.843 210.186 176.583 210.135 176.323 210.078C176.063 210.013 175.825 209.926 175.608 209.818C175.392 209.702 175.218 209.547 175.089 209.352C174.959 209.15 174.894 208.883 174.894 208.551C174.894 208.204 174.991 207.901 175.186 207.641C175.381 207.381 175.655 207.183 176.009 207.046C176.37 206.901 176.796 206.829 177.287 206.829C177.662 206.829 178.041 206.876 178.424 206.97C178.813 207.057 179.131 207.183 179.376 207.349L178.932 208.172C178.673 207.999 178.402 207.879 178.12 207.814C177.839 207.75 177.557 207.717 177.276 207.717C176.821 207.717 176.482 207.793 176.258 207.944C176.034 208.089 175.922 208.276 175.922 208.507C175.922 208.702 175.987 208.854 176.117 208.962C176.254 209.063 176.428 209.143 176.637 209.2C176.853 209.258 177.092 209.309 177.352 209.352C177.611 209.388 177.871 209.439 178.131 209.504C178.391 209.561 178.626 209.644 178.835 209.753C179.052 209.861 179.225 210.013 179.355 210.207C179.492 210.402 179.56 210.662 179.56 210.987C179.56 211.334 179.459 211.633 179.257 211.886C179.055 212.138 178.77 212.337 178.402 212.481C178.034 212.618 177.593 212.687 177.081 212.687ZM184.422 212.622V211.409L184.368 211.182V209.114C184.368 208.674 184.238 208.334 183.978 208.096C183.725 207.851 183.343 207.728 182.83 207.728C182.491 207.728 182.159 207.786 181.834 207.901C181.509 208.009 181.235 208.157 181.011 208.345L180.578 207.565C180.874 207.327 181.228 207.147 181.639 207.024C182.058 206.894 182.495 206.829 182.949 206.829C183.736 206.829 184.343 207.02 184.768 207.403C185.194 207.786 185.407 208.37 185.407 209.157V212.622H184.422ZM182.538 212.687C182.112 212.687 181.737 212.615 181.412 212.47C181.094 212.326 180.849 212.128 180.675 211.875C180.502 211.615 180.416 211.323 180.416 210.998C180.416 210.687 180.488 210.406 180.632 210.153C180.784 209.901 181.026 209.699 181.358 209.547C181.697 209.395 182.152 209.32 182.722 209.32H184.541V210.067H182.765C182.246 210.067 181.895 210.153 181.715 210.327C181.534 210.5 181.444 210.709 181.444 210.955C181.444 211.236 181.556 211.463 181.78 211.637C182.004 211.803 182.314 211.886 182.711 211.886C183.101 211.886 183.44 211.799 183.729 211.626C184.025 211.453 184.238 211.2 184.368 210.868L184.574 211.583C184.436 211.922 184.195 212.193 183.848 212.395C183.502 212.59 183.065 212.687 182.538 212.687ZM189.302 212.687C188.724 212.687 188.277 212.532 187.959 212.221C187.641 211.911 187.482 211.467 187.482 210.89V205.627H188.522V210.846C188.522 211.157 188.598 211.395 188.749 211.561C188.908 211.727 189.132 211.81 189.421 211.81C189.746 211.81 190.016 211.72 190.233 211.539L190.558 212.286C190.399 212.424 190.207 212.525 189.984 212.59C189.767 212.655 189.54 212.687 189.302 212.687ZM186.508 207.739V206.883H190.168V207.739H186.508ZM191.814 212.622V206.883H192.854V212.622H191.814ZM192.334 205.779C192.132 205.779 191.962 205.714 191.825 205.584C191.695 205.454 191.63 205.295 191.63 205.108C191.63 204.913 191.695 204.75 191.825 204.62C191.962 204.49 192.132 204.425 192.334 204.425C192.536 204.425 192.702 204.49 192.832 204.62C192.969 204.743 193.038 204.898 193.038 205.086C193.038 205.281 192.973 205.447 192.843 205.584C192.713 205.714 192.543 205.779 192.334 205.779ZM196.484 212.687C196.008 212.687 195.553 212.622 195.12 212.492C194.694 212.362 194.358 212.203 194.113 212.016L194.546 211.193C194.792 211.359 195.095 211.5 195.456 211.615C195.817 211.731 196.185 211.788 196.56 211.788C197.044 211.788 197.39 211.72 197.6 211.583C197.816 211.445 197.924 211.254 197.924 211.009C197.924 210.828 197.859 210.687 197.73 210.586C197.6 210.485 197.426 210.41 197.21 210.359C197 210.309 196.766 210.265 196.506 210.229C196.246 210.186 195.986 210.135 195.726 210.078C195.467 210.013 195.228 209.926 195.012 209.818C194.795 209.702 194.622 209.547 194.492 209.352C194.362 209.15 194.297 208.883 194.297 208.551C194.297 208.204 194.395 207.901 194.589 207.641C194.784 207.381 195.059 207.183 195.412 207.046C195.773 206.901 196.199 206.829 196.69 206.829C197.065 206.829 197.444 206.876 197.827 206.97C198.217 207.057 198.534 207.183 198.78 207.349L198.336 208.172C198.076 207.999 197.805 207.879 197.524 207.814C197.242 207.75 196.961 207.717 196.679 207.717C196.224 207.717 195.885 207.793 195.661 207.944C195.438 208.089 195.326 208.276 195.326 208.507C195.326 208.702 195.391 208.854 195.521 208.962C195.658 209.063 195.831 209.143 196.04 209.2C196.257 209.258 196.495 209.309 196.755 209.352C197.015 209.388 197.275 209.439 197.535 209.504C197.795 209.561 198.029 209.644 198.238 209.753C198.455 209.861 198.628 210.013 198.758 210.207C198.895 210.402 198.964 210.662 198.964 210.987C198.964 211.334 198.863 211.633 198.661 211.886C198.459 212.138 198.173 212.337 197.805 212.481C197.437 212.618 196.997 212.687 196.484 212.687ZM200.415 212.622V206.374C200.415 205.811 200.577 205.364 200.902 205.032C201.234 204.692 201.703 204.523 202.309 204.523C202.533 204.523 202.746 204.552 202.948 204.609C203.158 204.66 203.335 204.743 203.479 204.858L203.165 205.649C203.057 205.562 202.934 205.497 202.797 205.454C202.66 205.403 202.515 205.378 202.364 205.378C202.06 205.378 201.829 205.465 201.671 205.638C201.512 205.804 201.432 206.053 201.432 206.385V207.154L201.454 207.63V212.622H200.415ZM199.44 207.739V206.883H203.1V207.739H199.44ZM207.537 212.622V211.409L207.483 211.182V209.114C207.483 208.674 207.353 208.334 207.093 208.096C206.84 207.851 206.458 207.728 205.945 207.728C205.606 207.728 205.274 207.786 204.949 207.901C204.624 208.009 204.35 208.157 204.126 208.345L203.693 207.565C203.989 207.327 204.343 207.147 204.754 207.024C205.173 206.894 205.61 206.829 206.064 206.829C206.851 206.829 207.458 207.02 207.883 207.403C208.309 207.786 208.522 208.37 208.522 209.157V212.622H207.537ZM205.653 212.687C205.227 212.687 204.852 212.615 204.527 212.47C204.209 212.326 203.964 212.128 203.79 211.875C203.617 211.615 203.531 211.323 203.531 210.998C203.531 210.687 203.603 210.406 203.747 210.153C203.899 209.901 204.141 209.699 204.473 209.547C204.812 209.395 205.267 209.32 205.837 209.32H207.656V210.067H205.88C205.361 210.067 205.01 210.153 204.83 210.327C204.649 210.5 204.559 210.709 204.559 210.955C204.559 211.236 204.671 211.463 204.895 211.637C205.119 211.803 205.429 211.886 205.826 211.886C206.216 211.886 206.555 211.799 206.844 211.626C207.14 211.453 207.353 211.2 207.483 210.868L207.688 211.583C207.551 211.922 207.31 212.193 206.963 212.395C206.617 212.59 206.18 212.687 205.653 212.687ZM212.947 212.687C212.362 212.687 211.839 212.561 211.377 212.308C210.922 212.055 210.565 211.709 210.305 211.269C210.045 210.828 209.915 210.323 209.915 209.753C209.915 209.182 210.045 208.677 210.305 208.237C210.565 207.796 210.922 207.454 211.377 207.208C211.839 206.955 212.362 206.829 212.947 206.829C213.467 206.829 213.929 206.934 214.333 207.143C214.745 207.345 215.062 207.648 215.286 208.053L214.496 208.562C214.308 208.28 214.077 208.074 213.803 207.944C213.535 207.807 213.247 207.739 212.936 207.739C212.561 207.739 212.225 207.822 211.929 207.988C211.633 208.154 211.399 208.388 211.226 208.692C211.052 208.988 210.966 209.341 210.966 209.753C210.966 210.164 211.052 210.521 211.226 210.825C211.399 211.128 211.633 211.362 211.929 211.528C212.225 211.694 212.561 211.777 212.936 211.777C213.247 211.777 213.535 211.713 213.803 211.583C214.077 211.445 214.308 211.236 214.496 210.955L215.286 211.453C215.062 211.85 214.745 212.156 214.333 212.373C213.929 212.582 213.467 212.687 212.947 212.687ZM218.676 212.687C218.099 212.687 217.651 212.532 217.334 212.221C217.016 211.911 216.857 211.467 216.857 210.89V205.627H217.897V210.846C217.897 211.157 217.973 211.395 218.124 211.561C218.283 211.727 218.507 211.81 218.796 211.81C219.12 211.81 219.391 211.72 219.608 211.539L219.932 212.286C219.774 212.424 219.582 212.525 219.359 212.59C219.142 212.655 218.915 212.687 218.676 212.687ZM215.883 207.739V206.883H219.543V207.739H215.883ZM221.189 212.622V206.883H222.229V212.622H221.189ZM221.709 205.779C221.507 205.779 221.337 205.714 221.2 205.584C221.07 205.454 221.005 205.295 221.005 205.108C221.005 204.913 221.07 204.75 221.2 204.62C221.337 204.49 221.507 204.425 221.709 204.425C221.911 204.425 222.077 204.49 222.207 204.62C222.344 204.743 222.413 204.898 222.413 205.086C222.413 205.281 222.348 205.447 222.218 205.584C222.088 205.714 221.918 205.779 221.709 205.779ZM226.671 212.687C226.094 212.687 225.581 212.561 225.134 212.308C224.686 212.055 224.332 211.709 224.073 211.269C223.813 210.821 223.683 210.316 223.683 209.753C223.683 209.182 223.813 208.677 224.073 208.237C224.332 207.796 224.686 207.454 225.134 207.208C225.581 206.955 226.094 206.829 226.671 206.829C227.242 206.829 227.75 206.955 228.198 207.208C228.653 207.454 229.007 207.796 229.259 208.237C229.519 208.67 229.649 209.175 229.649 209.753C229.649 210.323 229.519 210.828 229.259 211.269C229.007 211.709 228.653 212.055 228.198 212.308C227.75 212.561 227.242 212.687 226.671 212.687ZM226.671 211.777C227.039 211.777 227.368 211.694 227.657 211.528C227.953 211.362 228.184 211.128 228.35 210.825C228.516 210.514 228.599 210.157 228.599 209.753C228.599 209.341 228.516 208.988 228.35 208.692C228.184 208.388 227.953 208.154 227.657 207.988C227.368 207.822 227.039 207.739 226.671 207.739C226.303 207.739 225.975 207.822 225.686 207.988C225.397 208.154 225.166 208.388 224.993 208.692C224.82 208.988 224.733 209.341 224.733 209.753C224.733 210.157 224.82 210.514 224.993 210.825C225.166 211.128 225.397 211.362 225.686 211.528C225.975 211.694 226.303 211.777 226.671 211.777ZM234.151 206.829C234.62 206.829 235.032 206.919 235.385 207.1C235.746 207.28 236.028 207.555 236.23 207.923C236.432 208.291 236.533 208.757 236.533 209.32V212.622H235.493V209.439C235.493 208.883 235.356 208.464 235.082 208.183C234.815 207.901 234.436 207.76 233.945 207.76C233.577 207.76 233.256 207.833 232.981 207.977C232.707 208.121 232.494 208.334 232.343 208.616C232.198 208.897 232.126 209.247 232.126 209.666V212.622H231.087V206.883H232.083V208.432L231.92 208.02C232.108 207.645 232.397 207.352 232.787 207.143C233.176 206.934 233.631 206.829 234.151 206.829Z" fill="#7D7C7C"/>
</svg>
