<svg width="61" height="60" viewBox="0 0 61 60" fill="none" xmlns="http://www.w3.org/2000/svg">
<path d="M28.1864 6.5825C28.9864 4.4725 32.0139 4.4725 32.8164 6.5825L37.9914 20.9175C38.172 21.3845 38.4899 21.7857 38.9032 22.0682C39.3165 22.3508 39.8058 22.5013 40.3064 22.5H53.0239C55.3739 22.5 56.3989 25.425 54.5514 26.8575L45.5014 35C45.096 35.3116 44.7998 35.7437 44.6551 36.2341C44.5105 36.7246 44.525 37.2483 44.6964 37.73L48.0014 51.7375C48.8064 53.9875 46.2014 55.92 44.2314 54.535L31.9389 46.735C31.5179 46.4391 31.0159 46.2804 30.5014 46.2804C29.9869 46.2804 29.4849 46.4391 29.0639 46.735L16.7714 54.535C14.8039 55.92 12.1964 53.985 13.0014 51.7375L16.3064 37.73C16.4779 37.2483 16.4923 36.7246 16.3477 36.2341C16.2031 35.7437 15.9068 35.3116 15.5014 35L6.45141 26.8575C4.60141 25.425 5.63141 22.5 7.97641 22.5H20.6939C21.1946 22.5017 21.6841 22.3513 22.0975 22.0687C22.5108 21.7861 22.8287 21.3847 23.0089 20.9175L28.1839 6.5825H28.1864Z" stroke="#453787" stroke-width="3.75" stroke-linecap="round" stroke-linejoin="round"/>
</svg>
