<svg width="24" height="24" viewBox="0 0 24 24" fill="none" xmlns="http://www.w3.org/2000/svg">
<g clip-path="url(#clip0_2035_14559)">
<mask id="path-1-inside-1_2035_14559" fill="white">
<path d="M4.95356 1.30636C4.80392 1.0438 4.89549 0.7096 5.15806 0.559953C5.7395 0.228675 6.2473 0.160206 6.66711 0.356249C7.16378 0.588289 7.39145 1.1015 7.53738 1.68787C8.31748 1.28429 9.17772 1.04398 10.0626 0.986029C11.0233 0.923094 11.9605 1.07073 12.8487 1.42469C13.1295 1.53664 13.2663 1.8549 13.1544 2.13565C13.0425 2.4164 12.7242 2.5534 12.4434 2.44139C11.7077 2.14812 10.9308 2.02595 10.1342 2.07813C9.2924 2.13328 8.47789 2.38715 7.76012 2.8159C7.83461 3.1923 7.92819 3.56486 8.06312 3.72035C8.26123 3.94862 8.23685 4.29425 8.00864 4.49236C7.90508 4.58229 7.77727 4.62637 7.65012 4.62637C7.49701 4.62637 7.34481 4.56253 7.23663 4.43787C6.86048 4.00456 6.73594 3.31501 6.61548 2.64813C6.53911 2.22522 6.39694 1.43801 6.20382 1.34777C6.16241 1.32825 6.00376 1.33762 5.69997 1.51073C5.43753 1.66069 5.10321 1.56893 4.95356 1.30636ZM11.4534 4.35901C11.6656 4.35901 11.8675 4.23484 11.9565 4.02755C12.0757 3.74984 11.9472 3.42799 11.6695 3.30874C11.0325 3.03535 10.3396 2.97309 9.66558 3.12888C9.37109 3.19692 9.18757 3.49086 9.25567 3.78535C9.32378 4.07984 9.61784 4.2636 9.91215 4.19525C10.3577 4.09218 10.816 4.13347 11.2377 4.31456C11.3081 4.34478 11.3813 4.35901 11.4534 4.35901ZM12.5492 5.71951L12.691 7.30986C12.6915 7.31722 12.6922 7.32451 12.693 7.33175L12.7607 8.09117C12.7861 8.37569 13.0249 8.58985 13.3052 8.58985C13.3215 8.58985 13.3379 8.58906 13.3544 8.58766C13.6555 8.56084 13.8778 8.295 13.8509 7.99388L13.8353 7.81881H14.4599C14.7621 7.81881 15.0071 7.57382 15.0071 7.27155C15.0071 6.96928 14.7621 6.72428 14.4599 6.72428H13.7377L13.6394 5.62221C13.5996 5.17498 13.8167 4.83464 14.0059 4.62783C14.3772 4.22189 14.9506 3.97957 15.5397 3.97957H16.9156C17.5047 3.97957 18.078 4.22188 18.4494 4.62777C18.6115 4.80497 18.7941 5.08036 18.8179 5.43718H18.11C17.8077 5.43718 17.5627 5.68217 17.5627 5.98444C17.5627 6.28672 17.8077 6.53171 18.11 6.53171H18.7347L18.6043 7.99394C18.5775 8.29493 18.7997 8.56078 19.1008 8.58766C19.402 8.6135 19.6677 8.39223 19.6945 8.09111L19.9059 5.71938C19.9646 5.06066 19.7341 4.41069 19.2569 3.88897C18.6818 3.26034 17.8065 2.88504 16.9156 2.88504H16.8967C17.1291 2.07387 17.5998 1.39709 18.2178 1.01175C18.4743 0.851828 18.5526 0.514226 18.3926 0.257863C18.2328 0.00125638 17.8952 -0.0770025 17.6387 0.083042C17.0574 0.445514 16.5734 0.985847 16.2276 1.63521C15.8818 0.985786 15.3979 0.445514 14.8166 0.083042C14.56 -0.0768809 14.2225 0.00137797 14.0626 0.257863C13.9027 0.514287 13.9809 0.851888 14.2374 1.01175C14.8554 1.39709 15.3262 2.07387 15.5585 2.88504H15.5397C14.6487 2.88504 13.7735 3.2604 13.1983 3.88909C12.7211 4.41075 12.4906 5.06078 12.5492 5.71951ZM9.85675 5.3017C9.6024 5.13837 9.26388 5.21225 9.10055 5.46673C8.93735 5.72109 9.01123 6.0596 9.26559 6.22287C9.65189 6.47078 9.94286 6.82729 10.1071 7.25391C10.1908 7.4713 10.3981 7.60477 10.6179 7.60477C10.6833 7.60477 10.7498 7.59298 10.8144 7.56805C11.0965 7.45944 11.2371 7.14276 11.1285 6.86067C10.8801 6.21527 10.4403 5.67615 9.85675 5.3017ZM4.63779 8.30497C4.64983 8.30497 4.66193 8.3046 4.67409 8.30375C4.9757 8.28405 5.20415 8.02355 5.18439 7.72195C5.11008 6.58686 5.39277 5.48163 6.00194 4.52574C6.16436 4.2709 6.08944 3.93256 5.83454 3.77009C5.57976 3.60773 5.24142 3.68265 5.07889 3.93749C4.34373 5.09106 4.00248 6.42438 4.09217 7.7934C4.1112 8.0829 4.35181 8.30497 4.63779 8.30497ZM19.907 9.6665V23.4528C19.907 23.7551 19.662 24.0001 19.3598 24.0001H4.6336C4.33132 24.0001 4.08633 23.7551 4.08633 23.4528V9.6665C4.08633 9.36423 4.33132 9.11924 4.6336 9.11924H4.80233C4.99467 9.11924 5.17283 9.22018 5.27171 9.38515C5.39472 9.59037 5.62165 9.71788 5.86397 9.71788C6.10629 9.71788 6.33322 9.59037 6.45629 9.38515C6.55516 9.22018 6.73339 9.11924 6.92566 9.11924H7.25013C7.44246 9.11924 7.62069 9.22018 7.71956 9.38521C7.84251 9.59037 8.06945 9.71788 8.31176 9.71788C8.55408 9.71788 8.78107 9.59031 8.90421 9.38503C9.00308 9.22012 9.18125 9.11924 9.37352 9.11924H9.71106C9.90339 9.11924 10.0816 9.22018 10.1804 9.38515C10.3034 9.59037 10.5304 9.71788 10.7726 9.71788C11.0149 9.71788 11.2419 9.59037 11.365 9.38515C11.4639 9.22018 11.6421 9.11924 11.8344 9.11924H12.1588C12.3511 9.11924 12.5294 9.22018 12.6282 9.38515C12.7512 9.59037 12.9782 9.71788 13.2204 9.71788C13.4628 9.71788 13.6897 9.59037 13.8127 9.38515C13.9116 9.22018 14.0898 9.11924 14.2822 9.11924H14.6197C14.812 9.11924 14.9902 9.22011 15.0891 9.38509C15.2122 9.59037 15.4392 9.71788 15.6815 9.71788C15.9238 9.71788 16.1507 9.59037 16.2737 9.38521C16.3726 9.22018 16.5508 9.11924 16.7431 9.11924H17.0676C17.26 9.11924 17.4382 9.22018 17.5371 9.38515C17.6601 9.59037 17.887 9.71788 18.1293 9.71788C18.3716 9.71788 18.5986 9.59037 18.7217 9.38509C18.8205 9.22018 18.9987 9.11924 19.191 9.11924H19.3598C19.662 9.11924 19.907 9.36423 19.907 9.6665ZM18.8125 10.676C18.5986 10.7646 18.3667 10.8124 18.1293 10.8124C17.6706 10.8124 17.2324 10.6338 16.9054 10.3278C16.5784 10.6338 16.1403 10.8124 15.6815 10.8124C15.2198 10.8124 14.7788 10.6314 14.451 10.3217C14.1234 10.6315 13.6824 10.8124 13.2206 10.8124C12.7619 10.8124 12.3237 10.6338 11.9967 10.3278C11.6697 10.6338 11.2315 10.8124 10.7729 10.8124C10.3111 10.8124 9.87007 10.6314 9.54238 10.3217C9.21463 10.6315 8.77365 10.8124 8.31195 10.8124C7.85322 10.8124 7.41504 10.6338 7.08802 10.3278C6.761 10.6338 6.32282 10.8124 5.86415 10.8124C5.62676 10.8124 5.39478 10.7646 5.18092 10.676V22.9056H18.8126L18.8125 10.676ZM7.6351 5.37625C7.34627 5.28686 7.0398 5.44825 6.95029 5.73696C6.74543 6.39757 6.75662 7.09326 6.9827 7.7487C7.0609 7.97539 7.27299 8.11768 7.50005 8.11768C7.55921 8.11768 7.61941 8.10801 7.67852 8.08758C7.96425 7.98907 8.11596 7.67756 8.01746 7.39183C7.86781 6.95797 7.86033 6.49784 7.99575 6.06106C8.0852 5.77241 7.92375 5.46582 7.6351 5.37625ZM14.7682 13.8145C15.5978 14.7159 15.735 16.2464 15.1098 17.623C14.488 18.9924 13.2552 19.8957 12.0369 19.8723C12.0064 19.8735 11.9756 19.874 11.9451 19.874C10.7569 19.874 9.55241 19.0079 8.91935 17.6853C8.26658 16.3213 8.37312 14.7883 9.18447 13.8707C9.28255 13.7597 9.42137 13.6932 9.56932 13.6865C10.4317 13.6473 11.3117 14.0711 11.985 14.8022C12.6476 14.0494 13.5183 13.6157 14.3796 13.6381C14.5277 13.6418 14.6679 13.7056 14.7682 13.8145ZM11.7192 16.3453C11.3079 15.4859 10.5703 14.8793 9.86095 14.7898C9.48565 15.3984 9.49538 16.3534 9.90668 17.2127C10.318 18.0721 11.0557 18.6787 11.765 18.7681C12.1403 18.1596 12.1305 17.2047 11.7192 16.3453ZM14.1103 14.7471C13.5845 14.8242 13.0434 15.1872 12.6379 15.7354C12.6615 15.7806 12.6844 15.8264 12.7065 15.8728C13.118 16.7325 13.2278 17.6593 13.0496 18.4569C13.4784 18.1742 13.8628 17.7221 14.1133 17.1704C14.5072 16.3031 14.4978 15.3481 14.1103 14.7471Z"/>
</mask>
<path d="M4.95356 1.30636C4.80392 1.0438 4.89549 0.7096 5.15806 0.559953C5.7395 0.228675 6.2473 0.160206 6.66711 0.356249C7.16378 0.588289 7.39145 1.1015 7.53738 1.68787C8.31748 1.28429 9.17772 1.04398 10.0626 0.986029C11.0233 0.923094 11.9605 1.07073 12.8487 1.42469C13.1295 1.53664 13.2663 1.8549 13.1544 2.13565C13.0425 2.4164 12.7242 2.5534 12.4434 2.44139C11.7077 2.14812 10.9308 2.02595 10.1342 2.07813C9.2924 2.13328 8.47789 2.38715 7.76012 2.8159C7.83461 3.1923 7.92819 3.56486 8.06312 3.72035C8.26123 3.94862 8.23685 4.29425 8.00864 4.49236C7.90508 4.58229 7.77727 4.62637 7.65012 4.62637C7.49701 4.62637 7.34481 4.56253 7.23663 4.43787C6.86048 4.00456 6.73594 3.31501 6.61548 2.64813C6.53911 2.22522 6.39694 1.43801 6.20382 1.34777C6.16241 1.32825 6.00376 1.33762 5.69997 1.51073C5.43753 1.66069 5.10321 1.56893 4.95356 1.30636ZM11.4534 4.35901C11.6656 4.35901 11.8675 4.23484 11.9565 4.02755C12.0757 3.74984 11.9472 3.42799 11.6695 3.30874C11.0325 3.03535 10.3396 2.97309 9.66558 3.12888C9.37109 3.19692 9.18757 3.49086 9.25567 3.78535C9.32378 4.07984 9.61784 4.2636 9.91215 4.19525C10.3577 4.09218 10.816 4.13347 11.2377 4.31456C11.3081 4.34478 11.3813 4.35901 11.4534 4.35901ZM12.5492 5.71951L12.691 7.30986C12.6915 7.31722 12.6922 7.32451 12.693 7.33175L12.7607 8.09117C12.7861 8.37569 13.0249 8.58985 13.3052 8.58985C13.3215 8.58985 13.3379 8.58906 13.3544 8.58766C13.6555 8.56084 13.8778 8.295 13.8509 7.99388L13.8353 7.81881H14.4599C14.7621 7.81881 15.0071 7.57382 15.0071 7.27155C15.0071 6.96928 14.7621 6.72428 14.4599 6.72428H13.7377L13.6394 5.62221C13.5996 5.17498 13.8167 4.83464 14.0059 4.62783C14.3772 4.22189 14.9506 3.97957 15.5397 3.97957H16.9156C17.5047 3.97957 18.078 4.22188 18.4494 4.62777C18.6115 4.80497 18.7941 5.08036 18.8179 5.43718H18.11C17.8077 5.43718 17.5627 5.68217 17.5627 5.98444C17.5627 6.28672 17.8077 6.53171 18.11 6.53171H18.7347L18.6043 7.99394C18.5775 8.29493 18.7997 8.56078 19.1008 8.58766C19.402 8.6135 19.6677 8.39223 19.6945 8.09111L19.9059 5.71938C19.9646 5.06066 19.7341 4.41069 19.2569 3.88897C18.6818 3.26034 17.8065 2.88504 16.9156 2.88504H16.8967C17.1291 2.07387 17.5998 1.39709 18.2178 1.01175C18.4743 0.851828 18.5526 0.514226 18.3926 0.257863C18.2328 0.00125638 17.8952 -0.0770025 17.6387 0.083042C17.0574 0.445514 16.5734 0.985847 16.2276 1.63521C15.8818 0.985786 15.3979 0.445514 14.8166 0.083042C14.56 -0.0768809 14.2225 0.00137797 14.0626 0.257863C13.9027 0.514287 13.9809 0.851888 14.2374 1.01175C14.8554 1.39709 15.3262 2.07387 15.5585 2.88504H15.5397C14.6487 2.88504 13.7735 3.2604 13.1983 3.88909C12.7211 4.41075 12.4906 5.06078 12.5492 5.71951ZM9.85675 5.3017C9.6024 5.13837 9.26388 5.21225 9.10055 5.46673C8.93735 5.72109 9.01123 6.0596 9.26559 6.22287C9.65189 6.47078 9.94286 6.82729 10.1071 7.25391C10.1908 7.4713 10.3981 7.60477 10.6179 7.60477C10.6833 7.60477 10.7498 7.59298 10.8144 7.56805C11.0965 7.45944 11.2371 7.14276 11.1285 6.86067C10.8801 6.21527 10.4403 5.67615 9.85675 5.3017ZM4.63779 8.30497C4.64983 8.30497 4.66193 8.3046 4.67409 8.30375C4.9757 8.28405 5.20415 8.02355 5.18439 7.72195C5.11008 6.58686 5.39277 5.48163 6.00194 4.52574C6.16436 4.2709 6.08944 3.93256 5.83454 3.77009C5.57976 3.60773 5.24142 3.68265 5.07889 3.93749C4.34373 5.09106 4.00248 6.42438 4.09217 7.7934C4.1112 8.0829 4.35181 8.30497 4.63779 8.30497ZM19.907 9.6665V23.4528C19.907 23.7551 19.662 24.0001 19.3598 24.0001H4.6336C4.33132 24.0001 4.08633 23.7551 4.08633 23.4528V9.6665C4.08633 9.36423 4.33132 9.11924 4.6336 9.11924H4.80233C4.99467 9.11924 5.17283 9.22018 5.27171 9.38515C5.39472 9.59037 5.62165 9.71788 5.86397 9.71788C6.10629 9.71788 6.33322 9.59037 6.45629 9.38515C6.55516 9.22018 6.73339 9.11924 6.92566 9.11924H7.25013C7.44246 9.11924 7.62069 9.22018 7.71956 9.38521C7.84251 9.59037 8.06945 9.71788 8.31176 9.71788C8.55408 9.71788 8.78107 9.59031 8.90421 9.38503C9.00308 9.22012 9.18125 9.11924 9.37352 9.11924H9.71106C9.90339 9.11924 10.0816 9.22018 10.1804 9.38515C10.3034 9.59037 10.5304 9.71788 10.7726 9.71788C11.0149 9.71788 11.2419 9.59037 11.365 9.38515C11.4639 9.22018 11.6421 9.11924 11.8344 9.11924H12.1588C12.3511 9.11924 12.5294 9.22018 12.6282 9.38515C12.7512 9.59037 12.9782 9.71788 13.2204 9.71788C13.4628 9.71788 13.6897 9.59037 13.8127 9.38515C13.9116 9.22018 14.0898 9.11924 14.2822 9.11924H14.6197C14.812 9.11924 14.9902 9.22011 15.0891 9.38509C15.2122 9.59037 15.4392 9.71788 15.6815 9.71788C15.9238 9.71788 16.1507 9.59037 16.2737 9.38521C16.3726 9.22018 16.5508 9.11924 16.7431 9.11924H17.0676C17.26 9.11924 17.4382 9.22018 17.5371 9.38515C17.6601 9.59037 17.887 9.71788 18.1293 9.71788C18.3716 9.71788 18.5986 9.59037 18.7217 9.38509C18.8205 9.22018 18.9987 9.11924 19.191 9.11924H19.3598C19.662 9.11924 19.907 9.36423 19.907 9.6665ZM18.8125 10.676C18.5986 10.7646 18.3667 10.8124 18.1293 10.8124C17.6706 10.8124 17.2324 10.6338 16.9054 10.3278C16.5784 10.6338 16.1403 10.8124 15.6815 10.8124C15.2198 10.8124 14.7788 10.6314 14.451 10.3217C14.1234 10.6315 13.6824 10.8124 13.2206 10.8124C12.7619 10.8124 12.3237 10.6338 11.9967 10.3278C11.6697 10.6338 11.2315 10.8124 10.7729 10.8124C10.3111 10.8124 9.87007 10.6314 9.54238 10.3217C9.21463 10.6315 8.77365 10.8124 8.31195 10.8124C7.85322 10.8124 7.41504 10.6338 7.08802 10.3278C6.761 10.6338 6.32282 10.8124 5.86415 10.8124C5.62676 10.8124 5.39478 10.7646 5.18092 10.676V22.9056H18.8126L18.8125 10.676ZM7.6351 5.37625C7.34627 5.28686 7.0398 5.44825 6.95029 5.73696C6.74543 6.39757 6.75662 7.09326 6.9827 7.7487C7.0609 7.97539 7.27299 8.11768 7.50005 8.11768C7.55921 8.11768 7.61941 8.10801 7.67852 8.08758C7.96425 7.98907 8.11596 7.67756 8.01746 7.39183C7.86781 6.95797 7.86033 6.49784 7.99575 6.06106C8.0852 5.77241 7.92375 5.46582 7.6351 5.37625ZM14.7682 13.8145C15.5978 14.7159 15.735 16.2464 15.1098 17.623C14.488 18.9924 13.2552 19.8957 12.0369 19.8723C12.0064 19.8735 11.9756 19.874 11.9451 19.874C10.7569 19.874 9.55241 19.0079 8.91935 17.6853C8.26658 16.3213 8.37312 14.7883 9.18447 13.8707C9.28255 13.7597 9.42137 13.6932 9.56932 13.6865C10.4317 13.6473 11.3117 14.0711 11.985 14.8022C12.6476 14.0494 13.5183 13.6157 14.3796 13.6381C14.5277 13.6418 14.6679 13.7056 14.7682 13.8145ZM11.7192 16.3453C11.3079 15.4859 10.5703 14.8793 9.86095 14.7898C9.48565 15.3984 9.49538 16.3534 9.90668 17.2127C10.318 18.0721 11.0557 18.6787 11.765 18.7681C12.1403 18.1596 12.1305 17.2047 11.7192 16.3453ZM14.1103 14.7471C13.5845 14.8242 13.0434 15.1872 12.6379 15.7354C12.6615 15.7806 12.6844 15.8264 12.7065 15.8728C13.118 16.7325 13.2278 17.6593 13.0496 18.4569C13.4784 18.1742 13.8628 17.7221 14.1133 17.1704C14.5072 16.3031 14.4978 15.3481 14.1103 14.7471Z" fill="#222222" stroke="#222222" stroke-width="0.48" mask="url(#path-1-inside-1_2035_14559)"/>
</g>
<defs>
<clipPath id="clip0_2035_14559">
<rect width="24" height="24" fill="white"/>
</clipPath>
</defs>
</svg>
