<svg width="61" height="25" viewBox="0 0 61 25" fill="none" xmlns="http://www.w3.org/2000/svg">
<g clip-path="url(#clip0_1154_21869)">
<path d="M0.150391 0.750732V2.39275H11.8293V0.750732H0.150391ZM13.4839 0.750732V2.39275H30.1269C30.1269 2.39275 28.4269 0.750732 26.1754 0.750732H13.4839ZM33.3917 0.750732V2.39275H43.4605L42.8629 0.750732H33.3917ZM50.6792 0.750732L50.0816 2.39275H60.0589V0.750732H50.6792ZM0.150391 3.94405V5.58607H11.8293V3.94405H0.150391ZM13.4839 3.94639V5.58613H32.0581C32.0581 5.58613 31.8412 4.32235 31.4628 3.94639H13.4839ZM33.3917 3.94639V5.58613H44.5644L44.0113 3.94639H33.3917ZM49.4839 3.94639L48.9308 5.58613H60.0589V3.94639H49.4839ZM3.50661 7.13737V8.78173H8.56442V7.13737H3.50661ZM16.8402 7.13737V8.78173H21.898V7.13737H16.8402ZM26.8175 7.13737V8.78173H31.8754C31.8754 8.78173 32.1965 7.91335 32.1965 7.13737H26.8175ZM36.748 7.13737V8.78173H45.7152L45.1175 7.13737H36.748ZM48.3824 7.13737L47.7824 8.78173H56.7941V7.13737H48.3824ZM3.50661 10.3331V11.9751H8.56442V10.3331H3.50661ZM16.8402 10.3331V11.9751H29.7589C29.7589 11.9751 30.8396 11.1326 31.1839 10.3331H16.8402ZM36.748 10.3331V11.9751H41.8058V11.0611L42.127 11.9751H51.3918L51.7363 11.0611V11.9751H56.7941V10.3331H47.2995L46.7957 11.7239L46.2894 10.3331H36.748ZM3.50661 13.5264V15.1684H8.56442V13.5264H3.50661ZM16.8402 13.5264V15.1684H31.1839C30.8396 14.3716 29.7589 13.5264 29.7589 13.5264H16.8402ZM36.748 13.5264V15.1684H41.8058V13.5264H36.748ZM42.7246 13.5264L43.3363 15.1684H50.2831L50.8644 13.5264H42.7246ZM51.7362 13.5264V15.1684H56.7941V13.5264H51.7362ZM3.50661 16.7197V18.3617H8.56442V16.7197H3.50661ZM16.8402 16.7197V18.3617H21.898V16.7197H16.8402ZM26.8175 16.7197V18.3617H32.1964C32.1964 17.5868 31.8753 16.7197 31.8753 16.7197H26.8175ZM36.748 16.7197V18.3617H41.8058V16.7197H36.748ZM43.873 16.7197L44.466 18.3617H49.123L49.7207 16.7197H43.873ZM51.7362 16.7197V18.3617H56.7941V16.7197H51.7362ZM0.241771 19.913V21.5574H11.9206V19.913H0.241771ZM13.4839 19.913V21.5574H31.4628C31.8412 21.1809 32.0581 19.913 32.0581 19.913H13.4839ZM33.4832 19.913V21.5574H41.8058V19.913H33.4832ZM45.0238 19.913L45.6331 21.5574H48.0026L48.5745 19.913H45.0238ZM51.7362 19.913V21.5574H60.1503V19.913H51.7362ZM0.241771 23.1087V24.7507H11.9206V23.1087H0.241771ZM13.4839 23.1087V24.7484H26.1754C28.4269 24.7484 30.1269 23.1087 30.1269 23.1087H13.4839ZM33.4832 23.1087V24.7507H41.8058V23.1087H33.4832ZM46.1792 23.1087L46.7652 24.7461L46.866 24.7484L47.4613 23.1087H46.1792ZM51.7362 23.1087V24.7507H60.1503V23.1087H51.7362Z" fill="#1F70C1"/>
</g>
<defs>
<clipPath id="clip0_1154_21869">
<rect width="59.9999" height="24" fill="white" transform="translate(0.150391 0.750732)"/>
</clipPath>
</defs>
</svg>
