<svg width="138" height="20" viewBox="0 0 138 20" fill="none" xmlns="http://www.w3.org/2000/svg">
<g clip-path="url(#clip0_1154_21867)">
<path d="M57.0907 12.3399H65.8291L61.2087 4.90605L52.7284 18.3466H48.8689L59.1836 2.20168C59.6322 1.54929 60.3796 1.15527 61.2084 1.15527C62.0102 1.15527 62.7579 1.53575 63.1927 2.17438L73.5485 18.3466H69.6889L67.8678 15.3433H59.0206L57.0907 12.3399ZM97.1814 15.3433V1.31821H93.9063V16.7158C93.9063 17.1371 94.0695 17.5448 94.382 17.8574C94.6946 18.1699 95.1159 18.3466 95.5778 18.3466H110.513L112.443 15.3433H97.1814ZM42.998 12.8291C46.178 12.8291 48.7601 10.2604 48.7601 7.08055C48.7601 3.90048 46.178 1.31821 42.998 1.31821H28.6698V18.3466H31.9436V4.32158H42.7804C44.3025 4.32158 45.5256 5.55844 45.5256 7.08055C45.5256 8.60244 44.3025 9.8393 42.7804 9.8393L33.5474 9.82576L43.3241 18.3466H48.0806L41.5029 12.8291H42.998ZM8.5155 18.3464C3.81483 18.3464 0 14.5413 0 9.83909C0 5.13691 3.81483 1.31821 8.5155 1.31821H18.4132C23.1154 1.31821 26.9274 5.13691 26.9274 9.83909C26.9274 14.5413 23.1156 18.3464 18.4134 18.3464H8.5155ZM18.1928 15.343C21.2388 15.343 23.7052 12.8833 23.7052 9.83909C23.7052 6.79487 21.2388 4.32158 18.1933 4.32158H8.73454C5.69033 4.32158 3.22241 6.79509 3.22241 9.8393C3.22241 12.8835 5.69033 15.3433 8.73454 15.3433L18.1928 15.343ZM80.3841 18.3464C75.6817 18.3464 71.8632 14.5413 71.8632 9.83909C71.8632 5.13691 75.6817 1.31821 80.3841 1.31821H92.1394L90.2231 4.32137H80.6014C77.5572 4.32137 75.0839 6.79487 75.0839 9.83909C75.0839 12.8833 77.5572 15.343 80.6014 15.343H92.4111L90.4814 18.3464H80.3841ZM120.434 15.343C117.92 15.343 115.786 13.6578 115.134 11.3341H129.132L131.061 8.33052H115.134C115.786 6.02017 117.92 4.32158 120.434 4.32158H130.042L131.986 1.318H120.217C115.514 1.318 111.696 5.13691 111.696 9.83887C111.696 14.5413 115.514 18.3464 120.217 18.3464H130.314L132.244 15.343H120.434ZM133.739 3.12578C133.738 2.9293 133.777 2.73464 133.851 2.553C133.926 2.37137 134.036 2.20633 134.175 2.06739C134.314 1.92844 134.479 1.81834 134.661 1.74341C134.843 1.66847 135.037 1.63019 135.234 1.63076C136.076 1.63076 136.742 2.29669 136.742 3.12578C136.742 3.96841 136.076 4.63435 135.234 4.63435C134.405 4.63435 133.739 3.96841 133.739 3.12578ZM135.234 5.05544C136.294 5.05544 137.15 4.19927 137.15 3.13932C137.15 2.07937 136.294 1.2232 135.234 1.2232C134.187 1.2232 133.331 2.07937 133.331 3.13932C133.331 4.19927 134.187 5.05544 135.234 5.05544ZM135.057 1.99769C135.356 1.99769 135.478 2.01145 135.614 2.06561C135.995 2.18814 136.036 2.52777 136.036 2.66362C136.036 2.69092 136.036 2.75885 136.008 2.84032C135.995 2.922 135.94 3.08494 135.75 3.20725C135.723 3.22079 135.709 3.23455 135.655 3.26163L136.144 4.1451H135.669L135.234 3.32956H134.935V4.1451H134.514V1.99769H135.057ZM135.207 2.97617C135.342 2.96263 135.478 2.96263 135.56 2.84032C135.601 2.78593 135.614 2.73155 135.614 2.65008C135.614 2.54131 135.546 2.4463 135.451 2.39192C135.356 2.35108 135.261 2.35108 135.057 2.35108H134.935V2.97617H135.207Z" fill="#F80000"/>
</g>
<defs>
<clipPath id="clip0_1154_21867">
<rect width="137.15" height="19.4753" fill="white" transform="translate(0 0.0131836)"/>
</clipPath>
</defs>
</svg>
