<svg width="63" height="60" viewBox="0 0 63 60" fill="none" xmlns="http://www.w3.org/2000/svg">
<g clip-path="url(#clip0_1007_29945)">
<path d="M55.727 4.19678H7.27711C3.30895 4.19678 0.0546875 7.32942 0.0546875 11.2134V48.7868C0.0546875 52.6708 3.30895 55.8034 7.27711 55.8034H55.727C59.6952 55.8034 62.9494 52.6708 62.9494 48.7868V11.2134C62.9494 7.32942 59.6952 4.19678 55.727 4.19678ZM60.1326 48.7868C60.1326 51.1183 58.1706 53.0422 55.727 53.0422H7.27711C4.83353 53.0422 2.87156 51.1183 2.87156 48.7868V11.2134C2.87156 8.88194 4.83353 6.95803 7.27711 6.95803H55.727C58.1706 6.95803 60.1326 8.88194 60.1326 11.2134V48.7868Z" fill="#AB0E12" stroke="#AB0E12"/>
<path d="M57.664 13.5903H5.33812C4.57509 13.5903 3.92969 14.1938 3.92969 14.971C3.92969 15.7481 4.57509 16.3516 5.33812 16.3516H57.664C58.427 16.3516 59.0724 15.7481 59.0724 14.971C59.0724 14.1938 58.427 13.5903 57.664 13.5903Z" fill="#AB0E12" stroke="#AB0E12"/>
<path d="M7.27562 11.6548C7.64229 11.6548 8.00176 11.5124 8.2656 11.2555C8.53117 10.9992 8.68406 10.6436 8.68406 10.2742C8.68406 9.90617 8.53141 9.54937 8.2656 9.29286C8.00176 9.03593 7.64229 8.89355 7.27562 8.89355C6.90896 8.89355 6.54949 9.03593 6.28564 9.29286C6.01984 9.54937 5.86719 9.90617 5.86719 10.2742C5.86719 10.6434 6.02005 10.9992 6.28564 11.2555C6.54949 11.5124 6.90895 11.6548 7.27562 11.6548Z" fill="#AB0E12" stroke="#AB0E12"/>
<path d="M15.0256 11.6548C15.3907 11.6548 15.7515 11.5127 16.0156 11.2555C16.2812 10.9992 16.4341 10.6436 16.4341 10.2742C16.4341 9.90617 16.2814 9.54937 16.0156 9.29286C15.7515 9.03569 15.3907 8.89355 15.0256 8.89355C14.659 8.89355 14.2995 9.03593 14.0356 9.29286C13.7698 9.54937 13.6172 9.90617 13.6172 10.2742C13.6172 10.6434 13.77 10.9992 14.0356 11.2555C14.2995 11.5124 14.659 11.6548 15.0256 11.6548Z" fill="#AB0E12" stroke="#AB0E12"/>
<path d="M11.1506 11.6548C11.5173 11.6548 11.8768 11.5124 12.1406 11.2555C12.4062 10.9992 12.5591 10.6436 12.5591 10.2742C12.5591 9.90617 12.4064 9.54937 12.1406 9.29286C11.8768 9.03593 11.5173 8.89355 11.1506 8.89355C10.7855 8.89355 10.4247 9.03569 10.1606 9.29286C9.89484 9.54937 9.74219 9.90617 9.74219 10.2742C9.74219 10.6434 9.89504 10.9992 10.1606 11.2555C10.4247 11.5127 10.7855 11.6548 11.1506 11.6548Z" fill="#AB0E12" stroke="#AB0E12"/>
<path d="M23.7685 24.3218L23.7684 24.3216C23.2197 23.79 22.3363 23.7899 21.7877 24.3217L12.0978 33.715L12.0977 33.7151C11.5404 34.2555 11.5403 35.1381 12.0978 35.6785L21.7877 45.0718C22.0637 45.3394 22.4234 45.4707 22.7781 45.4707C23.1328 45.4707 23.4924 45.3394 23.7684 45.0718L23.7685 45.0718C24.3258 44.5314 24.3259 43.6488 23.7684 43.1084L23.4204 43.4674L23.7684 43.1084L15.0911 34.6968L23.7684 26.2853L23.7685 26.2852C24.3258 25.7447 24.3258 24.8622 23.7685 24.3218Z" fill="#AB0E12" stroke="#AB0E12"/>
<path d="M41.2112 24.3217L41.2112 24.3216C40.6625 23.79 39.7792 23.7899 39.2306 24.3217L39.2305 24.3218C38.6732 24.8622 38.6731 25.7448 39.2306 26.2851L39.2306 26.2851L47.9079 34.6967L39.2306 43.1083L39.2305 43.1083C38.6732 43.6488 38.6731 44.5313 39.2306 45.0717L39.5769 44.7144L39.2306 45.0717C39.5065 45.3392 39.8662 45.4706 40.2209 45.4706C40.5756 45.4706 40.9353 45.3392 41.2112 45.0717L40.8632 44.7127L41.2112 45.0717L50.9012 35.6784L50.9013 35.6783C51.4586 35.1379 51.4587 34.2553 50.9012 33.7149L50.5532 34.0739L50.9012 33.7149L41.2112 24.3217Z" fill="#AB0E12" stroke="#AB0E12"/>
<path d="M35.8561 23.0649L35.8557 23.0648C35.1383 22.8125 34.3287 23.1653 34.0576 23.8874L34.0576 23.8875L26.3056 44.5528C26.0317 45.283 26.426 46.073 27.1506 46.3286C27.3078 46.3841 27.469 46.4103 27.6274 46.4103C28.1925 46.4103 28.737 46.0719 28.9493 45.5062L28.9494 45.5061L36.7013 24.8407L36.7014 24.8406C36.9751 24.1106 36.5807 23.3204 35.8561 23.0649Z" fill="#AB0E12" stroke="#AB0E12"/>
</g>
<defs>
<clipPath id="clip0_1007_29945">
<rect width="61.8947" height="60" fill="white" transform="translate(0.554688)"/>
</clipPath>
</defs>
</svg>
