<svg width="43" height="36" viewBox="0 0 43 36" fill="none" xmlns="http://www.w3.org/2000/svg">
<path fill-rule="evenodd" clip-rule="evenodd" d="M24.3165 23.6856C23.9764 23.69 23.6479 23.8099 23.3848 24.0255L20.3409 26.5069L19.3565 25.5899C19.0658 25.3191 18.6794 25.1747 18.2823 25.1884C17.8852 25.2021 17.5097 25.3729 17.2384 25.6631C17.1038 25.8072 16.999 25.9763 16.9298 26.1609C16.8607 26.3455 16.8286 26.5418 16.8354 26.7388C16.8422 26.9358 16.8877 27.1295 16.9694 27.3089C17.0512 27.4883 17.1674 27.6498 17.3116 27.7842L19.251 29.5947C19.5162 29.8412 19.8615 29.9835 20.2233 29.9954C20.5851 30.0072 20.9391 29.8878 21.2198 29.6592L25.2832 26.3487C25.5911 26.0972 25.7866 25.7338 25.8267 25.3383C25.8668 24.9428 25.7483 24.5475 25.4971 24.2393C25.3547 24.0641 25.1745 23.9234 24.9701 23.8275C24.7657 23.7316 24.5423 23.6831 24.3165 23.6856Z" fill="#AB0E12"/>
<path fill-rule="evenodd" clip-rule="evenodd" d="M18.3334 0C12.5522 0 7.83343 4.71878 7.83343 10.4999C7.83341 10.5049 7.83341 10.51 7.83343 10.515C7.83429 10.6105 7.8564 10.7038 7.85985 10.7991C3.63113 11.5312 0.333496 15.0695 0.333496 19.5002C0.333496 24.453 4.3807 28.5002 9.33348 28.5002H12.4624C13.1819 32.7437 16.8921 36.0001 21.3334 36.0001C25.7748 36.0001 29.485 32.7437 30.2045 28.5002H34.8334C38.9577 28.5002 42.3334 25.1245 42.3334 21.0002C42.3334 17.3934 39.7016 14.5009 36.2953 13.7962C36.2998 13.7003 36.3326 13.608 36.3334 13.512C36.3334 13.511 36.3334 13.51 36.3334 13.509C36.3334 13.508 36.3334 13.507 36.3334 13.506C36.3334 13.505 36.3334 13.504 36.3334 13.503C36.3334 13.502 36.3334 13.501 36.3334 13.5C36.3333 9.37565 32.9577 6.00006 28.8334 6.00001C28.8294 5.99999 28.8254 5.99999 28.8214 6.00001C28.4601 6.00301 28.1169 6.12735 27.7608 6.18165C26.0662 2.49946 22.4659 0.000254999 18.3334 0ZM18.3334 2.99998C21.6229 3.00019 24.5159 5.12958 25.4935 8.27046C25.5532 8.46195 25.6507 8.63955 25.7802 8.79272C25.9097 8.94589 26.0686 9.0715 26.2475 9.16218C26.4264 9.25286 26.6217 9.30676 26.8218 9.32065C27.0219 9.33455 27.2228 9.30819 27.4125 9.24311C27.8701 9.08591 28.3524 9.00424 28.8363 8.99995C31.337 9.00145 33.3318 10.9963 33.3334 13.497V13.5C33.3304 13.8806 33.2768 14.2571 33.1781 14.625C33.1154 14.8582 33.1099 15.1031 33.1621 15.3389C33.2143 15.5747 33.3227 15.7944 33.478 15.9793C33.6333 16.1643 33.831 16.3089 34.0542 16.4011C34.2774 16.4933 34.5196 16.5303 34.7601 16.5088C34.8008 16.5058 34.8168 16.5043 34.8422 16.5028C37.3405 16.5088 39.3334 18.5002 39.3334 20.9998C39.3334 23.5029 37.3364 25.4998 34.8334 25.4998H30.2045C29.485 21.2562 25.7747 17.9998 21.3334 17.9998C16.8921 17.9998 13.1818 21.2562 12.4623 25.4998H9.33343C6.00197 25.4998 3.33344 22.8313 3.33344 19.4998C3.33344 16.1684 6.00197 13.4999 9.33343 13.4999C9.34693 13.4999 9.37965 13.5012 9.4302 13.5029C9.65317 13.5094 9.87477 13.4661 10.0789 13.3761C10.283 13.2862 10.4645 13.1518 10.6102 12.9829C10.7558 12.8139 10.862 12.6147 10.9209 12.3995C10.9798 12.1844 10.9899 11.9588 10.9507 11.7392C10.8773 11.329 10.8379 10.9152 10.8335 10.4999V10.497C10.835 6.33848 14.1745 2.99998 18.3334 2.99998ZM21.3334 20.9999C24.6649 20.9999 27.3334 23.6684 27.3334 26.9998C27.3334 30.3313 24.6649 32.9998 21.3334 32.9998C18.0019 32.9998 15.3334 30.3313 15.3334 26.9998C15.3334 23.6684 18.0019 20.9999 21.3334 20.9999Z" fill="#AB0E12"/>
</svg>
