<svg width="48" height="48" viewBox="0 0 48 48" fill="none" xmlns="http://www.w3.org/2000/svg">
<path d="M19.3041 9.13228C19.7108 7.30212 21.3341 6 23.2089 6H24.7915C26.6663 6 28.2895 7.30212 28.6963 9.13228L29.1021 10.9587C30.4243 11.4764 31.6487 12.1893 32.7395 13.0621L34.5279 12.4992C36.3163 11.9364 38.2555 12.6911 39.1929 14.3147L39.9843 15.6853C40.9217 17.3089 40.6057 19.3657 39.2241 20.633L37.8437 21.8992C37.9467 22.5844 38.0003 23.286 38.0003 24C38.0003 24.714 37.9467 25.4156 37.8437 26.1008L39.2241 27.367C40.6057 28.6342 40.9217 30.691 39.9843 32.3148L39.1931 33.6852C38.2557 35.309 36.3163 36.0636 34.5279 35.5008L32.7397 34.9378C31.6487 35.8106 30.4243 36.5236 29.1021 37.0412L28.6963 38.8678C28.2895 40.6978 26.6663 42 24.7915 42H23.2089C21.3341 42 19.7108 40.6978 19.3041 38.8678L18.8982 37.0412C17.576 36.5236 16.3516 35.8106 15.2607 34.9378L13.4723 35.5008C11.684 36.0636 9.74474 35.309 8.80734 33.6852L8.01602 32.3146C7.07862 30.691 7.39468 28.6342 8.77628 27.367L10.1567 26.1008C10.0536 25.4154 10.0002 24.714 10.0002 24C10.0002 23.286 10.0536 22.5844 10.1567 21.8992L8.77632 20.633C7.3947 19.3658 7.07866 17.3089 8.01606 15.6853L8.80736 14.3147C9.74476 12.6911 11.6841 11.9364 13.4724 12.4992L15.2608 13.0621C16.3517 12.1893 17.576 11.4764 18.8982 10.9587L19.3041 9.13228Z" stroke="#AB0E12" stroke-width="2.8" stroke-linecap="round" stroke-linejoin="round"/>
<path d="M26 24C26 25.1046 25.1046 26 24 26C22.8954 26 22 25.1046 22 24C22 22.8954 22.8954 22 24 22C25.1046 22 26 22.8954 26 24Z" stroke="#AB0E12" stroke-width="4" stroke-linecap="round" stroke-linejoin="round"/>
</svg>
