<svg width="49" height="48" viewBox="0 0 49 48" fill="none" xmlns="http://www.w3.org/2000/svg">
<path d="M17.9219 3.89911C17.9219 2.97398 18.8594 2.224 20.0158 2.224H28.3913C29.5478 2.224 30.4852 2.97398 30.4852 3.89911V5.57422C30.4852 6.49936 29.5478 7.24934 28.3913 7.24934H20.0158C18.8594 7.24934 17.9219 6.49936 17.9219 5.57422V3.89911Z" fill="#AB0E12"/>
<path d="M33.3341 3.50037H15.334C13.401 3.50037 11.834 5.06738 11.834 7.00039V41.0006C11.834 42.9337 13.401 44.5007 15.334 44.5007H33.3341C35.2672 44.5007 36.8342 42.9337 36.8342 41.0006V7.00039C36.8342 5.06738 35.2672 3.50037 33.3341 3.50037Z" stroke="#AB0E12" stroke-width="2.8"/>
<path d="M18.332 39.0004H30.3321" stroke="#AB0E12" stroke-width="2.8" stroke-linecap="round"/>
</svg>
