<svg width="42" height="36" viewBox="0 0 42 36" fill="none" xmlns="http://www.w3.org/2000/svg">
<path fill-rule="evenodd" clip-rule="evenodd" d="M23.983 23.6856C23.6429 23.69 23.3144 23.8099 23.0514 24.0255L20.0074 26.5069L19.023 25.5899C18.7323 25.3191 18.3459 25.1747 17.9488 25.1884C17.5517 25.2021 17.1762 25.3729 16.9049 25.6631C16.7703 25.8072 16.6655 25.9763 16.5964 26.1609C16.5272 26.3455 16.4951 26.5418 16.5019 26.7388C16.5087 26.9358 16.5542 27.1295 16.6359 27.3089C16.7177 27.4883 16.8339 27.6498 16.9781 27.7842L18.9175 29.5947C19.1827 29.8412 19.528 29.9835 19.8898 29.9954C20.2516 30.0072 20.6056 29.8878 20.8863 29.6592L24.9497 26.3487C25.2576 26.0972 25.4531 25.7338 25.4932 25.3383C25.5333 24.9428 25.4148 24.5475 25.1636 24.2393C25.0212 24.0641 24.841 23.9234 24.6366 23.8275C24.4322 23.7316 24.2088 23.6831 23.983 23.6856Z" fill="#AB0E12"/>
<path fill-rule="evenodd" clip-rule="evenodd" d="M17.9999 0C12.2187 0 7.49994 4.71878 7.49994 10.4999C7.49991 10.5049 7.49991 10.51 7.49994 10.515C7.50079 10.6105 7.5229 10.7038 7.52635 10.7991C3.29763 11.5312 0 15.0695 0 19.5002C0 24.453 4.0472 28.5002 8.99998 28.5002H12.1289C12.8484 32.7437 16.5586 36.0001 21 36.0001C25.4413 36.0001 29.1515 32.7437 29.871 28.5002H34.4999C38.6242 28.5002 41.9999 25.1245 41.9999 21.0002C41.9999 17.3934 39.3681 14.5009 35.9618 13.7962C35.9663 13.7003 35.9991 13.608 35.9999 13.512C35.9999 13.511 35.9999 13.51 35.9999 13.509C35.9999 13.508 35.9999 13.507 35.9999 13.506C35.9999 13.505 35.9999 13.504 35.9999 13.503C35.9999 13.502 35.9999 13.501 35.9999 13.5C35.9998 9.37565 32.6242 6.00006 28.4999 6.00001C28.4959 5.99999 28.4919 5.99999 28.4879 6.00001C28.1266 6.00301 27.7834 6.12735 27.4274 6.18165C25.7327 2.49946 22.1324 0.000254999 17.9999 0ZM17.9999 2.99998C21.2894 3.00019 24.1824 5.12958 25.1601 8.27046C25.2197 8.46195 25.3172 8.63955 25.4467 8.79272C25.5762 8.94589 25.7351 9.0715 25.914 9.16218C26.0929 9.25286 26.2882 9.30676 26.4883 9.32065C26.6884 9.33455 26.8893 9.30819 27.079 9.24311C27.5366 9.08591 28.0189 9.00424 28.5028 8.99995C31.0035 9.00145 32.9983 10.9963 32.9999 13.497V13.5C32.9969 13.8806 32.9433 14.2571 32.8446 14.625C32.7819 14.8582 32.7764 15.1031 32.8286 15.3389C32.8808 15.5747 32.9892 15.7944 33.1445 15.9793C33.2998 16.1643 33.4975 16.3089 33.7207 16.4011C33.9439 16.4933 34.1861 16.5303 34.4266 16.5088C34.4673 16.5058 34.4833 16.5043 34.5087 16.5028C37.007 16.5088 38.9999 18.5002 38.9999 20.9998C38.9999 23.5029 37.0029 25.4998 34.4999 25.4998H29.871C29.1515 21.2562 25.4412 17.9998 20.9999 17.9998C16.5586 17.9998 12.8483 21.2562 12.1288 25.4998H8.99993C5.66847 25.4998 2.99995 22.8313 2.99995 19.4998C2.99995 16.1684 5.66847 13.4999 8.99993 13.4999C9.01343 13.4999 9.04615 13.5012 9.0967 13.5029C9.31967 13.5094 9.54127 13.4661 9.7454 13.3761C9.94953 13.2862 10.131 13.1518 10.2767 12.9829C10.4223 12.8139 10.5285 12.6147 10.5874 12.3995C10.6463 12.1844 10.6564 11.9588 10.6172 11.7392C10.5438 11.329 10.5044 10.9152 10.5 10.4999V10.497C10.5015 6.33848 13.841 2.99998 17.9999 2.99998ZM20.9999 20.9999C24.3314 20.9999 26.9999 23.6684 26.9999 26.9998C26.9999 30.3313 24.3314 32.9998 20.9999 32.9998C17.6684 32.9998 14.9999 30.3313 14.9999 26.9998C14.9999 23.6684 17.6684 20.9999 20.9999 20.9999Z" fill="#AB0E12"/>
</svg>
