<svg width="50" height="48" viewBox="0 0 50 48" fill="none" xmlns="http://www.w3.org/2000/svg">
<path d="M38.9026 14.81C37.4173 7.86625 31.1881 2.75049 24.0039 2.75049C15.5938 2.75049 8.75387 9.59039 8.75387 18.0005C8.75387 18.2705 8.76261 18.5453 8.78105 18.8306C4.25718 19.4319 0.753906 23.3137 0.753906 28.0005C0.753906 33.1006 4.90384 37.2505 10.0039 37.2505H17.0039C17.694 37.2505 18.254 36.6906 18.254 36.0005C18.254 35.3104 17.694 34.7505 17.0039 34.7505H10.0039C6.28201 34.7505 3.25388 31.7224 3.25388 28.0004C3.25388 24.282 6.27536 21.2585 9.92528 21.2485C10.1255 21.2711 10.345 21.2489 10.5475 21.1856C10.7544 21.121 10.9614 21.0076 11.1109 20.8342C11.3484 20.5614 11.4558 20.1984 11.4033 19.8384C11.3006 19.1292 11.2539 18.5456 11.2539 18.0005C11.2539 10.9705 16.974 5.25046 24.004 5.25046C30.3014 5.25046 35.722 9.95483 36.6104 16.1917C36.6581 16.5274 36.8743 16.7934 37.1281 16.9692C37.3825 17.1454 37.7006 17.2505 38.0039 17.2505C42.8279 17.2505 46.7539 21.1765 46.7539 26.0005C46.7539 30.8244 42.8279 34.7505 38.0039 34.7505H35.0039C34.3139 34.7505 33.7539 35.3104 33.7539 36.0005C33.7539 36.6906 34.3139 37.2505 35.0039 37.2505H38.0039C44.208 37.2505 49.2539 32.2025 49.2539 26.0006C49.2539 20.1417 44.7551 15.3197 38.9026 14.81Z" fill="#AB0E12" stroke="#AB0E12" stroke-width="0.5"/>
<path d="M15.5 37.5C15.4976 38.2949 15.1808 39.0566 14.6187 39.6187C14.0566 40.1808 13.2949 40.4976 12.5 40.5H9.5C9.10218 40.5 8.72064 40.658 8.43934 40.9393C8.15804 41.2206 8 41.6022 8 42C8 42.3978 8.15804 42.7794 8.43934 43.0607C8.72064 43.342 9.10218 43.5 9.5 43.5H12.5C14.0913 43.5 15.6174 42.8679 16.7426 41.7426C17.8679 40.6174 18.5 39.0913 18.5 37.5V30H15.5V37.5ZM23 42C23 42.3978 23.158 42.7794 23.4393 43.0607C23.7206 43.342 24.1022 43.5 24.5 43.5C24.8978 43.5 25.2794 43.342 25.5607 43.0607C25.842 42.7794 26 42.3978 26 42V30H23V42ZM39.5 40.5H36.5C35.7051 40.4976 34.9434 40.1808 34.3813 39.6187C33.8192 39.0566 33.5024 38.2949 33.5 37.5V30H30.5V37.5C30.5 39.0913 31.1321 40.6174 32.2574 41.7426C33.3826 42.8679 34.9087 43.5 36.5 43.5H39.5C39.8978 43.5 40.2794 43.342 40.5607 43.0607C40.842 42.7794 41 42.3978 41 42C41 41.6022 40.842 41.2206 40.5607 40.9393C40.2794 40.658 39.8978 40.5 39.5 40.5Z" fill="#AB0E12"/>
</svg>
