<svg width="49" height="48" viewBox="0 0 49 48" fill="none" xmlns="http://www.w3.org/2000/svg">
<path d="M35.9165 26.5C37.9185 26.5 39.731 27.3115 41.043 28.6235C42.355 29.9355 43.1665 31.748 43.1665 33.75C43.1665 35.752 42.355 37.5645 41.043 38.8765C39.731 40.1885 37.9185 41 35.9165 41C33.9145 41 32.102 40.1885 30.79 38.8765C29.478 37.5645 28.6665 35.752 28.6665 33.75C28.6665 31.748 29.478 29.9355 30.79 28.6235C32.102 27.3115 33.9145 26.5 35.9165 26.5ZM13.4165 26.5C15.4185 26.5 17.231 27.3115 18.543 28.6232C19.855 29.9352 20.6665 31.7477 20.6665 33.75C20.6665 35.752 19.855 37.5647 18.543 38.8767C17.231 40.1885 15.4183 41 13.4163 41C11.4143 41 9.602 40.1885 8.29 38.8765C6.978 37.5645 6.1665 35.7517 6.1665 33.7497C6.1665 31.7475 6.978 29.9352 8.28975 28.6232C9.60175 27.3115 11.4143 26.5 13.4165 26.5ZM24.4165 7C26.4185 7 28.231 7.8115 29.543 9.1235C30.2173 9.79585 30.752 10.5948 31.1164 11.4745C31.4808 12.3542 31.6678 13.2973 31.6665 14.2495C31.6665 16.2517 30.855 18.0645 29.543 19.3765C28.231 20.6885 26.4188 21.5 24.4168 21.5C22.4145 21.5 20.602 20.6885 19.29 19.3765C17.978 18.0642 17.1665 16.2515 17.1665 14.2495C17.1665 12.2477 17.978 10.4352 19.29 9.1235C20.602 7.8115 22.4143 7 24.4165 7Z" stroke="#AB0E12" stroke-width="3"/>
</svg>
