<svg width="58" height="58" viewBox="0 0 58 58" fill="none" xmlns="http://www.w3.org/2000/svg">
<path d="M28.6555 49.2627C32.4537 49.2627 35.5327 46.1837 35.5327 42.3855C35.5327 38.5873 32.4537 35.5083 28.6555 35.5083C24.8573 35.5083 21.7783 38.5873 21.7783 42.3855C21.7783 46.1837 24.8573 49.2627 28.6555 49.2627Z" stroke="white" stroke-width="4.5848" stroke-miterlimit="10"/>
<path d="M28.6553 35.5323V30.9475" stroke="white" stroke-width="3.5" stroke-miterlimit="10" stroke-linecap="round"/>
<path d="M28.6553 53.8475V49.2627" stroke="white" stroke-width="3.5" stroke-miterlimit="10"/>
<path d="M28.6553 35.5323V30.9475" stroke="white" stroke-width="3.5" stroke-miterlimit="10" stroke-linecap="round"/>
<path d="M28.6553 53.8475V49.2627" stroke="white" stroke-width="3.5" stroke-miterlimit="10" stroke-linecap="round"/>
<path d="M22.6856 38.9469L18.7217 36.6545" stroke="white" stroke-width="3.5" stroke-miterlimit="10" stroke-linecap="round"/>
<path d="M38.5645 48.1166L34.6006 45.8242" stroke="white" stroke-width="3.5" stroke-miterlimit="10" stroke-linecap="round"/>
<path d="M22.6856 38.9469L18.7217 36.6545" stroke="white" stroke-width="3.5" stroke-miterlimit="10" stroke-linecap="round"/>
<path d="M38.5645 48.1166L34.6006 45.8242" stroke="white" stroke-width="3.5" stroke-miterlimit="10" stroke-linecap="round"/>
<path d="M33.7245 37.432C32.8878 37.9159 32.6018 38.9864 33.0857 39.823C33.5695 40.6597 34.64 40.9457 35.4767 40.4619L33.7245 37.432ZM35.4767 40.4619L39.4406 38.1695L37.6884 35.1396L33.7245 37.432L35.4767 40.4619Z" fill="white"/>
<path d="M18.7217 48.1166L22.6856 45.8242" stroke="white" stroke-width="3.5" stroke-miterlimit="10" stroke-linecap="round"/>
<path d="M34.6006 38.9469L38.5645 36.6545" stroke="white" stroke-width="3.5" stroke-miterlimit="10" stroke-linecap="round"/>
<path d="M18.7217 48.1166L22.6856 45.8242" stroke="white" stroke-width="3.5" stroke-miterlimit="10" stroke-linecap="round"/>
<path d="M42.3856 42.3855H44.7735C47.0975 42.3848 49.3345 41.5017 51.0323 39.9147C52.73 38.3278 53.7619 36.1554 53.9193 33.8368C53.9312 33.638 53.9312 33.4386 53.9193 33.2398C53.9193 32.0356 53.6821 30.8433 53.2213 29.7307C52.7604 28.6182 52.085 27.6074 51.2335 26.7559C50.3821 25.9044 49.3712 25.229 48.2587 24.7682C47.1462 24.3074 45.9538 24.0702 44.7497 24.0702H42.3617V19.4854C42.3492 15.8518 40.9018 12.3703 38.3347 9.79874C35.7676 7.22717 32.2886 5.77375 28.6551 5.75488H28.1298C25.7756 5.84601 23.4856 6.54769 21.4845 7.79105C19.4834 9.03441 17.84 10.7767 16.7155 12.847C16.5932 13.044 16.4893 13.2518 16.4051 13.4679C15.5527 15.3622 15.0898 17.4086 15.044 19.4854C13.5189 19.4629 12.0048 19.7464 10.5911 20.3189C9.17738 20.8915 7.89278 21.7416 6.81315 22.819C5.73353 23.8964 4.88079 25.1792 4.3053 26.5918C3.72982 28.0043 3.44327 29.5178 3.46258 31.0429C3.45128 31.2019 3.45128 31.3615 3.46258 31.5205C3.57985 34.4684 4.83399 37.2564 6.962 39.2999C9.09001 41.3433 11.9266 42.4834 14.8768 42.481" stroke="white" stroke-width="3.5" stroke-miterlimit="10" stroke-linecap="round"/>
</svg>
