<svg width="58" height="58" viewBox="0 0 58 58" fill="none" xmlns="http://www.w3.org/2000/svg">
<path d="M19.1045 53.1884H38.2078C47.8073 53.1884 49.5266 49.3438 50.028 44.6635L51.819 25.5602C52.4637 19.7336 50.7922 14.9817 40.5958 14.9817H16.7166C6.52019 14.9817 4.84865 19.7336 5.49338 25.5602L7.28432 44.6635C7.78578 49.3438 9.50508 53.1884 19.1045 53.1884Z" stroke="#BBBBBB" stroke-width="2.5" stroke-miterlimit="10" stroke-linecap="round" stroke-linejoin="round"/>
<path d="M19.1045 14.9818V13.0715C19.1045 8.8449 19.1045 5.43018 26.7458 5.43018H30.5665C38.2078 5.43018 38.2078 8.8449 38.2078 13.0715V14.9818" stroke="#BBBBBB" stroke-width="2.5" stroke-miterlimit="10" stroke-linecap="round" stroke-linejoin="round"/>
<path d="M33.4315 31.6972V34.0852C33.4315 34.109 33.4315 34.109 33.4315 34.1329C33.4315 36.7357 33.4077 38.861 28.6557 38.861C23.9276 38.861 23.8799 36.7596 23.8799 34.1568V31.6972C23.8799 29.3093 23.8799 29.3093 26.2678 29.3093H31.0436C33.4315 29.3093 33.4315 29.3093 33.4315 31.6972Z" stroke="#BBBBBB" stroke-width="2.5" stroke-miterlimit="10" stroke-linecap="round" stroke-linejoin="round"/>
<path d="M51.6992 26.9214C46.1831 30.9331 39.879 33.321 33.4316 34.1329" stroke="#BBBBBB" stroke-width="2.5" stroke-miterlimit="10" stroke-linecap="round" stroke-linejoin="round"/>
<path d="M6.25684 27.5662C11.6296 31.2436 17.695 33.4643 23.8797 34.1568" stroke="#BBBBBB" stroke-width="2.5" stroke-miterlimit="10" stroke-linecap="round" stroke-linejoin="round"/>
</svg>
