<svg width="58" height="58" viewBox="0 0 58 58" fill="none" xmlns="http://www.w3.org/2000/svg">
<path d="M13.3129 5.60744C13.9334 5.90567 14.328 6.53317 14.328 7.22163C14.328 9.20322 15.0733 10.3441 16.007 11.7335L16.0749 11.8345C16.869 13.0142 17.9099 14.5606 17.9099 16.7733C17.9099 19.0311 16.7704 21.0228 15.0352 22.2046C15.4917 22.5874 15.8962 23.0594 16.2437 23.6219C17.3798 25.4605 17.9099 28.2699 17.9099 32.3064C17.9099 36.3948 17.3608 41.3043 16.4662 45.2239C16.0214 47.1729 15.4705 48.9707 14.8121 50.3221C14.4856 50.9921 14.088 51.6466 13.593 52.1586C13.1034 52.6646 12.3469 53.2007 11.3431 53.2007C10.3394 53.2007 9.58291 52.6646 9.09331 52.1586C8.59828 51.6466 8.20069 50.9921 7.87416 50.3221C7.21579 48.9707 6.66487 47.1729 6.22008 45.2239C5.32552 41.3043 4.77637 36.3948 4.77637 32.3064C4.77637 28.2699 5.30646 25.4605 6.44254 23.6219C6.79005 23.0594 7.19454 22.5874 7.65106 22.2046C5.91583 21.0228 4.77637 19.0311 4.77637 16.7733C4.77637 15.8941 4.77718 14.3827 5.69192 12.4313C6.5871 10.5215 8.28818 8.32723 11.4183 5.82314C11.9559 5.39306 12.6924 5.30922 13.3129 5.60744ZM8.35824 16.7703V16.7733C8.35824 18.4218 9.69462 19.7582 11.3431 19.7582C12.9917 19.7582 14.328 18.4218 14.328 16.7733C14.328 15.7249 13.8867 15.0001 13.0341 13.7314L13.0049 13.688C12.4584 12.8749 11.8129 11.9146 11.3522 10.6783C10.0549 11.9974 9.33848 13.0911 8.93514 13.9515C8.35824 15.1823 8.35824 16.0581 8.35824 16.7703ZM9.48971 25.5047C8.89724 26.4634 8.35824 28.4299 8.35824 32.3064C8.35824 36.1309 8.87819 40.773 9.71214 44.4268C10.1316 46.2648 10.6098 47.7589 11.0942 48.7532C11.1833 48.9361 11.2669 49.0899 11.3431 49.2177C11.4194 49.0899 11.5029 48.9361 11.5921 48.7532C12.0765 47.7589 12.5547 46.2648 12.9741 44.4268C13.8081 40.773 14.328 36.1309 14.328 32.3064C14.328 28.4299 13.789 26.4634 13.1966 25.5047C12.927 25.0682 12.6593 24.8616 12.4202 24.7456C12.1627 24.6207 11.8223 24.5457 11.3431 24.5457C10.8639 24.5457 10.5236 24.6207 10.2661 24.7456C10.0269 24.8616 9.7593 25.0682 9.48971 25.5047Z" fill="#BBBBBB"/>
<path d="M23.879 36.2754C22.5935 36.0598 21.3661 35.6729 20.2209 35.1392C20.271 34.169 20.2971 33.2189 20.2971 32.3064C20.2971 31.8867 20.2917 31.4747 20.2805 31.0712C21.3577 31.795 22.5731 32.3291 23.879 32.6255V25.728C23.879 23.7498 25.4826 22.1461 27.4607 22.1461H37.0124C37.0124 16.2115 32.2015 11.4005 26.2668 11.4005C23.8111 11.4005 21.5478 12.2243 19.7381 13.6105C19.2617 12.2914 18.5807 11.281 18.1069 10.5779L18.0107 10.4351C20.3444 8.78688 23.1926 7.8186 26.2668 7.8186C34.1796 7.8186 40.5943 14.2332 40.5943 22.1461H48.952C50.9304 22.1461 52.5339 23.7498 52.5339 25.728V47.2192C52.5339 49.1974 50.9304 50.8011 48.952 50.8011H27.4607C25.4826 50.8011 23.879 49.1974 23.879 47.2192V36.2754ZM27.4607 36.4247V47.2192H48.952V25.728H40.143C38.6484 31.5354 33.6041 35.9177 27.4607 36.4247ZM36.4011 25.728H27.4607V32.8261C31.6136 32.3671 35.0531 29.5415 36.4011 25.728Z" fill="#BBBBBB"/>
</svg>
