<svg width="58" height="58" viewBox="0 0 58 58" fill="none" xmlns="http://www.w3.org/2000/svg">
<g clip-path="url(#clip0_497_3825)">
<path d="M14.3281 48.6664C14.3281 39.6329 25.0737 41.4406 25.0737 37.8277C25.1939 36.5447 24.8461 35.2615 24.0947 34.2147C23.2377 33.4022 22.5627 32.4173 22.1141 31.3249C21.6654 30.2326 21.4534 29.0575 21.4919 27.8772C21.3753 25.853 22.0624 23.8646 23.4039 22.3443C24.7453 20.824 26.6327 19.8946 28.6556 19.7583C30.6786 19.8946 32.5659 20.824 33.9074 22.3443C35.2489 23.8646 35.936 25.853 35.8194 27.8772C35.8623 29.061 35.6488 30.2401 35.1933 31.3335C34.7379 32.427 34.0513 33.4091 33.1807 34.2124C32.4595 35.273 32.1264 36.5499 32.2375 37.8277C32.2375 41.4406 42.9831 39.6353 42.9831 48.6688C42.9831 48.6688 40.1296 50.8036 28.6556 50.8036C17.1817 50.8036 14.3281 48.6664 14.3281 48.6664Z" stroke="#BBBBBB" stroke-width="2" stroke-miterlimit="10"/>
<path d="M13.0999 38.783C11.7412 38.7209 10.5424 38.6277 9.48936 38.5107C7.01759 38.4617 4.58927 37.8517 2.3877 36.727C2.3877 27.6935 13.1333 29.5011 13.1333 25.8882C13.2534 24.6052 12.9057 23.3221 12.1543 22.2753C11.2973 21.4628 10.6223 20.4779 10.1736 19.3855C9.72498 18.2931 9.51293 17.1181 9.55145 15.9378C9.43484 13.9136 10.122 11.9252 11.4634 10.4049C12.8049 8.88455 14.6922 7.95519 16.7152 7.81885C18.7381 7.95519 20.6255 8.88455 21.967 10.4049C23.3084 11.9252 23.9955 13.9136 23.8789 15.9378" stroke="#BBBBBB" stroke-width="2" stroke-miterlimit="10"/>
<path d="M44.2098 38.783C45.5685 38.7209 46.7672 38.6277 47.8203 38.5107C50.2921 38.4617 52.7204 37.8517 54.922 36.727C54.922 27.6935 44.1763 29.5011 44.1763 25.8882C44.0562 24.6052 44.404 23.3221 45.1554 22.2753C46.0123 21.4628 46.6874 20.4779 47.136 19.3855C47.5847 18.2931 47.7967 17.1181 47.7582 15.9378C47.8748 13.9136 47.1877 11.9252 45.8462 10.4049C44.5048 8.88455 42.6174 7.95519 40.5945 7.81885C38.5715 7.95519 36.6842 8.88455 35.3427 10.4049C34.0012 11.9252 33.3141 13.9136 33.4307 15.9378" stroke="#BBBBBB" stroke-width="2" stroke-miterlimit="10"/>
</g>
<defs>
<clipPath id="clip0_497_3825">
<rect width="57.31" height="57.31" fill="white" transform="translate(0 0.655029)"/>
</clipPath>
</defs>
</svg>
