<svg width="16" height="16" viewBox="0 0 16 16" fill="none" xmlns="http://www.w3.org/2000/svg">
<path d="M12.2233 12.2299H10.4467V9.44524C10.4467 8.78124 10.4333 7.92657 9.52 7.92657C8.594 7.92657 8.45267 8.64924 8.45267 9.39657V12.2299H6.67533V6.50391H8.382V7.28391H8.40533C8.644 6.83457 9.224 6.35924 10.0907 6.35924C11.8907 6.35924 12.224 7.54457 12.224 9.08657V12.2299H12.2233ZM4.66867 5.72057C4.53304 5.72075 4.39871 5.69415 4.27338 5.64231C4.14804 5.59047 4.03418 5.5144 3.9383 5.41846C3.84243 5.32253 3.76644 5.20861 3.71467 5.08325C3.66291 4.95788 3.6364 4.82354 3.63667 4.68791C3.6368 4.4838 3.69745 4.28431 3.81096 4.11467C3.92447 3.94503 4.08573 3.81286 4.27435 3.73487C4.46298 3.65689 4.67049 3.63658 4.87065 3.67653C5.07082 3.71648 5.25464 3.81489 5.39887 3.95931C5.54311 4.10373 5.64128 4.28768 5.68097 4.48789C5.72066 4.68811 5.70009 4.8956 5.62185 5.08412C5.54362 5.27264 5.41125 5.43373 5.24146 5.54702C5.07168 5.66031 4.87278 5.7207 4.66867 5.72057ZM5.55933 12.2299H3.77733V6.50391H5.56V12.2299H5.55933ZM13.1133 2.00391H2.886C2.39533 2.00391 2 2.39057 2 2.86857V13.1392C2 13.6172 2.396 14.0039 2.88533 14.0039H13.1107C13.6 14.0039 14 13.6172 14 13.1392V2.86857C14 2.39057 13.6 2.00391 13.1107 2.00391H13.1133Z" fill="white"/>
</svg>
