<svg width="16" height="16" viewBox="0 0 16 16" fill="none" xmlns="http://www.w3.org/2000/svg">
<path d="M7.99967 5.83691C7.42504 5.83691 6.87394 6.06519 6.46761 6.47152C6.06128 6.87785 5.83301 7.42895 5.83301 8.00358C5.83301 8.57822 6.06128 9.12932 6.46761 9.53565C6.87394 9.94197 7.42504 10.1702 7.99967 10.1702C8.57431 10.1702 9.12541 9.94197 9.53174 9.53565C9.93807 9.12932 10.1663 8.57822 10.1663 8.00358C10.1663 7.42895 9.93807 6.87785 9.53174 6.47152C9.12541 6.06519 8.57431 5.83691 7.99967 5.83691Z" fill="white"/>
<path fill-rule="evenodd" clip-rule="evenodd" d="M4.51256 2.05788C6.82991 1.80102 9.16855 1.80102 11.4859 2.05788C12.7519 2.19922 13.7726 3.19588 13.9212 4.46655C14.196 6.81632 14.196 9.19011 13.9212 11.5399C13.7726 12.8106 12.7519 13.8072 11.4866 13.9492C9.169 14.2062 6.83013 14.2062 4.51256 13.9492C3.24656 13.8072 2.2259 12.8106 2.07723 11.5406C1.80238 9.19056 1.80238 6.81654 2.07723 4.46655C2.2259 3.19588 3.24656 2.19922 4.51256 2.05788ZM11.3326 4.00322C11.1558 4.00322 10.9862 4.07346 10.8612 4.19848C10.7361 4.3235 10.6659 4.49307 10.6659 4.66988C10.6659 4.8467 10.7361 5.01626 10.8612 5.14129C10.9862 5.26631 11.1558 5.33655 11.3326 5.33655C11.5094 5.33655 11.6789 5.26631 11.804 5.14129C11.929 5.01626 11.9992 4.8467 11.9992 4.66988C11.9992 4.49307 11.929 4.3235 11.804 4.19848C11.6789 4.07346 11.5094 4.00322 11.3326 4.00322ZM4.83256 8.00322C4.83256 7.16337 5.16619 6.35791 5.76006 5.76405C6.35392 5.17018 7.15938 4.83655 7.99923 4.83655C8.83908 4.83655 9.64454 5.17018 10.2384 5.76405C10.8323 6.35791 11.1659 7.16337 11.1659 8.00322C11.1659 8.84307 10.8323 9.64852 10.2384 10.2424C9.64454 10.8363 8.83908 11.1699 7.99923 11.1699C7.15938 11.1699 6.35392 10.8363 5.76006 10.2424C5.16619 9.64852 4.83256 8.84307 4.83256 8.00322Z" fill="white"/>
</svg>
