<svg width="25" height="24" viewBox="0 0 25 24" fill="none" xmlns="http://www.w3.org/2000/svg">
<g clip-path="url(#clip0_1912_11943)">
<path d="M5.45356 1.30636C5.30392 1.0438 5.39549 0.7096 5.65806 0.559953C6.2395 0.228675 6.7473 0.160206 7.16711 0.356249C7.66378 0.588289 7.89145 1.1015 8.03738 1.68787C8.81748 1.28429 9.67772 1.04398 10.5626 0.986029C11.5233 0.923094 12.4605 1.07073 13.3487 1.42469C13.6295 1.53664 13.7663 1.8549 13.6544 2.13565C13.5425 2.4164 13.2242 2.5534 12.9434 2.44139C12.2077 2.14812 11.4308 2.02595 10.6342 2.07813C9.7924 2.13328 8.97789 2.38715 8.26012 2.8159C8.33461 3.1923 8.42819 3.56486 8.56312 3.72035C8.76123 3.94862 8.73685 4.29425 8.50864 4.49236C8.40508 4.58229 8.27727 4.62637 8.15012 4.62637C7.99701 4.62637 7.84481 4.56253 7.73663 4.43787C7.36048 4.00456 7.23594 3.31501 7.11548 2.64813C7.03911 2.22522 6.89694 1.43801 6.70382 1.34777C6.66241 1.32825 6.50376 1.33762 6.19997 1.51073C5.93753 1.66069 5.60321 1.56893 5.45356 1.30636ZM11.9534 4.35901C12.1656 4.35901 12.3675 4.23484 12.4565 4.02755C12.5757 3.74984 12.4472 3.42799 12.1695 3.30874C11.5325 3.03535 10.8396 2.97309 10.1656 3.12888C9.87109 3.19692 9.68757 3.49086 9.75567 3.78535C9.82378 4.07984 10.1178 4.2636 10.4121 4.19525C10.8577 4.09218 11.316 4.13347 11.7377 4.31456C11.8081 4.34478 11.8813 4.35901 11.9534 4.35901ZM13.0492 5.71951L13.191 7.30986C13.1915 7.31722 13.1922 7.32451 13.193 7.33175L13.2607 8.09117C13.2861 8.37569 13.5249 8.58985 13.8052 8.58985C13.8215 8.58985 13.8379 8.58906 13.8544 8.58766C14.1555 8.56084 14.3778 8.295 14.3509 7.99388L14.3353 7.81881H14.9599C15.2621 7.81881 15.5071 7.57382 15.5071 7.27155C15.5071 6.96928 15.2621 6.72428 14.9599 6.72428H14.2377L14.1394 5.62221C14.0996 5.17498 14.3167 4.83464 14.5059 4.62783C14.8772 4.22189 15.4506 3.97957 16.0397 3.97957H17.4156C18.0047 3.97957 18.578 4.22188 18.9494 4.62777C19.1115 4.80497 19.2941 5.08036 19.3179 5.43718H18.61C18.3077 5.43718 18.0627 5.68217 18.0627 5.98444C18.0627 6.28672 18.3077 6.53171 18.61 6.53171H19.2347L19.1043 7.99394C19.0775 8.29493 19.2997 8.56078 19.6008 8.58766C19.902 8.6135 20.1677 8.39223 20.1945 8.09111L20.4059 5.71938C20.4646 5.06066 20.2341 4.41069 19.7569 3.88897C19.1818 3.26034 18.3065 2.88504 17.4156 2.88504H17.3967C17.6291 2.07387 18.0998 1.39709 18.7178 1.01175C18.9743 0.851828 19.0526 0.514226 18.8926 0.257863C18.7328 0.00125638 18.3952 -0.0770025 18.1387 0.083042C17.5574 0.445514 17.0734 0.985847 16.7276 1.63521C16.3818 0.985786 15.8979 0.445514 15.3166 0.083042C15.06 -0.0768809 14.7225 0.00137797 14.5626 0.257863C14.4027 0.514287 14.4809 0.851888 14.7374 1.01175C15.3554 1.39709 15.8262 2.07387 16.0585 2.88504H16.0397C15.1487 2.88504 14.2735 3.2604 13.6983 3.88909C13.2211 4.41075 12.9906 5.06078 13.0492 5.71951ZM10.3568 5.3017C10.1024 5.13837 9.76388 5.21225 9.60055 5.46673C9.43735 5.72109 9.51123 6.0596 9.76559 6.22287C10.1519 6.47078 10.4429 6.82729 10.6071 7.25391C10.6908 7.4713 10.8981 7.60477 11.1179 7.60477C11.1833 7.60477 11.2498 7.59298 11.3144 7.56805C11.5965 7.45944 11.7371 7.14276 11.6285 6.86067C11.3801 6.21527 10.9403 5.67615 10.3568 5.3017ZM5.13779 8.30497C5.14983 8.30497 5.16193 8.3046 5.17409 8.30375C5.4757 8.28405 5.70415 8.02355 5.68439 7.72195C5.61008 6.58686 5.89277 5.48163 6.50194 4.52574C6.66436 4.2709 6.58944 3.93256 6.33454 3.77009C6.07976 3.60773 5.74142 3.68265 5.57889 3.93749C4.84373 5.09106 4.50248 6.42438 4.59217 7.7934C4.6112 8.0829 4.85181 8.30497 5.13779 8.30497ZM20.407 9.6665V23.4528C20.407 23.7551 20.162 24.0001 19.8598 24.0001H5.1336C4.83132 24.0001 4.58633 23.7551 4.58633 23.4528V9.6665C4.58633 9.36423 4.83132 9.11924 5.1336 9.11924H5.30233C5.49467 9.11924 5.67283 9.22018 5.77171 9.38515C5.89472 9.59037 6.12165 9.71788 6.36397 9.71788C6.60629 9.71788 6.83322 9.59037 6.95629 9.38515C7.05516 9.22018 7.23339 9.11924 7.42566 9.11924H7.75013C7.94246 9.11924 8.12069 9.22018 8.21956 9.38521C8.34251 9.59037 8.56945 9.71788 8.81176 9.71788C9.05408 9.71788 9.28107 9.59031 9.40421 9.38503C9.50308 9.22012 9.68125 9.11924 9.87352 9.11924H10.2111C10.4034 9.11924 10.5816 9.22018 10.6804 9.38515C10.8034 9.59037 11.0304 9.71788 11.2726 9.71788C11.5149 9.71788 11.7419 9.59037 11.865 9.38515C11.9639 9.22018 12.1421 9.11924 12.3344 9.11924H12.6588C12.8511 9.11924 13.0294 9.22018 13.1282 9.38515C13.2512 9.59037 13.4782 9.71788 13.7204 9.71788C13.9628 9.71788 14.1897 9.59037 14.3127 9.38515C14.4116 9.22018 14.5898 9.11924 14.7822 9.11924H15.1197C15.312 9.11924 15.4902 9.22011 15.5891 9.38509C15.7122 9.59037 15.9392 9.71788 16.1815 9.71788C16.4238 9.71788 16.6507 9.59037 16.7737 9.38521C16.8726 9.22018 17.0508 9.11924 17.2431 9.11924H17.5676C17.76 9.11924 17.9382 9.22018 18.0371 9.38515C18.1601 9.59037 18.387 9.71788 18.6293 9.71788C18.8716 9.71788 19.0986 9.59037 19.2217 9.38509C19.3205 9.22018 19.4987 9.11924 19.691 9.11924H19.8598C20.162 9.11924 20.407 9.36423 20.407 9.6665ZM19.3125 10.676C19.0986 10.7646 18.8667 10.8124 18.6293 10.8124C18.1706 10.8124 17.7324 10.6338 17.4054 10.3278C17.0784 10.6338 16.6403 10.8124 16.1815 10.8124C15.7198 10.8124 15.2788 10.6314 14.951 10.3217C14.6234 10.6315 14.1824 10.8124 13.7206 10.8124C13.2619 10.8124 12.8237 10.6338 12.4967 10.3278C12.1697 10.6338 11.7315 10.8124 11.2729 10.8124C10.8111 10.8124 10.3701 10.6314 10.0424 10.3217C9.71463 10.6315 9.27365 10.8124 8.81195 10.8124C8.35322 10.8124 7.91504 10.6338 7.58802 10.3278C7.261 10.6338 6.82282 10.8124 6.36415 10.8124C6.12676 10.8124 5.89478 10.7646 5.68092 10.676V22.9056H19.3126L19.3125 10.676ZM8.1351 5.37625C7.84627 5.28686 7.5398 5.44825 7.45029 5.73696C7.24543 6.39757 7.25662 7.09326 7.4827 7.7487C7.5609 7.97539 7.77299 8.11768 8.00005 8.11768C8.05921 8.11768 8.11941 8.10801 8.17852 8.08758C8.46425 7.98907 8.61596 7.67756 8.51746 7.39183C8.36781 6.95797 8.36033 6.49784 8.49575 6.06106C8.5852 5.77241 8.42375 5.46582 8.1351 5.37625ZM15.2682 13.8145C16.0978 14.7159 16.235 16.2464 15.6098 17.623C14.988 18.9924 13.7552 19.8957 12.5369 19.8723C12.5064 19.8735 12.4756 19.874 12.4451 19.874C11.2569 19.874 10.0524 19.0079 9.41935 17.6853C8.76658 16.3213 8.87312 14.7883 9.68447 13.8707C9.78255 13.7597 9.92137 13.6932 10.0693 13.6865C10.9317 13.6473 11.8117 14.0711 12.485 14.8022C13.1476 14.0494 14.0183 13.6157 14.8796 13.6381C15.0277 13.6418 15.1679 13.7056 15.2682 13.8145ZM12.2192 16.3453C11.8079 15.4859 11.0703 14.8793 10.3609 14.7898C9.98565 15.3984 9.99538 16.3534 10.4067 17.2127C10.818 18.0721 11.5557 18.6787 12.265 18.7681C12.6403 18.1596 12.6305 17.2047 12.2192 16.3453ZM14.6103 14.7471C14.0845 14.8242 13.5434 15.1872 13.1379 15.7354C13.1615 15.7806 13.1844 15.8264 13.2065 15.8728C13.618 16.7325 13.7278 17.6593 13.5496 18.4569C13.9784 18.1742 14.3628 17.7221 14.6133 17.1704C15.0072 16.3031 14.9978 15.3481 14.6103 14.7471Z" fill="#222222"/>
<path fill-rule="evenodd" clip-rule="evenodd" d="M7.97232 1.45153C7.82402 0.966162 7.59574 0.5565 7.16711 0.356249C6.7473 0.160206 6.2395 0.228675 5.65806 0.559953C5.39549 0.7096 5.30392 1.0438 5.45356 1.30636C5.60321 1.56893 5.93753 1.66069 6.19997 1.51073C6.50376 1.33762 6.66241 1.32825 6.70382 1.34777C6.89694 1.43801 7.03911 2.22522 7.11548 2.64813C7.23594 3.31496 7.36051 4.00459 7.73663 4.43787C7.84481 4.56253 7.99701 4.62637 8.15012 4.62637C8.27727 4.62637 8.40508 4.58229 8.50864 4.49236C8.73685 4.29425 8.76123 3.94862 8.56312 3.72035C8.42819 3.56486 8.33461 3.1923 8.26012 2.8159C8.97789 2.38715 9.7924 2.13328 10.6342 2.07813C11.4308 2.02595 12.2077 2.14812 12.9434 2.44139C13.2242 2.5534 13.5425 2.4164 13.6544 2.13565C13.7663 1.8549 13.6295 1.53664 13.3487 1.42469C12.4605 1.07073 11.5233 0.923094 10.5626 0.986029C9.76015 1.03858 8.97798 1.2411 8.25745 1.57934C8.18343 1.61409 8.11006 1.65027 8.03738 1.68787C8.01739 1.60754 7.99586 1.52858 7.97232 1.45153ZM13.2599 1.64764C12.4051 1.30699 11.5036 1.1649 10.5783 1.22552C9.72642 1.2813 8.89838 1.51265 8.14766 1.90103L7.87785 2.04061L7.80449 1.74583C7.661 1.16932 7.45577 0.756027 7.06556 0.573707M13.2599 1.64764C13.4175 1.71052 13.4943 1.88918 13.4315 2.04676C13.3686 2.2045 13.1899 2.28131 13.0323 2.21847C12.2632 1.91185 11.4504 1.78415 10.6185 1.83864C9.73892 1.89627 8.88757 2.16154 8.13704 2.60986L7.99185 2.69659L8.02469 2.86249C8.06243 3.05321 8.10638 3.25029 8.15975 3.42215C8.21052 3.5856 8.27935 3.75952 8.38186 3.87765C8.49313 4.00586 8.4794 4.19992 8.35131 4.31112C8.29308 4.36169 8.22168 4.38637 8.15012 4.38637C8.06356 4.38637 7.97856 4.35048 7.91789 4.28057C7.76138 4.10028 7.64858 3.85598 7.56 3.56146C7.47143 3.26696 7.4124 2.94175 7.35166 2.60548M7.35166 2.60548L7.351 2.60181C7.31314 2.39216 7.25713 2.082 7.18541 1.81166C7.14951 1.67635 7.10737 1.54191 7.05793 1.43148C7.03323 1.37631 7.00372 1.32031 6.96797 1.27112C6.9342 1.22464 6.882 1.16623 6.80578 1.13051C6.74516 1.10204 6.68303 1.09945 6.64244 1.10079C6.59522 1.10234 6.54402 1.11066 6.48987 1.12474C6.38138 1.15297 6.24597 1.20829 6.08115 1.30221C5.93411 1.38622 5.74617 1.33508 5.66207 1.18752M12.236 3.93285C12.3029 3.77695 12.2308 3.59623 12.0748 3.52928C11.4846 3.27597 10.8437 3.21845 10.2196 3.36271C10.0543 3.4009 9.95126 3.56591 9.9895 3.73127C10.0278 3.89681 10.193 3.99975 10.3579 3.96147C10.8534 3.84685 11.364 3.89288 11.8324 4.09403C11.8721 4.11108 11.9131 4.11901 11.9534 4.11901C12.0731 4.11901 12.1862 4.04882 12.236 3.93285ZM12.1695 3.30874C12.4472 3.42799 12.5757 3.74984 12.4565 4.02755C12.3675 4.23484 12.1656 4.35901 11.9534 4.35901C11.8813 4.35901 11.8081 4.34478 11.7377 4.31456C11.316 4.13347 10.8577 4.09218 10.4121 4.19525C10.1178 4.2636 9.82378 4.07984 9.75567 3.78535C9.68757 3.49086 9.87109 3.19692 10.1656 3.12888C10.8396 2.97309 11.5325 3.03535 12.1695 3.30874ZM15.8107 2.89327C15.0006 2.95138 14.2241 3.31439 13.6983 3.88909C13.2211 4.41075 12.9906 5.06078 13.0492 5.71951L13.191 7.30986C13.1915 7.31722 13.1922 7.32451 13.193 7.33175L13.2607 8.09117C13.2861 8.37569 13.5249 8.58985 13.8052 8.58985C13.8215 8.58985 13.8379 8.58906 13.8544 8.58766C14.1336 8.56279 14.3451 8.33233 14.3529 8.05881C14.3535 8.03741 14.3529 8.01573 14.3509 7.99388L14.3353 7.81881H14.9599C15.2621 7.81881 15.5071 7.57382 15.5071 7.27155C15.5071 6.96928 15.2621 6.72428 14.9599 6.72428H14.2377L14.1394 5.62221C14.0996 5.17498 14.3167 4.83464 14.5059 4.62783C14.8772 4.22189 15.4506 3.97957 16.0397 3.97957H17.4156C18.0047 3.97957 18.578 4.22188 18.9494 4.62777C19.073 4.76292 19.2086 4.95521 19.2766 5.19718C19.2977 5.27245 19.3123 5.35252 19.3179 5.43718H18.61C18.3077 5.43718 18.0627 5.68217 18.0627 5.98444C18.0627 6.28672 18.3077 6.53171 18.61 6.53171H19.2347L19.1043 7.99394C19.0775 8.29494 19.2997 8.56078 19.6008 8.58766C19.902 8.6135 20.1677 8.39223 20.1945 8.09111L20.4059 5.71938C20.4646 5.06066 20.2341 4.41069 19.7569 3.88897C19.2311 3.3143 18.4546 2.95134 17.6445 2.89326C17.5684 2.8878 17.4921 2.88504 17.4156 2.88504H17.3967C17.4028 2.86361 17.4092 2.84227 17.4156 2.82103C17.4337 2.76176 17.453 2.70324 17.4736 2.64553C17.7248 1.94124 18.1617 1.3585 18.7178 1.01175C18.9743 0.851828 19.0526 0.514226 18.8926 0.257863C18.7328 0.00125635 18.3952 -0.0770025 18.1387 0.083042C17.6318 0.399119 17.1989 0.850441 16.8671 1.39137C16.8184 1.47076 16.7719 1.55209 16.7276 1.63521C16.6834 1.55209 16.6369 1.47076 16.5882 1.39137C16.2564 0.850406 15.8235 0.399124 15.3166 0.083042C15.06 -0.0768809 14.7225 0.00137794 14.5626 0.257863C14.4027 0.514287 14.4809 0.851888 14.7374 1.01175C15.2935 1.3585 15.7304 1.94124 15.9816 2.64553C16.0022 2.70336 16.0216 2.76202 16.0397 2.82142C16.0461 2.84253 16.0524 2.86374 16.0585 2.88504H16.0397C15.9632 2.88504 15.8868 2.88781 15.8107 2.89327ZM15.1896 0.286711C15.0455 0.196885 14.856 0.240853 14.7663 0.384845C14.6765 0.528801 14.7204 0.71835 14.8644 0.808074C15.5421 1.23067 16.0439 1.96222 16.2892 2.81897L16.3768 3.12504H16.0397C15.2126 3.12504 14.4028 3.47459 13.8754 4.05108C13.4401 4.52691 13.236 5.11162 13.2883 5.69821L13.4306 7.29402L13.4316 7.30568L13.4321 7.31042L13.4998 8.06985C13.514 8.22943 13.6481 8.34985 13.8052 8.34985M13.8337 8.34855C14.0024 8.33322 14.1269 8.18415 14.1119 8.01517L14.0729 7.57881H14.9599C15.1296 7.57881 15.2671 7.44127 15.2671 7.27155C15.2671 7.10182 15.1296 6.96428 14.9599 6.96428H14.0182L13.9004 5.64353C13.8522 5.10219 14.1164 4.69799 14.3288 4.46585C14.7491 4.00637 15.3886 3.73957 16.0397 3.73957H17.4156C18.0667 3.73957 18.7061 4.00637 19.1264 4.46577C19.3087 4.66499 19.5286 4.98974 19.5574 5.42122L19.5744 5.67718H18.61C18.4403 5.67718 18.3027 5.81472 18.3027 5.98444C18.3027 6.15417 18.4403 6.29171 18.61 6.29171H19.497L19.3434 8.01524C19.3283 8.18413 19.4529 8.33333 19.6218 8.34858C19.7921 8.36292 19.9405 8.238 19.9555 8.06982L20.1669 5.69809C20.2191 5.11151 20.0151 4.52687 19.5798 4.05097C19.0525 3.47454 18.2426 3.12504 17.4156 3.12504H17.0783L17.166 2.81895C17.4114 1.96222 17.9131 1.23069 18.5908 0.808097C18.7348 0.718296 18.7787 0.528743 18.689 0.384889C18.5993 0.240872 18.4098 0.196787 18.2657 0.286667C17.7244 0.624218 17.2679 1.13124 16.9395 1.748L16.7277 2.14585L16.5158 1.74801C16.1874 1.13119 15.7309 0.624265 15.1896 0.286711M10.2271 5.50365C10.0843 5.412 9.89432 5.45338 9.80255 5.59634C9.71093 5.73912 9.75238 5.92919 9.89521 6.02088M9.60055 5.46673C9.76388 5.21225 10.1024 5.13837 10.3568 5.3017C10.9403 5.67615 11.3801 6.21527 11.6285 6.86067C11.7371 7.14276 11.5965 7.45944 11.3144 7.56805C11.2498 7.59298 11.1833 7.60477 11.1179 7.60477C10.8981 7.60477 10.6908 7.4713 10.6071 7.25391C10.4429 6.82729 10.1519 6.47078 9.76559 6.22287C9.51123 6.0596 9.43735 5.72109 9.60055 5.46673ZM10.8311 7.16771C10.8779 7.28942 10.9941 7.36477 11.1179 7.36477C11.1543 7.36477 11.1914 7.35824 11.228 7.34412C11.3864 7.28314 11.4655 7.10527 11.4046 6.9469C11.1745 6.34926 10.7678 5.8506 10.2271 5.50365M5.15733 8.06434L5.15845 8.06426C5.32773 8.0532 5.456 7.90699 5.4449 7.73764C5.36727 6.55181 5.66284 5.39586 6.29955 4.39676C6.39072 4.2537 6.34869 4.06373 6.20556 3.97249C6.0626 3.88139 5.87261 3.92336 5.78128 4.06647M5.17409 8.30375C5.16193 8.3046 5.14983 8.30497 5.13779 8.30497C4.85181 8.30497 4.6112 8.0829 4.59217 7.7934C4.50248 6.42438 4.84373 5.09106 5.57889 3.93749C5.74142 3.68265 6.07976 3.60773 6.33454 3.77009C6.58944 3.93256 6.66436 4.2709 6.50194 4.52574C5.89277 5.48163 5.61008 6.58686 5.68439 7.72195C5.70415 8.02355 5.4757 8.28405 5.17409 8.30375ZM4.83165 7.77765C4.7453 6.45948 5.07368 5.17683 5.78128 4.06647L4.83165 7.77765ZM4.83165 7.77765C4.84236 7.94019 4.97749 8.06497 5.13779 8.06497C5.145 8.06497 5.15146 8.06475 5.15733 8.06434M5.56585 9.50853C5.51033 9.4159 5.41032 9.35924 5.30233 9.35924H5.1336C4.96387 9.35924 4.82633 9.49678 4.82633 9.6665V23.4528C4.82633 23.6226 4.96387 23.7601 5.1336 23.7601H19.8598C20.0295 23.7601 20.167 23.6226 20.167 23.4528V9.6665C20.167 9.49678 20.0295 9.35924 19.8598 9.35924H19.691C19.583 9.35924 19.483 9.41591 19.4275 9.50849C19.2604 9.78721 18.9546 9.95788 18.6293 9.95788C18.3039 9.95788 17.9982 9.78719 17.8312 9.50854C17.7757 9.41593 17.6757 9.35924 17.5676 9.35924H17.2431C17.1351 9.35924 17.0351 9.41591 16.9796 9.50855C16.8126 9.7872 16.5068 9.95788 16.1815 9.95788C15.8561 9.95788 15.5504 9.78723 15.3833 9.50852C15.3277 9.41586 15.2277 9.35924 15.1197 9.35924H14.7822C14.6742 9.35924 14.5741 9.41592 14.5186 9.50853C14.3516 9.78721 14.0458 9.95788 13.7204 9.95788C13.3951 9.95788 13.0894 9.7872 12.9224 9.50854C12.8669 9.41593 12.7668 9.35924 12.6588 9.35924H12.3344C12.2264 9.35924 12.1264 9.41591 12.0709 9.50853C11.9038 9.78717 11.598 9.95788 11.2726 9.95788C10.9473 9.95788 10.6416 9.7872 10.4746 9.50854C10.4191 9.41591 10.319 9.35924 10.2111 9.35924H9.87352C9.76555 9.35924 9.66554 9.41588 9.61005 9.50844C9.44291 9.78707 9.13717 9.95788 8.81176 9.95788C8.48642 9.95788 8.18069 9.78722 8.0137 9.50858C7.9582 9.41594 7.85813 9.35924 7.75013 9.35924H7.42566C7.31772 9.35924 7.21766 9.41591 7.16215 9.50853C6.99506 9.78715 6.68934 9.95788 6.36397 9.95788C6.03861 9.95788 5.73289 9.7872 5.56585 9.50853ZM15.5891 9.38509C15.7122 9.59037 15.9392 9.71788 16.1815 9.71788C16.4238 9.71788 16.6507 9.59037 16.7737 9.38521C16.8726 9.22018 17.0508 9.11924 17.2431 9.11924H17.5676C17.76 9.11924 17.9382 9.22018 18.0371 9.38515C18.1601 9.59037 18.387 9.71788 18.6293 9.71788C18.8716 9.71788 19.0986 9.59037 19.2217 9.38509C19.3205 9.22018 19.4987 9.11924 19.691 9.11924H19.8598C20.162 9.11924 20.407 9.36423 20.407 9.6665V23.4528C20.407 23.7551 20.162 24.0001 19.8598 24.0001H5.1336C4.83132 24.0001 4.58633 23.7551 4.58633 23.4528V9.6665C4.58633 9.36423 4.83132 9.11924 5.1336 9.11924H5.30233C5.49467 9.11924 5.67283 9.22018 5.77171 9.38515C5.89472 9.59037 6.12165 9.71788 6.36397 9.71788C6.60629 9.71788 6.83322 9.59037 6.95629 9.38515C7.05516 9.22018 7.23339 9.11924 7.42566 9.11924H7.75013C7.94246 9.11924 8.12069 9.22018 8.21956 9.38521C8.34251 9.59037 8.56945 9.71788 8.81176 9.71788C9.05408 9.71788 9.28107 9.59031 9.40421 9.38503C9.50308 9.22012 9.68125 9.11924 9.87352 9.11924H10.2111C10.4034 9.11924 10.5816 9.22018 10.6804 9.38515C10.8034 9.59037 11.0304 9.71788 11.2726 9.71788C11.5149 9.71788 11.7419 9.59037 11.865 9.38515C11.9639 9.22018 12.1421 9.11924 12.3344 9.11924H12.6588C12.8511 9.11924 13.0294 9.22018 13.1282 9.38515C13.2512 9.59037 13.4782 9.71788 13.7204 9.71788C13.9628 9.71788 14.1897 9.59037 14.3127 9.38515C14.4116 9.22018 14.5898 9.11924 14.7822 9.11924H15.1197C15.312 9.11924 15.4902 9.22012 15.5891 9.38509ZM19.5525 10.3168L19.5526 23.1456H5.44092V10.3169L5.77272 10.4543C5.9582 10.5311 6.15904 10.5724 6.36415 10.5724C6.76069 10.5724 7.14058 10.4178 7.42406 10.1526L7.58803 9.99918L7.75199 10.1526C8.03544 10.4178 8.41532 10.5724 8.81195 10.5724C9.21114 10.5724 9.59345 10.4158 9.87753 10.1473L10.0424 9.99148L10.2072 10.1473C10.4912 10.4157 10.8736 10.5724 11.2729 10.5724C11.6694 10.5724 12.0492 10.4178 12.3327 10.1526L12.4967 9.99917L12.6607 10.1526C12.9441 10.4178 13.324 10.5724 13.7206 10.5724C14.1199 10.5724 14.5022 10.4158 14.7862 10.1473L14.951 9.99146L15.1159 10.1473C15.4 10.4157 15.7823 10.5724 16.1815 10.5724C16.5782 10.5724 16.958 10.4178 17.2414 10.1526L17.4054 9.99917L17.5694 10.1526C17.8528 10.4178 18.2327 10.5724 18.6293 10.5724C18.8344 10.5724 19.0352 10.5311 19.2206 10.4542L19.5525 10.3168ZM8.17852 8.08758C8.11941 8.10801 8.05921 8.11768 8.00005 8.11768C7.77299 8.11768 7.5609 7.97539 7.4827 7.7487C7.25662 7.09326 7.24543 6.39757 7.45029 5.73696C7.5398 5.44825 7.84627 5.28686 8.1351 5.37625C8.42375 5.46582 8.5852 5.77241 8.49575 6.06106C8.36033 6.49784 8.36781 6.95797 8.51746 7.39183C8.61596 7.67756 8.46425 7.98907 8.17852 8.08758ZM8.29057 7.47008C8.12434 6.98814 8.11592 6.4757 8.26651 5.98999C8.31671 5.82792 8.22606 5.65576 8.06397 5.60547C7.90166 5.55534 7.72975 5.64604 7.67953 5.80803C7.48983 6.41975 7.50011 7.06314 7.70958 7.67044C7.75337 7.79739 7.87222 7.87768 8.00005 7.87768C8.03295 7.87768 8.06662 7.87233 8.10011 7.86075C8.26047 7.80547 8.34587 7.63055 8.29057 7.47008ZM15.0916 13.977C15.0353 13.9159 14.9566 13.8801 14.8735 13.878C14.0979 13.8578 13.2914 14.2493 12.6652 14.9608L12.489 15.1609L12.3085 14.9648C11.6715 14.2732 10.8563 13.891 10.0803 13.9262C9.99727 13.93 9.91937 13.9673 9.8643 14.0296C9.13352 14.8561 9.01258 16.2794 9.63583 17.5817C10.2398 18.8436 11.372 19.634 12.4451 19.634C12.4728 19.634 12.5005 19.6335 12.5278 19.6325L12.5415 19.632C13.6389 19.653 14.7975 18.8314 15.3913 17.5238L15.6098 17.623C14.988 18.9924 13.7552 19.8957 12.5369 19.8723C12.5064 19.8735 12.4756 19.874 12.4451 19.874C11.2569 19.874 10.0524 19.0079 9.41935 17.6853C8.76658 16.3213 8.87312 14.7883 9.68447 13.8707C9.78255 13.7597 9.92137 13.6932 10.0693 13.6865C10.8616 13.6505 11.6687 14.0052 12.3168 14.6301C12.3742 14.6854 12.4303 14.7428 12.485 14.8022C12.5384 14.7415 12.5932 14.6829 12.6493 14.6264C13.288 13.9824 14.0877 13.6175 14.8796 13.6381C15.0277 13.6418 15.1679 13.7056 15.2682 13.8145C16.0978 14.7159 16.235 16.2464 15.6098 17.623L15.3913 17.5238C15.9882 16.2094 15.8388 14.7889 15.0916 13.977ZM10.2377 14.5324L10.391 14.5517C11.2048 14.6543 12.0008 15.3329 12.4357 16.2417C12.8706 17.1503 12.8999 18.1959 12.4693 18.8941L12.3882 19.0256L12.235 19.0062C11.4212 18.9036 10.6251 18.2251 10.1902 17.3164C9.75528 16.4077 9.72608 15.362 10.1567 14.6638L10.2377 14.5324ZM14.7284 14.4873L14.812 14.6171C15.2566 15.3066 15.2484 16.3525 14.8318 17.2697C14.5644 17.8586 14.1517 18.3474 13.6817 18.6573L13.1859 18.9843L13.3154 18.4046C13.4808 17.6643 13.3806 16.7923 12.99 15.9764C12.9691 15.9326 12.9474 15.8891 12.9252 15.8465L12.8556 15.7134L12.9449 15.5927C13.3772 15.0084 13.9699 14.5984 14.5755 14.5097L14.7284 14.4873ZM5.7769 0.768465C6.32257 0.457575 6.74407 0.423596 7.06556 0.573707L5.7769 0.768465ZM10.3609 14.7898C11.0703 14.8793 11.8079 15.4859 12.2192 16.3453C12.6305 17.2047 12.6403 18.1596 12.265 18.7681C11.5557 18.6787 10.818 18.0721 10.4067 17.2127C9.99538 16.3534 9.98565 15.3984 10.3609 14.7898ZM10.8311 7.16771C10.6484 6.69325 10.3243 6.29625 9.89521 6.02088L10.8311 7.16771ZM17.4054 10.3278C17.7324 10.6338 18.1706 10.8124 18.6293 10.8124C18.7803 10.8124 18.9291 10.793 19.0725 10.7561C19.1545 10.735 19.2347 10.7082 19.3125 10.676L19.3126 22.9056H5.68092V10.676C5.75873 10.7082 5.83893 10.7351 5.92092 10.7562C6.06429 10.793 6.21313 10.8124 6.36415 10.8124C6.82282 10.8124 7.261 10.6338 7.58802 10.3278C7.91504 10.6338 8.35322 10.8124 8.81195 10.8124C9.27365 10.8124 9.71463 10.6315 10.0424 10.3217C10.3701 10.6314 10.8111 10.8124 11.2729 10.8124C11.7315 10.8124 12.1697 10.6338 12.4967 10.3278C12.8237 10.6338 13.2619 10.8124 13.7206 10.8124C14.1824 10.8124 14.6234 10.6315 14.951 10.3217C15.2788 10.6314 15.7198 10.8124 16.1815 10.8124C16.6403 10.8124 17.0784 10.6338 17.4054 10.3278ZM13.6073 18.1165C13.6914 17.4023 13.5607 16.6127 13.2065 15.8728C13.1844 15.8264 13.1615 15.7806 13.1379 15.7354C13.5434 15.1872 14.0845 14.8242 14.6103 14.7471C14.9978 15.3481 15.0072 16.3031 14.6133 17.1704C14.4196 17.597 14.1457 17.9641 13.8333 18.2394C13.7417 18.32 13.6468 18.3928 13.5496 18.4569C13.5745 18.3458 13.5937 18.2321 13.6073 18.1165Z" fill="#222222"/>
</g>
<defs>
<clipPath id="clip0_1912_11943">
<rect width="24" height="24" fill="white" transform="translate(0.5)"/>
</clipPath>
</defs>
</svg>
