<svg width="100" height="98" viewBox="0 0 100 98" fill="none" xmlns="http://www.w3.org/2000/svg">
<g clip-path="url(#clip0_768_11478)">
<path fill-rule="evenodd" clip-rule="evenodd" d="M4.17578 4.42676H95.8236V93.5751H4.17578V4.42676Z" fill="#1F0040"/>
<path fill-rule="evenodd" clip-rule="evenodd" d="M0.0117188 0.260742V97.7407H99.9916V0.260742H0.0117188ZM4.17753 4.42655H95.8258V93.5749H4.17753V4.42655Z" fill="#D291FF"/>
<path fill-rule="evenodd" clip-rule="evenodd" d="M28.2681 55.4583L24.9688 67.8995C24.8996 68.2428 24.7622 68.3723 24.3498 68.3723H18.2327C17.8203 68.3723 17.7511 68.2349 17.8203 67.7541L29.6424 26.3751C29.849 25.6194 29.9865 25.0229 30.0548 22.9612C30.0548 22.6863 30.1923 22.5488 30.3989 22.5488H39.1284C39.4025 22.5488 39.54 22.618 39.6091 22.9612L52.8756 67.8225C52.9439 68.1665 52.8756 68.3723 52.5315 68.3723H45.6579C45.3146 68.3723 45.108 68.2428 45.0397 67.9687L41.6029 55.4583H28.2681ZM39.9591 48.6955C38.7905 44.0902 35.9657 33.9898 34.9347 29.1096H34.8663C33.9728 33.9898 31.7166 42.2302 29.9982 48.6914L39.9591 48.6955ZM62.2899 52.9588C62.359 58.5956 65.0402 62.3757 71.3634 62.3757C73.8375 62.3757 75.9579 62.0486 78.1575 61.0859C78.4324 60.9484 78.639 61.0176 78.639 61.3609V66.5852C78.639 66.9976 78.5016 67.2034 78.2266 67.4096C76.0275 68.5098 73.288 68.9905 69.8513 68.9905C58.8539 68.9905 54.7294 60.8801 54.7294 51.8066C54.7294 41.9778 59.8154 33.9361 68.7519 33.9361C77.8246 33.9361 80.9865 41.5653 80.9865 47.7516C80.9865 49.7449 80.849 51.395 80.6432 52.1507C80.5741 52.4939 80.4366 52.6152 80.0933 52.6835C79.2685 52.8209 76.794 52.9584 73.1506 52.9584L62.2899 52.9588ZM70.7444 47.2308C72.8752 47.2308 73.6321 47.2308 73.8379 47.1625C73.8379 46.8876 73.9071 46.6514 73.9071 46.4456C73.9071 44.1773 72.8069 40.014 68.4769 40.014C64.4903 40.014 62.7719 43.5191 62.359 47.2308H70.7444Z" fill="#D291FF"/>
</g>
<defs>
<clipPath id="clip0_768_11478">
<rect width="100" height="97.48" fill="white" transform="translate(0 0.259766)"/>
</clipPath>
</defs>
</svg>
