<svg width="40" height="40" viewBox="0 0 40 40" fill="none" xmlns="http://www.w3.org/2000/svg">
<path d="M36.6668 3.33333C28.889 0 20.0001 0 20.0001 0C20.0001 0 11.1112 0 3.33344 3.33333C0.000105858 20 3.33344 34.4444 20.0001 40C36.6668 34.4444 40.0001 20 36.6668 3.33333Z" fill="white"/>
<path d="M20.0002 37.6488C7.12466 33.0322 2.17911 22.0344 5.28911 4.93772C12.2924 2.25439 19.9202 2.22217 20.0002 2.22217C20.0791 2.22217 27.7313 2.26661 34.7113 4.93772C37.8213 22.0344 32.8758 33.0322 20.0002 37.6488Z" fill="#55ACEE"/>
<path d="M34.7111 4.93772C27.7311 2.26661 20.0789 2.22217 20 2.22217V37.6488C32.8756 33.0322 37.8211 22.0344 34.7111 4.93772Z" fill="#226699"/>
</svg>
