<svg width="40" height="40" viewBox="0 0 40 40" fill="none" xmlns="http://www.w3.org/2000/svg">
<g clip-path="url(#clip0_497_7589)">
<path d="M20 40C31.0457 40 40 31.0457 40 20C40 8.95431 31.0457 0 20 0C8.95431 0 0 8.95431 0 20C0 31.0457 8.95431 40 20 40Z" fill="#FD8469"/>
<path d="M25.8584 27.8739C25.8584 28.0943 25.8269 28.3463 25.6694 28.4723C25.2915 28.8502 24.6615 28.8817 24.2521 28.5038L24.0316 28.3148C24.3151 28.5668 24.3151 29.0077 24.0631 29.2912L23.3702 29.9841C23.1182 30.2361 22.6773 30.2361 22.4253 29.9841L21.9844 29.5432C22.2678 29.8266 22.2678 30.3306 21.9844 30.5825L21.6064 30.929C21.323 31.181 20.882 31.181 20.5985 30.929L20.2521 30.5825C20.4411 30.7715 20.4411 31.0865 20.2521 31.2754L19.8741 31.6534C19.6852 31.8424 19.3702 31.8424 19.1812 31.6534L18.2993 31.181C18.2993 31.181 18.2678 31.181 18.2363 31.1495L17.9214 30.2361C17.8584 30.0471 17.9214 29.8266 18.0474 29.7006C18.3308 29.4172 18.3308 29.0077 18.0474 28.7243L17.6379 28.3148C17.3859 28.0628 17.008 28.0313 16.7245 28.2518L16.4726 28.4723L16.819 28.1258C17.1655 27.8109 17.1655 27.2754 16.819 26.929L16.5041 26.614C16.1576 26.2676 15.6537 26.2676 15.3072 26.614L14.8978 27.0235C15.1812 26.74 15.1812 26.2676 14.8978 25.9841L14.3938 25.4802C14.1104 25.1967 13.6694 25.1967 13.3859 25.4487L12.1576 26.5195C12.3151 26.2991 12.2836 26.0156 12.1261 25.8266L11.7481 25.4487C11.5277 25.2282 11.2127 25.2282 10.9922 25.4487L10.9292 25.5117C10.6143 25.2282 10.3308 25.0077 10.1104 24.7873L13.0395 17.9841C13.8899 17.9841 15.4332 17.9211 16.63 17.1967C17.6379 16.5668 18.9607 16.8187 19.5907 17.7636C19.4647 17.8266 19.3387 17.8896 19.2127 17.9526C18.3938 18.488 17.3544 18.8345 16.5355 19.055C15.8741 19.2439 15.4017 19.8109 15.3387 20.5038C15.3072 21.1967 15.1182 21.9211 14.9607 22.3935C14.8348 22.7715 14.9922 23.1495 15.3387 23.3699C15.5277 23.4644 15.7167 23.5274 15.9371 23.5274C16.2206 23.5274 16.4726 23.4329 16.693 23.2439C17.4489 22.5825 18.5198 21.5432 18.4253 21.0707C18.4253 21.0707 19.4332 21.2282 19.6537 20.9762C19.6537 20.9762 24.63 24.8187 25.7954 27.1495C25.7639 27.1495 25.8584 27.5274 25.8584 27.8739Z" fill="#F9B54C"/>
<path d="M29.9851 24.945C29.0088 25.5749 25.9537 27.4962 25.7647 27.0867C24.5678 24.756 19.5914 20.945 19.5914 20.945C19.371 21.1969 18.3631 21.0395 18.3631 21.0395C18.4576 21.5119 17.3867 22.5828 16.6308 23.2127C16.4103 23.4017 16.1584 23.4962 15.8749 23.4962C15.6859 23.4962 15.4655 23.4332 15.2765 23.3387C14.93 23.1497 14.804 22.7403 14.8985 22.3623C15.056 21.8899 15.245 21.1655 15.2765 20.4725C15.308 19.7796 15.8119 19.2127 16.4733 19.0237C17.2922 18.8032 18.3316 18.4253 19.1505 17.9214C19.9379 17.4174 20.9143 17.3544 21.7647 17.7639C22.9615 18.3623 24.7883 18.8662 26.93 17.9529L29.9851 24.945Z" fill="#FFD05B"/>
<path d="M18.0478 29.6694C18.3313 29.3859 18.3313 28.9764 18.0478 28.693L17.6384 28.2835C17.3864 28.0316 17.0085 28.0316 16.725 28.2205L16.473 28.441L16.8195 28.0946C17.1344 27.7796 17.1344 27.2127 16.8195 26.8977L16.5045 26.5827C16.1896 26.2678 15.6541 26.2678 15.3077 26.5827L14.8982 26.9607C15.1817 26.6772 15.1817 26.2048 14.8982 25.9213L14.3943 25.4174C14.1108 25.1339 13.6699 25.1339 13.3864 25.3859L12.1266 26.5198C12.347 26.2993 12.347 25.9843 12.1266 25.7639L11.7486 25.3859C11.5281 25.1654 11.2132 25.1654 10.9927 25.3859L10.5518 25.8268C10.5833 27.2757 11.9061 26.9607 11.9061 26.9607C11.8116 28.7245 13.7959 28.63 13.7959 28.63C13.4494 30.5198 15.7801 30.2048 15.7801 30.2048C15.8431 31.6536 18.2683 31.1812 18.2683 31.1812L17.9533 30.2048C17.8588 30.0158 17.8903 29.7953 18.0478 29.6694Z" fill="#FFD05B"/>
<path d="M12.063 26.2046L12 26.2991C11.8425 26.488 11.559 26.488 11.4016 26.3306L11.1811 26.1416C10.9921 25.9841 10.9921 25.7006 11.1496 25.5432L11.2126 25.4487C11.3701 25.2597 11.6535 25.2597 11.811 25.4172L12.0315 25.6062C12.189 25.7321 12.2205 26.0156 12.063 26.2046Z" fill="white"/>
<path d="M14.8978 26.4883L14.7718 26.6143C14.5513 26.8663 14.2048 26.8978 13.9529 26.6773L13.6694 26.4253C13.4174 26.2049 13.3859 25.8584 13.6064 25.6064L13.7009 25.4804C13.9214 25.2285 14.2678 25.197 14.5198 25.4175L14.8033 25.6694C15.0552 25.8899 15.0867 26.2364 14.8978 26.4883Z" fill="white"/>
<path d="M16.8184 27.5904L16.7239 27.7164C16.5035 27.9683 16.157 27.9998 15.905 27.7793L15.6216 27.5274C15.3696 27.3069 15.3381 26.9605 15.5586 26.7085L15.6531 26.5825C15.8735 26.3305 16.22 26.299 16.472 26.5195L16.7554 26.7715C17.0074 26.9919 17.0389 27.3699 16.8184 27.5904Z" fill="white"/>
<path d="M17.9529 29.0391L17.8585 29.1336C17.701 29.3226 17.386 29.3541 17.197 29.1966L16.9451 29.0076C16.7561 28.8501 16.7246 28.5352 16.8821 28.3462L16.9766 28.2517C17.1341 28.0627 17.449 28.0312 17.638 28.1887L17.89 28.3777C18.0789 28.5352 18.1104 28.8501 17.9529 29.0391Z" fill="white"/>
<path d="M15.8741 22.2677L16.189 21.4803C16.2835 21.2283 16.1575 20.9448 15.8741 20.8504L15.2757 20.6929C15.2127 21.3228 15.0552 21.9527 14.8977 22.3937C14.8662 22.4881 14.8662 22.6141 14.8662 22.7086C15.2757 22.8346 15.7166 22.6456 15.8741 22.2677Z" fill="white"/>
<path d="M32.5358 25.1338L30.457 26.0472L26.709 17.2913L28.2838 16.5039L32.5358 25.1338Z" fill="white"/>
<path d="M39.9998 19.9999C39.9998 16.5038 39.1179 13.2282 37.5431 10.3936L27.6533 15.2439L33.3541 26.8345L39.6848 23.5274C39.8738 22.3621 39.9998 21.1967 39.9998 19.9999Z" fill="#324A5E"/>
<path d="M13.2916 17.2913L9.54358 26.0472L7.46484 25.1338L11.7168 16.5039L13.2916 17.2913Z" fill="white"/>
<path d="M0 19.9999C0 21.1967 0.125984 22.3621 0.314961 23.4959L6.64567 26.803L12.3465 15.2125L2.45669 10.3936C0.88189 13.2282 0 16.5038 0 19.9999Z" fill="#324A5E"/>
<path d="M34.4566 24.567C34.9784 24.567 35.4015 24.144 35.4015 23.6221C35.4015 23.1003 34.9784 22.6772 34.4566 22.6772C33.9348 22.6772 33.5117 23.1003 33.5117 23.6221C33.5117 24.144 33.9348 24.567 34.4566 24.567Z" fill="#2B3B4E"/>
<path d="M36.8502 23.2755C37.372 23.2755 37.795 22.8525 37.795 22.3306C37.795 21.8088 37.372 21.3857 36.8502 21.3857C36.3283 21.3857 35.9053 21.8088 35.9053 22.3306C35.9053 22.8525 36.3283 23.2755 36.8502 23.2755Z" fill="#2B3B4E"/>
<path d="M5.35406 24.882C5.87591 24.882 6.29894 24.4589 6.29894 23.9371C6.29894 23.4152 5.87591 22.9922 5.35406 22.9922C4.83222 22.9922 4.40918 23.4152 4.40918 23.9371C4.40918 24.4589 4.83222 24.882 5.35406 24.882Z" fill="#2B3B4E"/>
<path d="M2.96051 23.5904C3.48235 23.5904 3.90539 23.1674 3.90539 22.6456C3.90539 22.1237 3.48235 21.7007 2.96051 21.7007C2.43866 21.7007 2.01562 22.1237 2.01562 22.6456C2.01562 23.1674 2.43866 23.5904 2.96051 23.5904Z" fill="#2B3B4E"/>
</g>
<defs>
<clipPath id="clip0_497_7589">
<rect width="40" height="40" fill="white"/>
</clipPath>
</defs>
</svg>
