<svg width="61" height="60" viewBox="0 0 61 60" fill="none" xmlns="http://www.w3.org/2000/svg">
<g clip-path="url(#clip0_828_19345)">
<path d="M53.9375 7.8746C53.2928 7.45754 52.5556 7.20522 51.7905 7.13983C51.0255 7.07444 50.2561 7.19799 49.55 7.49961L26.4125 16.6121C25.8647 16.835 25.2789 16.9497 24.6875 16.9496H9.875C8.6318 16.9496 7.43951 17.4435 6.56044 18.3225C5.68136 19.2016 5.1875 20.3939 5.1875 21.6371V22.0121H0.5V33.2621H5.1875V33.7496C5.21688 34.9732 5.72367 36.1368 6.59959 36.9917C7.4755 37.8466 8.65105 38.325 9.875 38.3246L15.5 50.2496C15.8809 51.0526 16.4805 51.732 17.2301 52.2096C17.9797 52.6872 18.8487 52.9437 19.7375 52.9496H22.1C23.3367 52.9397 24.5194 52.4415 25.3903 51.5635C26.2613 50.6855 26.75 49.4988 26.75 48.2621V38.7746L49.55 47.8871C50.1108 48.1103 50.7089 48.2248 51.3125 48.2246C52.2489 48.2095 53.1608 47.9229 53.9375 47.3996C54.5543 46.9832 55.063 46.4258 55.4217 45.7737C55.7804 45.1216 55.9786 44.3935 56 43.6496V11.7371C55.9966 10.974 55.8069 10.2233 55.4475 9.55023C55.088 8.87711 54.5697 8.30192 53.9375 7.8746ZM22.0625 21.6371V33.7496H9.875V21.6371H22.0625ZM22.0625 48.2621H19.7L15.0875 38.3246H22.0625V48.2621ZM28.1375 34.3121C27.6923 34.0846 27.228 33.8964 26.75 33.7496V21.3746C27.2234 21.2769 27.6876 21.1389 28.1375 20.9621L51.3125 11.7371V43.5371L28.1375 34.3121ZM56.1125 22.9496V32.3246C57.3557 32.3246 58.548 31.8307 59.4271 30.9517C60.3061 30.0726 60.8 28.8803 60.8 27.6371C60.8 26.3939 60.3061 25.2016 59.4271 24.3225C58.548 23.4435 57.3557 22.9496 56.1125 22.9496Z" fill="#F6613F"/>
<path d="M53.9375 7.8746C53.2928 7.45754 52.5556 7.20522 51.7905 7.13983C51.0255 7.07444 50.2561 7.19799 49.55 7.49961L26.4125 16.6121C25.8647 16.835 25.2789 16.9497 24.6875 16.9496H9.875C8.6318 16.9496 7.43951 17.4435 6.56044 18.3225C5.68136 19.2016 5.1875 20.3939 5.1875 21.6371V22.0121H0.5V33.2621H5.1875V33.7496C5.21688 34.9732 5.72367 36.1368 6.59959 36.9917C7.4755 37.8466 8.65105 38.325 9.875 38.3246L15.5 50.2496C15.8809 51.0526 16.4805 51.732 17.2301 52.2096C17.9797 52.6872 18.8487 52.9437 19.7375 52.9496H22.1C23.3367 52.9397 24.5194 52.4415 25.3903 51.5635C26.2613 50.6855 26.75 49.4988 26.75 48.2621V38.7746L49.55 47.8871C50.1108 48.1103 50.7089 48.2248 51.3125 48.2246C52.2489 48.2095 53.1608 47.9229 53.9375 47.3996C54.5543 46.9832 55.063 46.4258 55.4217 45.7737C55.7804 45.1216 55.9786 44.3935 56 43.6496V11.7371C55.9966 10.974 55.8069 10.2233 55.4475 9.55023C55.088 8.87711 54.5697 8.30192 53.9375 7.8746ZM22.0625 21.6371V33.7496H9.875V21.6371H22.0625ZM22.0625 48.2621H19.7L15.0875 38.3246H22.0625V48.2621ZM28.1375 34.3121C27.6923 34.0846 27.228 33.8964 26.75 33.7496V21.3746C27.2234 21.2769 27.6876 21.1389 28.1375 20.9621L51.3125 11.7371V43.5371L28.1375 34.3121ZM56.1125 22.9496V32.3246C57.3557 32.3246 58.548 31.8307 59.4271 30.9517C60.3061 30.0726 60.8 28.8803 60.8 27.6371C60.8 26.3939 60.3061 25.2016 59.4271 24.3225C58.548 23.4435 57.3557 22.9496 56.1125 22.9496Z" stroke="#F6613F"/>
</g>
<defs>
<clipPath id="clip0_828_19345">
<rect width="60" height="60" fill="white" transform="translate(0.5)"/>
</clipPath>
</defs>
</svg>
