<svg width="25" height="24" viewBox="0 0 25 24" fill="none" xmlns="http://www.w3.org/2000/svg">
<g clip-path="url(#clip0_1912_8758)">
<mask id="path-1-inside-1_1912_8758" fill="white">
<path d="M5.45747 1.30636C5.30782 1.0438 5.3994 0.7096 5.66196 0.559953C6.2434 0.228675 6.7512 0.160206 7.17102 0.356249C7.66769 0.588289 7.89535 1.1015 8.04129 1.68787C8.82139 1.28429 9.68162 1.04398 10.5665 0.986029C11.5272 0.923094 12.4644 1.07073 13.3526 1.42469C13.6334 1.53664 13.7702 1.8549 13.6584 2.13565C13.5464 2.4164 13.2281 2.5534 12.9473 2.44139C12.2116 2.14812 11.4347 2.02595 10.6381 2.07813C9.79631 2.13328 8.98179 2.38715 8.26403 2.8159C8.33852 3.1923 8.4321 3.56486 8.56703 3.72035C8.76514 3.94862 8.74076 4.29425 8.51255 4.49236C8.40899 4.58229 8.28117 4.62637 8.15403 4.62637C8.00091 4.62637 7.84871 4.56253 7.74054 4.43787C7.36438 4.00456 7.23985 3.31501 7.11939 2.64813C7.04302 2.22522 6.90085 1.43801 6.70773 1.34777C6.66632 1.32825 6.50767 1.33762 6.20388 1.51073C5.94143 1.66069 5.60712 1.56893 5.45747 1.30636ZM11.9573 4.35901C12.1695 4.35901 12.3714 4.23484 12.4604 4.02755C12.5796 3.74984 12.4512 3.42799 12.1734 3.30874C11.5364 3.03535 10.8435 2.97309 10.1695 3.12888C9.87499 3.19692 9.69148 3.49086 9.75958 3.78535C9.82768 4.07984 10.1217 4.2636 10.4161 4.19525C10.8616 4.09218 11.32 4.13347 11.7417 4.31456C11.812 4.34478 11.8852 4.35901 11.9573 4.35901ZM13.0531 5.71951L13.1949 7.30986C13.1954 7.31722 13.1961 7.32451 13.1969 7.33175L13.2646 8.09117C13.29 8.37569 13.5288 8.58985 13.8091 8.58985C13.8254 8.58985 13.8418 8.58906 13.8584 8.58766C14.1594 8.56084 14.3817 8.295 14.3548 7.99388L14.3392 7.81881H14.9638C15.266 7.81881 15.511 7.57382 15.511 7.27155C15.511 6.96928 15.266 6.72428 14.9638 6.72428H14.2416L14.1434 5.62221C14.1035 5.17498 14.3206 4.83464 14.5098 4.62783C14.8811 4.22189 15.4545 3.97957 16.0436 3.97957H17.4195C18.0086 3.97957 18.5819 4.22188 18.9533 4.62777C19.1154 4.80497 19.298 5.08036 19.3218 5.43718H18.6139C18.3116 5.43718 18.0666 5.68217 18.0666 5.98444C18.0666 6.28672 18.3116 6.53171 18.6139 6.53171H19.2386L19.1082 7.99394C19.0814 8.29493 19.3036 8.56078 19.6047 8.58766C19.9059 8.6135 20.1716 8.39223 20.1984 8.09111L20.4098 5.71938C20.4685 5.06066 20.238 4.41069 19.7608 3.88897C19.1857 3.26034 18.3104 2.88504 17.4195 2.88504H17.4006C17.633 2.07387 18.1037 1.39709 18.7217 1.01175C18.9782 0.851828 19.0565 0.514226 18.8965 0.257863C18.7367 0.00125638 18.3991 -0.0770025 18.1426 0.083042C17.5613 0.445514 17.0773 0.985847 16.7316 1.63521C16.3857 0.985786 15.9018 0.445514 15.3205 0.083042C15.0639 -0.0768809 14.7264 0.00137797 14.5665 0.257863C14.4066 0.514287 14.4848 0.851888 14.7413 1.01175C15.3593 1.39709 15.8301 2.07387 16.0624 2.88504H16.0436C15.1526 2.88504 14.2774 3.2604 13.7022 3.88909C13.225 4.41075 12.9945 5.06078 13.0531 5.71951ZM10.3607 5.3017C10.1063 5.13837 9.76779 5.21225 9.60446 5.46673C9.44125 5.72109 9.51514 6.0596 9.76949 6.22287C10.1558 6.47078 10.4468 6.82729 10.611 7.25391C10.6947 7.4713 10.902 7.60477 11.1218 7.60477C11.1872 7.60477 11.2537 7.59298 11.3183 7.56805C11.6004 7.45944 11.741 7.14276 11.6324 6.86067C11.384 6.21527 10.9442 5.67615 10.3607 5.3017ZM5.1417 8.30497C5.15374 8.30497 5.16584 8.3046 5.178 8.30375C5.4796 8.28405 5.70806 8.02355 5.68829 7.72195C5.61399 6.58686 5.89668 5.48163 6.50585 4.52574C6.66826 4.2709 6.59335 3.93256 6.33844 3.77009C6.08366 3.60773 5.74533 3.68265 5.58279 3.93749C4.84763 5.09106 4.50638 6.42438 4.59607 7.7934C4.61511 8.0829 4.85572 8.30497 5.1417 8.30497ZM20.4109 9.6665V23.4528C20.4109 23.7551 20.1659 24.0001 19.8637 24.0001H5.1375C4.83523 24.0001 4.59024 23.7551 4.59024 23.4528V9.6665C4.59024 9.36423 4.83523 9.11924 5.1375 9.11924H5.30624C5.49857 9.11924 5.67674 9.22018 5.77561 9.38515C5.89863 9.59037 6.12556 9.71788 6.36787 9.71788C6.61019 9.71788 6.83712 9.59037 6.9602 9.38515C7.05907 9.22018 7.2373 9.11924 7.42957 9.11924H7.75404C7.94637 9.11924 8.1246 9.22018 8.22347 9.38521C8.34642 9.59037 8.57335 9.71788 8.81567 9.71788C9.05799 9.71788 9.28498 9.59031 9.40811 9.38503C9.50699 9.22012 9.68515 9.11924 9.87742 9.11924H10.215C10.4073 9.11924 10.5855 9.22018 10.6843 9.38515C10.8073 9.59037 11.0343 9.71788 11.2765 9.71788C11.5189 9.71788 11.7458 9.59037 11.8689 9.38515C11.9678 9.22018 12.146 9.11924 12.3383 9.11924H12.6627C12.855 9.11924 13.0333 9.22018 13.1321 9.38515C13.2551 9.59037 13.4821 9.71788 13.7243 9.71788C13.9667 9.71788 14.1936 9.59037 14.3167 9.38515C14.4155 9.22018 14.5938 9.11924 14.7861 9.11924H15.1236C15.3159 9.11924 15.4941 9.22011 15.593 9.38509C15.7161 9.59037 15.9431 9.71788 16.1854 9.71788C16.4277 9.71788 16.6546 9.59037 16.7776 9.38521C16.8765 9.22018 17.0547 9.11924 17.247 9.11924H17.5715C17.7639 9.11924 17.9421 9.22018 18.041 9.38515C18.164 9.59037 18.3909 9.71788 18.6332 9.71788C18.8755 9.71788 19.1025 9.59037 19.2256 9.38509C19.3244 9.22018 19.5026 9.11924 19.6949 9.11924H19.8637C20.1659 9.11924 20.4109 9.36423 20.4109 9.6665ZM19.3164 10.676C19.1025 10.7646 18.8706 10.8124 18.6332 10.8124C18.1745 10.8124 17.7363 10.6338 17.4093 10.3278C17.0823 10.6338 16.6442 10.8124 16.1854 10.8124C15.7237 10.8124 15.2827 10.6314 14.9549 10.3217C14.6273 10.6315 14.1863 10.8124 13.7245 10.8124C13.2658 10.8124 12.8276 10.6338 12.5006 10.3278C12.1736 10.6338 11.7354 10.8124 11.2768 10.8124C10.815 10.8124 10.374 10.6314 10.0463 10.3217C9.71854 10.6315 9.27756 10.8124 8.81585 10.8124C8.35712 10.8124 7.91895 10.6338 7.59192 10.3278C7.2649 10.6338 6.82673 10.8124 6.36806 10.8124C6.13067 10.8124 5.89869 10.7646 5.68483 10.676V22.9056H19.3165L19.3164 10.676ZM8.13901 5.37625C7.85017 5.28686 7.5437 5.44825 7.4542 5.73696C7.24934 6.39757 7.26052 7.09326 7.48661 7.7487C7.5648 7.97539 7.7769 8.11768 8.00395 8.11768C8.06312 8.11768 8.12332 8.10801 8.18242 8.08758C8.46816 7.98907 8.61987 7.67756 8.52136 7.39183C8.37172 6.95797 8.36424 6.49784 8.49965 6.06106C8.5891 5.77241 8.42766 5.46582 8.13901 5.37625ZM15.2721 13.8145C16.1017 14.7159 16.239 16.2464 15.6137 17.623C14.9919 18.9924 13.7591 19.8957 12.5408 19.8723C12.5103 19.8735 12.4795 19.874 12.449 19.874C11.2608 19.874 10.0563 19.0079 9.42325 17.6853C8.77049 16.3213 8.87702 14.7883 9.68837 13.8707C9.78646 13.7597 9.92528 13.6932 10.0732 13.6865C10.9357 13.6473 11.8156 14.0711 12.4889 14.8022C13.1515 14.0494 14.0222 13.6157 14.8835 13.6381C15.0316 13.6418 15.1718 13.7056 15.2721 13.8145ZM12.2231 16.3453C11.8118 15.4859 11.0742 14.8793 10.3649 14.7898C9.98955 15.3984 9.99928 16.3534 10.4106 17.2127C10.8219 18.0721 11.5596 18.6787 12.2689 18.7681C12.6442 18.1596 12.6344 17.2047 12.2231 16.3453ZM14.6142 14.7471C14.0884 14.8242 13.5473 15.1872 13.1418 15.7354C13.1654 15.7806 13.1883 15.8264 13.2104 15.8728C13.6219 16.7325 13.7318 17.6593 13.5535 18.4569C13.9823 18.1742 14.3667 17.7221 14.6172 17.1704C15.0111 16.3031 15.0017 15.3481 14.6142 14.7471Z"/>
</mask>
<path d="M5.45747 1.30636C5.30782 1.0438 5.3994 0.7096 5.66196 0.559953C6.2434 0.228675 6.7512 0.160206 7.17102 0.356249C7.66769 0.588289 7.89535 1.1015 8.04129 1.68787C8.82139 1.28429 9.68162 1.04398 10.5665 0.986029C11.5272 0.923094 12.4644 1.07073 13.3526 1.42469C13.6334 1.53664 13.7702 1.8549 13.6584 2.13565C13.5464 2.4164 13.2281 2.5534 12.9473 2.44139C12.2116 2.14812 11.4347 2.02595 10.6381 2.07813C9.79631 2.13328 8.98179 2.38715 8.26403 2.8159C8.33852 3.1923 8.4321 3.56486 8.56703 3.72035C8.76514 3.94862 8.74076 4.29425 8.51255 4.49236C8.40899 4.58229 8.28117 4.62637 8.15403 4.62637C8.00091 4.62637 7.84871 4.56253 7.74054 4.43787C7.36438 4.00456 7.23985 3.31501 7.11939 2.64813C7.04302 2.22522 6.90085 1.43801 6.70773 1.34777C6.66632 1.32825 6.50767 1.33762 6.20388 1.51073C5.94143 1.66069 5.60712 1.56893 5.45747 1.30636ZM11.9573 4.35901C12.1695 4.35901 12.3714 4.23484 12.4604 4.02755C12.5796 3.74984 12.4512 3.42799 12.1734 3.30874C11.5364 3.03535 10.8435 2.97309 10.1695 3.12888C9.87499 3.19692 9.69148 3.49086 9.75958 3.78535C9.82768 4.07984 10.1217 4.2636 10.4161 4.19525C10.8616 4.09218 11.32 4.13347 11.7417 4.31456C11.812 4.34478 11.8852 4.35901 11.9573 4.35901ZM13.0531 5.71951L13.1949 7.30986C13.1954 7.31722 13.1961 7.32451 13.1969 7.33175L13.2646 8.09117C13.29 8.37569 13.5288 8.58985 13.8091 8.58985C13.8254 8.58985 13.8418 8.58906 13.8584 8.58766C14.1594 8.56084 14.3817 8.295 14.3548 7.99388L14.3392 7.81881H14.9638C15.266 7.81881 15.511 7.57382 15.511 7.27155C15.511 6.96928 15.266 6.72428 14.9638 6.72428H14.2416L14.1434 5.62221C14.1035 5.17498 14.3206 4.83464 14.5098 4.62783C14.8811 4.22189 15.4545 3.97957 16.0436 3.97957H17.4195C18.0086 3.97957 18.5819 4.22188 18.9533 4.62777C19.1154 4.80497 19.298 5.08036 19.3218 5.43718H18.6139C18.3116 5.43718 18.0666 5.68217 18.0666 5.98444C18.0666 6.28672 18.3116 6.53171 18.6139 6.53171H19.2386L19.1082 7.99394C19.0814 8.29493 19.3036 8.56078 19.6047 8.58766C19.9059 8.6135 20.1716 8.39223 20.1984 8.09111L20.4098 5.71938C20.4685 5.06066 20.238 4.41069 19.7608 3.88897C19.1857 3.26034 18.3104 2.88504 17.4195 2.88504H17.4006C17.633 2.07387 18.1037 1.39709 18.7217 1.01175C18.9782 0.851828 19.0565 0.514226 18.8965 0.257863C18.7367 0.00125638 18.3991 -0.0770025 18.1426 0.083042C17.5613 0.445514 17.0773 0.985847 16.7316 1.63521C16.3857 0.985786 15.9018 0.445514 15.3205 0.083042C15.0639 -0.0768809 14.7264 0.00137797 14.5665 0.257863C14.4066 0.514287 14.4848 0.851888 14.7413 1.01175C15.3593 1.39709 15.8301 2.07387 16.0624 2.88504H16.0436C15.1526 2.88504 14.2774 3.2604 13.7022 3.88909C13.225 4.41075 12.9945 5.06078 13.0531 5.71951ZM10.3607 5.3017C10.1063 5.13837 9.76779 5.21225 9.60446 5.46673C9.44125 5.72109 9.51514 6.0596 9.76949 6.22287C10.1558 6.47078 10.4468 6.82729 10.611 7.25391C10.6947 7.4713 10.902 7.60477 11.1218 7.60477C11.1872 7.60477 11.2537 7.59298 11.3183 7.56805C11.6004 7.45944 11.741 7.14276 11.6324 6.86067C11.384 6.21527 10.9442 5.67615 10.3607 5.3017ZM5.1417 8.30497C5.15374 8.30497 5.16584 8.3046 5.178 8.30375C5.4796 8.28405 5.70806 8.02355 5.68829 7.72195C5.61399 6.58686 5.89668 5.48163 6.50585 4.52574C6.66826 4.2709 6.59335 3.93256 6.33844 3.77009C6.08366 3.60773 5.74533 3.68265 5.58279 3.93749C4.84763 5.09106 4.50638 6.42438 4.59607 7.7934C4.61511 8.0829 4.85572 8.30497 5.1417 8.30497ZM20.4109 9.6665V23.4528C20.4109 23.7551 20.1659 24.0001 19.8637 24.0001H5.1375C4.83523 24.0001 4.59024 23.7551 4.59024 23.4528V9.6665C4.59024 9.36423 4.83523 9.11924 5.1375 9.11924H5.30624C5.49857 9.11924 5.67674 9.22018 5.77561 9.38515C5.89863 9.59037 6.12556 9.71788 6.36787 9.71788C6.61019 9.71788 6.83712 9.59037 6.9602 9.38515C7.05907 9.22018 7.2373 9.11924 7.42957 9.11924H7.75404C7.94637 9.11924 8.1246 9.22018 8.22347 9.38521C8.34642 9.59037 8.57335 9.71788 8.81567 9.71788C9.05799 9.71788 9.28498 9.59031 9.40811 9.38503C9.50699 9.22012 9.68515 9.11924 9.87742 9.11924H10.215C10.4073 9.11924 10.5855 9.22018 10.6843 9.38515C10.8073 9.59037 11.0343 9.71788 11.2765 9.71788C11.5189 9.71788 11.7458 9.59037 11.8689 9.38515C11.9678 9.22018 12.146 9.11924 12.3383 9.11924H12.6627C12.855 9.11924 13.0333 9.22018 13.1321 9.38515C13.2551 9.59037 13.4821 9.71788 13.7243 9.71788C13.9667 9.71788 14.1936 9.59037 14.3167 9.38515C14.4155 9.22018 14.5938 9.11924 14.7861 9.11924H15.1236C15.3159 9.11924 15.4941 9.22011 15.593 9.38509C15.7161 9.59037 15.9431 9.71788 16.1854 9.71788C16.4277 9.71788 16.6546 9.59037 16.7776 9.38521C16.8765 9.22018 17.0547 9.11924 17.247 9.11924H17.5715C17.7639 9.11924 17.9421 9.22018 18.041 9.38515C18.164 9.59037 18.3909 9.71788 18.6332 9.71788C18.8755 9.71788 19.1025 9.59037 19.2256 9.38509C19.3244 9.22018 19.5026 9.11924 19.6949 9.11924H19.8637C20.1659 9.11924 20.4109 9.36423 20.4109 9.6665ZM19.3164 10.676C19.1025 10.7646 18.8706 10.8124 18.6332 10.8124C18.1745 10.8124 17.7363 10.6338 17.4093 10.3278C17.0823 10.6338 16.6442 10.8124 16.1854 10.8124C15.7237 10.8124 15.2827 10.6314 14.9549 10.3217C14.6273 10.6315 14.1863 10.8124 13.7245 10.8124C13.2658 10.8124 12.8276 10.6338 12.5006 10.3278C12.1736 10.6338 11.7354 10.8124 11.2768 10.8124C10.815 10.8124 10.374 10.6314 10.0463 10.3217C9.71854 10.6315 9.27756 10.8124 8.81585 10.8124C8.35712 10.8124 7.91895 10.6338 7.59192 10.3278C7.2649 10.6338 6.82673 10.8124 6.36806 10.8124C6.13067 10.8124 5.89869 10.7646 5.68483 10.676V22.9056H19.3165L19.3164 10.676ZM8.13901 5.37625C7.85017 5.28686 7.5437 5.44825 7.4542 5.73696C7.24934 6.39757 7.26052 7.09326 7.48661 7.7487C7.5648 7.97539 7.7769 8.11768 8.00395 8.11768C8.06312 8.11768 8.12332 8.10801 8.18242 8.08758C8.46816 7.98907 8.61987 7.67756 8.52136 7.39183C8.37172 6.95797 8.36424 6.49784 8.49965 6.06106C8.5891 5.77241 8.42766 5.46582 8.13901 5.37625ZM15.2721 13.8145C16.1017 14.7159 16.239 16.2464 15.6137 17.623C14.9919 18.9924 13.7591 19.8957 12.5408 19.8723C12.5103 19.8735 12.4795 19.874 12.449 19.874C11.2608 19.874 10.0563 19.0079 9.42325 17.6853C8.77049 16.3213 8.87702 14.7883 9.68837 13.8707C9.78646 13.7597 9.92528 13.6932 10.0732 13.6865C10.9357 13.6473 11.8156 14.0711 12.4889 14.8022C13.1515 14.0494 14.0222 13.6157 14.8835 13.6381C15.0316 13.6418 15.1718 13.7056 15.2721 13.8145ZM12.2231 16.3453C11.8118 15.4859 11.0742 14.8793 10.3649 14.7898C9.98955 15.3984 9.99928 16.3534 10.4106 17.2127C10.8219 18.0721 11.5596 18.6787 12.2689 18.7681C12.6442 18.1596 12.6344 17.2047 12.2231 16.3453ZM14.6142 14.7471C14.0884 14.8242 13.5473 15.1872 13.1418 15.7354C13.1654 15.7806 13.1883 15.8264 13.2104 15.8728C13.6219 16.7325 13.7318 17.6593 13.5535 18.4569C13.9823 18.1742 14.3667 17.7221 14.6172 17.1704C15.0111 16.3031 15.0017 15.3481 14.6142 14.7471Z" fill="#F6613F" stroke="#F6613F" stroke-width="0.48" mask="url(#path-1-inside-1_1912_8758)"/>
</g>
<defs>
<clipPath id="clip0_1912_8758">
<rect width="24" height="24" fill="white" transform="translate(0.5)"/>
</clipPath>
</defs>
</svg>
