<svg width="24" height="24" viewBox="0 0 24 24" fill="none" xmlns="http://www.w3.org/2000/svg">
<path d="M4.79 18H4C3.46957 18 2.96086 17.7893 2.58579 17.4142C2.21071 17.0391 2 16.5304 2 16V6.48999C2 5.95956 2.21071 5.45085 2.58579 5.07578C2.96086 4.7007 3.46957 4.48999 4 4.48999H13.78C14.3104 4.48999 14.8191 4.7007 15.1942 5.07578C15.5693 5.45085 15.78 5.95956 15.78 6.48999V13.4" stroke="#7D7C7C" stroke-width="1.5" stroke-linecap="round" stroke-linejoin="round"/>
<path d="M15.75 8.18994H18.53C18.709 8.1895 18.8857 8.22979 19.0469 8.30775C19.208 8.38572 19.3493 8.49931 19.46 8.63995L21.72 11.6399C21.951 11.9491 22.0771 12.324 22.08 12.7099V17.7099C22.08 17.763 22.0589 17.8139 22.0214 17.8514C21.9839 17.8889 21.933 17.9099 21.88 17.9099H18.83" stroke="#7D7C7C" stroke-width="1.5" stroke-linecap="round" stroke-linejoin="round"/>
<path d="M16.5095 20.0601C17.7466 20.0601 18.7495 19.0572 18.7495 17.8201C18.7495 16.583 17.7466 15.5801 16.5095 15.5801C15.2724 15.5801 14.2695 16.583 14.2695 17.8201C14.2695 19.0572 15.2724 20.0601 16.5095 20.0601Z" stroke="#7D7C7C" stroke-width="1.5" stroke-linecap="round" stroke-linejoin="round"/>
<path d="M7.02027 20.0601C8.25739 20.0601 9.26027 19.0572 9.26027 17.8201C9.26027 16.583 8.25739 15.5801 7.02027 15.5801C5.78316 15.5801 4.78027 16.583 4.78027 17.8201C4.78027 19.0572 5.78316 20.0601 7.02027 20.0601Z" stroke="#7D7C7C" stroke-width="1.5" stroke-linecap="round" stroke-linejoin="round"/>
<path d="M14.2804 17.95H9.15039" stroke="#7D7C7C" stroke-width="1.5" stroke-linecap="round" stroke-linejoin="round"/>
</svg>
