<svg width="106" height="37" viewBox="0 0 106 37" fill="none" xmlns="http://www.w3.org/2000/svg">
<g clip-path="url(#clip0_1154_21872)">
<path d="M16.5998 18.2438H21.1161V24.587C19.7069 25.0397 17.9277 25.288 16.0781 25.288C8.5824 25.288 4.17689 18.8691 4.17689 12.6002C4.17689 6.4518 8.16176 2.13904 13.7212 2.13904C17.2391 2.13904 19.286 3.33082 21.1174 4.99093V7.06046L24.5511 3.62667C22.3792 2.15725 19.2343 0.760742 14.7391 0.760742C4.87095 0.760742 0.360352 7.82056 0.360352 13.6224C0.360352 21.8807 6.37546 26.8556 13.9344 26.8556C17.5996 26.8556 20.8538 26.2962 24.6129 25.2502V18.6967C24.6129 18.3616 24.7602 18.1316 24.9803 17.9297L26.1665 16.7435H18.1114L16.5998 18.2438Z" fill="url(#paint0_linear_1154_21872)"/>
<path d="M36.8311 9.62402C31.1511 9.62402 27.6318 13.7744 27.6318 18.1799C27.6318 21.9825 30.4671 26.4972 36.2114 26.4972C41.7372 26.4972 45.1275 22.3386 45.1275 17.856C45.1275 13.6805 41.8143 9.62556 36.8311 9.62556V9.62402ZM35.8887 10.8341C39.8933 10.8341 41.6767 16.0514 41.6767 19.7726C41.6767 25.3068 37.5251 25.4161 37.0287 25.4161C35.1288 25.4161 33.801 24.2679 32.807 22.7619C31.9321 21.3739 31.0768 18.7953 31.0768 16.2757C31.0768 13.7659 31.8983 12.5405 33.1912 11.6389C34.2484 10.9631 35.2383 10.8341 35.8874 10.8341H35.8887Z" fill="url(#paint1_linear_1154_21872)"/>
<path d="M73.961 9.62231C69.0001 9.62231 66.3165 12.7631 66.3165 16.2698C66.3165 18.9394 68.2289 21.9512 72.1745 21.9512H73.1727C73.1727 21.9512 72.9009 22.6116 72.8995 23.2496C72.8995 24.1905 73.2373 24.7189 73.9551 25.5322C67.166 25.9458 64.4375 28.6842 64.4375 31.6272C64.4375 34.2045 66.9054 36.7409 72.0917 36.7409C78.2315 36.7409 81.4115 33.3322 81.4115 29.9869C81.4115 27.6285 80.2366 26.3357 77.2613 24.1064C76.3864 23.4263 76.2167 22.9932 76.2167 22.4843C76.2167 21.7552 76.6527 21.2727 76.8126 21.0905C77.0944 20.7933 77.5824 20.454 77.7646 20.2913C78.7643 19.4445 80.1763 18.1911 80.1763 15.6896C80.1763 13.9734 79.4625 12.497 77.8361 11.1145H79.8216L81.3134 9.62262H73.961V9.62231ZM72.5925 10.7384C73.4927 10.7384 74.2441 11.0567 75.0377 11.7171C75.9181 12.5107 77.3247 14.6433 77.3247 17.2821C77.3247 20.1298 75.1121 20.9094 73.9147 20.9094C73.3286 20.9094 72.6263 20.7454 72.0317 20.3387C70.7109 19.4822 69.3998 17.2022 69.3998 14.4891C69.3998 12.041 70.858 10.7384 72.5925 10.7384ZM74.5569 26.6132C74.9353 26.6132 75.2075 26.6442 75.2075 26.6442C75.2075 26.6442 76.1006 27.2822 76.7245 27.7588C78.1771 28.9071 79.0828 29.7848 79.0828 31.3483C79.0828 33.4978 77.0889 35.1831 73.8598 35.1831C70.3154 35.1831 67.6064 33.5328 67.6064 30.8381C67.6064 28.6058 69.4628 26.6846 74.5569 26.6132Z" fill="url(#paint2_linear_1154_21872)"/>
<path d="M82.3872 26.0046H89.1973L90.2347 24.9672L88.2816 24.7232C87.7558 24.6587 87.4432 24.2044 87.4432 23.7641V3.19363C87.4432 2.78842 87.6311 2.5809 87.7684 2.44896L88.9968 1.2207H83.1892L81.6777 2.73219H83.9351V24.0402C83.9351 24.3431 83.8398 24.5492 83.6351 24.7609L82.3872 26.0046Z" fill="url(#paint3_linear_1154_21872)"/>
<path d="M98.4251 9.62402C94.6225 9.62402 90.583 12.5222 90.583 17.7255C90.583 22.0228 93.4812 26.4972 98.8962 26.4972C100.246 26.4972 101.358 26.3234 102.4 25.8453C103.518 25.3307 104.593 24.4951 105.378 23.4449C103.896 24.1922 102.688 24.683 101.082 24.683C98.0309 24.683 95.0893 22.4816 94.0601 18.4351L104.838 14.0787C104.216 11.8591 102.46 9.62402 98.4265 9.62402H98.4251ZM97.7211 10.8144C99.7613 10.8144 101.236 12.4928 101.236 13.8066C101.236 14.2314 100.97 14.4558 100.443 14.6633L93.8175 17.3427C93.8175 17.3427 93.6382 16.5085 93.6382 15.6069C93.6382 11.8254 96.3724 10.8144 97.7211 10.8144Z" fill="url(#paint4_linear_1154_21872)"/>
<path d="M56.1046 9.62402C50.4246 9.62402 46.9053 13.7744 46.9053 18.1799C46.9053 21.9825 49.7405 26.4972 55.4848 26.4972C61.0106 26.4972 64.4009 22.3386 64.4009 17.856C64.4009 13.6805 61.0877 9.62556 56.1046 9.62556V9.62402ZM55.1622 10.8341C59.1668 10.8341 60.9502 16.0514 60.9502 19.7726C60.9502 25.3068 56.7985 25.4161 56.3022 25.4161C54.4023 25.4161 53.0745 24.2679 52.0805 22.7619C51.2056 21.3739 50.3503 18.7953 50.3503 16.2757C50.3503 13.7659 51.1718 12.5405 52.4647 11.6389C53.5219 10.9631 54.5118 10.8341 55.1608 10.8341H55.1622Z" fill="url(#paint5_linear_1154_21872)"/>
</g>
<defs>
<linearGradient id="paint0_linear_1154_21872" x1="13.1993" y1="0.686875" x2="13.1993" y2="26.8542" gradientUnits="userSpaceOnUse">
<stop stop-color="#196EEF"/>
<stop offset="0.5" stop-color="#186DEE"/>
<stop offset="1" stop-color="#1065E7"/>
</linearGradient>
<linearGradient id="paint1_linear_1154_21872" x1="36.316" y1="9.58406" x2="36.316" y2="26.5043" gradientUnits="userSpaceOnUse">
<stop stop-color="#DE5744"/>
<stop offset="0.5" stop-color="#DB4632"/>
<stop offset="1" stop-color="#D13D29"/>
</linearGradient>
<linearGradient id="paint2_linear_1154_21872" x1="72.8622" y1="9.58375" x2="72.8622" y2="36.7512" gradientUnits="userSpaceOnUse">
<stop stop-color="#1A6FEF"/>
<stop offset="0.25" stop-color="#1E72EF"/>
<stop offset="0.5" stop-color="#166BEC"/>
<stop offset="0.75" stop-color="#1267E9"/>
<stop offset="1" stop-color="#1063E5" stop-opacity="0.87"/>
</linearGradient>
<linearGradient id="paint3_linear_1154_21872" x1="85.8941" y1="1.16237" x2="85.8941" y2="26.0284" gradientUnits="userSpaceOnUse">
<stop stop-color="#0AA561"/>
<stop offset="0.5" stop-color="#009B58"/>
<stop offset="1" stop-color="#00914B"/>
</linearGradient>
<linearGradient id="paint4_linear_1154_21872" x1="97.9188" y1="9.58406" x2="97.9188" y2="26.4577" gradientUnits="userSpaceOnUse">
<stop stop-color="#DE5644"/>
<stop offset="0.5" stop-color="#DA4531"/>
<stop offset="1" stop-color="#CE3A28"/>
</linearGradient>
<linearGradient id="paint5_linear_1154_21872" x1="55.59" y1="9.6208" x2="55.59" y2="26.4708" gradientUnits="userSpaceOnUse">
<stop stop-color="#FFC01A"/>
<stop offset="0.5" stop-color="#FFBA03"/>
<stop offset="1" stop-color="#FFB300"/>
</linearGradient>
<clipPath id="clip0_1154_21872">
<rect width="105.017" height="36" fill="white" transform="translate(0.360352 0.750732)"/>
</clipPath>
</defs>
</svg>
