<svg width="24" height="24" viewBox="0 0 24 24" fill="none" xmlns="http://www.w3.org/2000/svg">
<g clip-path="url(#clip0_1912_14424)">
<path d="M4.95356 1.30636C4.80392 1.0438 4.89549 0.7096 5.15806 0.559953C5.7395 0.228675 6.2473 0.160206 6.66711 0.356249C7.16378 0.588289 7.39145 1.1015 7.53738 1.68787C8.31748 1.28429 9.17772 1.04398 10.0626 0.986029C11.0233 0.923094 11.9605 1.07073 12.8487 1.42469C13.1295 1.53664 13.2663 1.8549 13.1544 2.13565C13.0425 2.4164 12.7242 2.5534 12.4434 2.44139C11.7077 2.14812 10.9308 2.02595 10.1342 2.07813C9.2924 2.13328 8.47789 2.38715 7.76012 2.8159C7.83461 3.1923 7.92819 3.56486 8.06312 3.72035C8.26123 3.94862 8.23685 4.29425 8.00864 4.49236C7.90508 4.58229 7.77727 4.62637 7.65012 4.62637C7.49701 4.62637 7.34481 4.56253 7.23663 4.43787C6.86048 4.00456 6.73594 3.31501 6.61548 2.64813C6.53911 2.22522 6.39694 1.43801 6.20382 1.34777C6.16241 1.32825 6.00376 1.33762 5.69997 1.51073C5.43753 1.66069 5.10321 1.56893 4.95356 1.30636ZM11.4534 4.35901C11.6656 4.35901 11.8675 4.23484 11.9565 4.02755C12.0757 3.74984 11.9472 3.42799 11.6695 3.30874C11.0325 3.03535 10.3396 2.97309 9.66558 3.12888C9.37109 3.19692 9.18757 3.49086 9.25567 3.78535C9.32378 4.07984 9.61784 4.2636 9.91215 4.19525C10.3577 4.09218 10.816 4.13347 11.2377 4.31456C11.3081 4.34478 11.3813 4.35901 11.4534 4.35901ZM12.5492 5.71951L12.691 7.30986C12.6915 7.31722 12.6922 7.32451 12.693 7.33175L12.7607 8.09117C12.7861 8.37569 13.0249 8.58985 13.3052 8.58985C13.3215 8.58985 13.3379 8.58906 13.3544 8.58766C13.6555 8.56084 13.8778 8.295 13.8509 7.99388L13.8353 7.81881H14.4599C14.7621 7.81881 15.0071 7.57382 15.0071 7.27155C15.0071 6.96928 14.7621 6.72428 14.4599 6.72428H13.7377L13.6394 5.62221C13.5996 5.17498 13.8167 4.83464 14.0059 4.62783C14.3772 4.22189 14.9506 3.97957 15.5397 3.97957H16.9156C17.5047 3.97957 18.078 4.22188 18.4494 4.62777C18.6115 4.80497 18.7941 5.08036 18.8179 5.43718H18.11C17.8077 5.43718 17.5627 5.68217 17.5627 5.98444C17.5627 6.28672 17.8077 6.53171 18.11 6.53171H18.7347L18.6043 7.99394C18.5775 8.29493 18.7997 8.56078 19.1008 8.58766C19.402 8.6135 19.6677 8.39223 19.6945 8.09111L19.9059 5.71938C19.9646 5.06066 19.7341 4.41069 19.2569 3.88897C18.6818 3.26034 17.8065 2.88504 16.9156 2.88504H16.8967C17.1291 2.07387 17.5998 1.39709 18.2178 1.01175C18.4743 0.851828 18.5526 0.514226 18.3926 0.257863C18.2328 0.00125638 17.8952 -0.0770025 17.6387 0.083042C17.0574 0.445514 16.5734 0.985847 16.2276 1.63521C15.8818 0.985786 15.3979 0.445514 14.8166 0.083042C14.56 -0.0768809 14.2225 0.00137797 14.0626 0.257863C13.9027 0.514287 13.9809 0.851888 14.2374 1.01175C14.8554 1.39709 15.3262 2.07387 15.5585 2.88504H15.5397C14.6487 2.88504 13.7735 3.2604 13.1983 3.88909C12.7211 4.41075 12.4906 5.06078 12.5492 5.71951ZM9.85675 5.3017C9.6024 5.13837 9.26388 5.21225 9.10055 5.46673C8.93735 5.72109 9.01123 6.0596 9.26559 6.22287C9.65189 6.47078 9.94286 6.82729 10.1071 7.25391C10.1908 7.4713 10.3981 7.60477 10.6179 7.60477C10.6833 7.60477 10.7498 7.59298 10.8144 7.56805C11.0965 7.45944 11.2371 7.14276 11.1285 6.86067C10.8801 6.21527 10.4403 5.67615 9.85675 5.3017ZM4.63779 8.30497C4.64983 8.30497 4.66193 8.3046 4.67409 8.30375C4.9757 8.28405 5.20415 8.02355 5.18439 7.72195C5.11008 6.58686 5.39277 5.48163 6.00194 4.52574C6.16436 4.2709 6.08944 3.93256 5.83454 3.77009C5.57976 3.60773 5.24142 3.68265 5.07889 3.93749C4.34373 5.09106 4.00248 6.42438 4.09217 7.7934C4.1112 8.0829 4.35181 8.30497 4.63779 8.30497ZM19.907 9.6665V23.4528C19.907 23.7551 19.662 24.0001 19.3598 24.0001H4.6336C4.33132 24.0001 4.08633 23.7551 4.08633 23.4528V9.6665C4.08633 9.36423 4.33132 9.11924 4.6336 9.11924H4.80233C4.99467 9.11924 5.17283 9.22018 5.27171 9.38515C5.39472 9.59037 5.62165 9.71788 5.86397 9.71788C6.10629 9.71788 6.33322 9.59037 6.45629 9.38515C6.55516 9.22018 6.73339 9.11924 6.92566 9.11924H7.25013C7.44246 9.11924 7.62069 9.22018 7.71956 9.38521C7.84251 9.59037 8.06945 9.71788 8.31176 9.71788C8.55408 9.71788 8.78107 9.59031 8.90421 9.38503C9.00308 9.22012 9.18125 9.11924 9.37352 9.11924H9.71106C9.90339 9.11924 10.0816 9.22018 10.1804 9.38515C10.3034 9.59037 10.5304 9.71788 10.7726 9.71788C11.0149 9.71788 11.2419 9.59037 11.365 9.38515C11.4639 9.22018 11.6421 9.11924 11.8344 9.11924H12.1588C12.3511 9.11924 12.5294 9.22018 12.6282 9.38515C12.7512 9.59037 12.9782 9.71788 13.2204 9.71788C13.4628 9.71788 13.6897 9.59037 13.8127 9.38515C13.9116 9.22018 14.0898 9.11924 14.2822 9.11924H14.6197C14.812 9.11924 14.9902 9.22011 15.0891 9.38509C15.2122 9.59037 15.4392 9.71788 15.6815 9.71788C15.9238 9.71788 16.1507 9.59037 16.2737 9.38521C16.3726 9.22018 16.5508 9.11924 16.7431 9.11924H17.0676C17.26 9.11924 17.4382 9.22018 17.5371 9.38515C17.6601 9.59037 17.887 9.71788 18.1293 9.71788C18.3716 9.71788 18.5986 9.59037 18.7217 9.38509C18.8205 9.22018 18.9987 9.11924 19.191 9.11924H19.3598C19.662 9.11924 19.907 9.36423 19.907 9.6665ZM18.8125 10.676C18.5986 10.7646 18.3667 10.8124 18.1293 10.8124C17.6706 10.8124 17.2324 10.6338 16.9054 10.3278C16.5784 10.6338 16.1403 10.8124 15.6815 10.8124C15.2198 10.8124 14.7788 10.6314 14.451 10.3217C14.1234 10.6315 13.6824 10.8124 13.2206 10.8124C12.7619 10.8124 12.3237 10.6338 11.9967 10.3278C11.6697 10.6338 11.2315 10.8124 10.7729 10.8124C10.3111 10.8124 9.87007 10.6314 9.54238 10.3217C9.21463 10.6315 8.77365 10.8124 8.31195 10.8124C7.85322 10.8124 7.41504 10.6338 7.08802 10.3278C6.761 10.6338 6.32282 10.8124 5.86415 10.8124C5.62676 10.8124 5.39478 10.7646 5.18092 10.676V22.9056H18.8126L18.8125 10.676ZM7.6351 5.37625C7.34627 5.28686 7.0398 5.44825 6.95029 5.73696C6.74543 6.39757 6.75662 7.09326 6.9827 7.7487C7.0609 7.97539 7.27299 8.11768 7.50005 8.11768C7.55921 8.11768 7.61941 8.10801 7.67852 8.08758C7.96425 7.98907 8.11596 7.67756 8.01746 7.39183C7.86781 6.95797 7.86033 6.49784 7.99575 6.06106C8.0852 5.77241 7.92375 5.46582 7.6351 5.37625ZM14.7682 13.8145C15.5978 14.7159 15.735 16.2464 15.1098 17.623C14.488 18.9924 13.2552 19.8957 12.0369 19.8723C12.0064 19.8735 11.9756 19.874 11.9451 19.874C10.7569 19.874 9.55241 19.0079 8.91935 17.6853C8.26658 16.3213 8.37312 14.7883 9.18447 13.8707C9.28255 13.7597 9.42137 13.6932 9.56932 13.6865C10.4317 13.6473 11.3117 14.0711 11.985 14.8022C12.6476 14.0494 13.5183 13.6157 14.3796 13.6381C14.5277 13.6418 14.6679 13.7056 14.7682 13.8145ZM11.7192 16.3453C11.3079 15.4859 10.5703 14.8793 9.86095 14.7898C9.48565 15.3984 9.49538 16.3534 9.90668 17.2127C10.318 18.0721 11.0557 18.6787 11.765 18.7681C12.1403 18.1596 12.1305 17.2047 11.7192 16.3453ZM14.1103 14.7471C13.5845 14.8242 13.0434 15.1872 12.6379 15.7354C12.6615 15.7806 12.6844 15.8264 12.7065 15.8728C13.118 16.7325 13.2278 17.6593 13.0496 18.4569C13.4784 18.1742 13.8628 17.7221 14.1133 17.1704C14.5072 16.3031 14.4978 15.3481 14.1103 14.7471Z" fill="#222222"/>
<path fill-rule="evenodd" clip-rule="evenodd" d="M7.47232 1.45153C7.32402 0.966162 7.09574 0.5565 6.66711 0.356249C6.2473 0.160206 5.7395 0.228675 5.15806 0.559953C4.89549 0.7096 4.80392 1.0438 4.95356 1.30636C5.10321 1.56893 5.43753 1.66069 5.69997 1.51073C6.00376 1.33762 6.16241 1.32825 6.20382 1.34777C6.39694 1.43801 6.53911 2.22522 6.61548 2.64813C6.73594 3.31496 6.86051 4.00459 7.23663 4.43787C7.34481 4.56253 7.49701 4.62637 7.65012 4.62637C7.77727 4.62637 7.90508 4.58229 8.00864 4.49236C8.23685 4.29425 8.26123 3.94862 8.06312 3.72035C7.92819 3.56486 7.83461 3.1923 7.76012 2.8159C8.47789 2.38715 9.2924 2.13328 10.1342 2.07813C10.9308 2.02595 11.7077 2.14812 12.4434 2.44139C12.7242 2.5534 13.0425 2.4164 13.1544 2.13565C13.2663 1.8549 13.1295 1.53664 12.8487 1.42469C11.9605 1.07073 11.0233 0.923094 10.0626 0.986029C9.26015 1.03858 8.47798 1.2411 7.75745 1.57934C7.68343 1.61409 7.61006 1.65027 7.53738 1.68787C7.51739 1.60754 7.49586 1.52858 7.47232 1.45153ZM12.7599 1.64764C11.9051 1.30699 11.0036 1.1649 10.0783 1.22552C9.22642 1.2813 8.39838 1.51265 7.64766 1.90103L7.37785 2.04061L7.30449 1.74583C7.161 1.16932 6.95577 0.756027 6.56556 0.573707M12.7599 1.64764C12.9175 1.71052 12.9943 1.88918 12.9315 2.04676C12.8686 2.2045 12.6899 2.28131 12.5323 2.21847C11.7632 1.91185 10.9504 1.78415 10.1185 1.83864C9.23892 1.89627 8.38757 2.16154 7.63704 2.60986L7.49185 2.69659L7.52469 2.86249C7.56243 3.05321 7.60638 3.25029 7.65975 3.42215C7.71052 3.5856 7.77935 3.75952 7.88186 3.87765C7.99313 4.00586 7.9794 4.19992 7.85131 4.31112C7.79308 4.36169 7.72168 4.38637 7.65012 4.38637C7.56356 4.38637 7.47856 4.35048 7.41789 4.28057C7.26138 4.10028 7.14858 3.85598 7.06 3.56146C6.97143 3.26696 6.9124 2.94175 6.85166 2.60548M6.85166 2.60548L6.851 2.60181C6.81314 2.39216 6.75713 2.082 6.68541 1.81166C6.64951 1.67635 6.60737 1.54191 6.55793 1.43148C6.53323 1.37631 6.50372 1.32031 6.46797 1.27112C6.4342 1.22464 6.382 1.16623 6.30578 1.13051C6.24516 1.10204 6.18303 1.09945 6.14244 1.10079C6.09522 1.10234 6.04402 1.11066 5.98987 1.12474C5.88138 1.15297 5.74597 1.20829 5.58115 1.30221C5.43411 1.38622 5.24617 1.33508 5.16207 1.18752M11.736 3.93285C11.8029 3.77695 11.7308 3.59623 11.5748 3.52928C10.9846 3.27597 10.3437 3.21845 9.71962 3.36271C9.55433 3.4009 9.45126 3.56591 9.4895 3.73127C9.52778 3.89681 9.69301 3.99975 9.85786 3.96147C10.3534 3.84685 10.864 3.89288 11.3324 4.09403C11.3721 4.11108 11.4131 4.11901 11.4534 4.11901C11.5731 4.11901 11.6862 4.04882 11.736 3.93285ZM11.6695 3.30874C11.9472 3.42799 12.0757 3.74984 11.9565 4.02755C11.8675 4.23484 11.6656 4.35901 11.4534 4.35901C11.3813 4.35901 11.3081 4.34478 11.2377 4.31456C10.816 4.13347 10.3577 4.09218 9.91215 4.19525C9.61784 4.2636 9.32378 4.07984 9.25567 3.78535C9.18757 3.49086 9.37109 3.19692 9.66558 3.12888C10.3396 2.97309 11.0325 3.03535 11.6695 3.30874ZM15.3107 2.89327C14.5006 2.95138 13.7241 3.31439 13.1983 3.88909C12.7211 4.41075 12.4906 5.06078 12.5492 5.71951L12.691 7.30986C12.6915 7.31722 12.6922 7.32451 12.693 7.33175L12.7607 8.09117C12.7861 8.37569 13.0249 8.58985 13.3052 8.58985C13.3215 8.58985 13.3379 8.58906 13.3544 8.58766C13.6336 8.56279 13.8451 8.33233 13.8529 8.05881C13.8535 8.03741 13.8529 8.01573 13.8509 7.99388L13.8353 7.81881H14.4599C14.7621 7.81881 15.0071 7.57382 15.0071 7.27155C15.0071 6.96928 14.7621 6.72428 14.4599 6.72428H13.7377L13.6394 5.62221C13.5996 5.17498 13.8167 4.83464 14.0059 4.62783C14.3772 4.22189 14.9506 3.97957 15.5397 3.97957H16.9156C17.5047 3.97957 18.078 4.22188 18.4494 4.62777C18.573 4.76292 18.7086 4.95521 18.7766 5.19718C18.7977 5.27245 18.8123 5.35252 18.8179 5.43718H18.11C17.8077 5.43718 17.5627 5.68217 17.5627 5.98444C17.5627 6.28672 17.8077 6.53171 18.11 6.53171H18.7347L18.6043 7.99394C18.5775 8.29494 18.7997 8.56078 19.1008 8.58766C19.402 8.6135 19.6677 8.39223 19.6945 8.09111L19.9059 5.71938C19.9646 5.06066 19.7341 4.41069 19.2569 3.88897C18.7311 3.3143 17.9546 2.95134 17.1445 2.89326C17.0684 2.8878 16.9921 2.88504 16.9156 2.88504H16.8967C16.9028 2.86361 16.9092 2.84227 16.9156 2.82103C16.9337 2.76176 16.953 2.70324 16.9736 2.64553C17.2248 1.94124 17.6617 1.3585 18.2178 1.01175C18.4743 0.851828 18.5526 0.514226 18.3926 0.257863C18.2328 0.00125635 17.8952 -0.0770025 17.6387 0.083042C17.1318 0.399119 16.6989 0.850441 16.3671 1.39137C16.3184 1.47076 16.2719 1.55209 16.2276 1.63521C16.1834 1.55209 16.1369 1.47076 16.0882 1.39137C15.7564 0.850406 15.3235 0.399124 14.8166 0.083042C14.56 -0.0768809 14.2225 0.00137794 14.0626 0.257863C13.9027 0.514287 13.9809 0.851888 14.2374 1.01175C14.7935 1.3585 15.2304 1.94124 15.4816 2.64553C15.5022 2.70336 15.5216 2.76202 15.5397 2.82142C15.5461 2.84253 15.5524 2.86374 15.5585 2.88504H15.5397C15.4632 2.88504 15.3868 2.88781 15.3107 2.89327ZM14.6896 0.286711C14.5455 0.196885 14.356 0.240853 14.2663 0.384845C14.1765 0.528801 14.2204 0.71835 14.3644 0.808074C15.0421 1.23067 15.5439 1.96222 15.7892 2.81897L15.8768 3.12504H15.5397C14.7126 3.12504 13.9028 3.47459 13.3754 4.05108C12.9401 4.52691 12.736 5.11162 12.7883 5.69821L12.9306 7.29402L12.9316 7.30568L12.9321 7.31042L12.9998 8.06985C13.014 8.22943 13.1481 8.34985 13.3052 8.34985M13.3337 8.34855C13.5024 8.33322 13.6269 8.18415 13.6119 8.01517L13.5729 7.57881H14.4599C14.6296 7.57881 14.7671 7.44127 14.7671 7.27155C14.7671 7.10182 14.6296 6.96428 14.4599 6.96428H13.5182L13.4004 5.64353C13.3522 5.10219 13.6164 4.69799 13.8288 4.46585C14.2491 4.00637 14.8886 3.73957 15.5397 3.73957H16.9156C17.5667 3.73957 18.2061 4.00637 18.6264 4.46577C18.8087 4.66499 19.0286 4.98974 19.0574 5.42122L19.0744 5.67718H18.11C17.9403 5.67718 17.8027 5.81472 17.8027 5.98444C17.8027 6.15417 17.9403 6.29171 18.11 6.29171H18.997L18.8434 8.01524C18.8283 8.18413 18.9529 8.33333 19.1218 8.34858C19.2921 8.36292 19.4405 8.238 19.4555 8.06982L19.6669 5.69809C19.7191 5.11151 19.5151 4.52687 19.0798 4.05097C18.5525 3.47454 17.7426 3.12504 16.9156 3.12504H16.5783L16.666 2.81895C16.9114 1.96222 17.4131 1.23069 18.0908 0.808097C18.2348 0.718296 18.2787 0.528743 18.189 0.384889C18.0993 0.240872 17.9098 0.196787 17.7657 0.286667C17.2244 0.624218 16.7679 1.13124 16.4395 1.748L16.2277 2.14585L16.0158 1.74801C15.6874 1.13119 15.2309 0.624265 14.6896 0.286711M9.72708 5.50365C9.58435 5.412 9.39432 5.45338 9.30255 5.59634C9.21093 5.73912 9.25238 5.92919 9.39521 6.02088M9.10055 5.46673C9.26388 5.21225 9.6024 5.13837 9.85675 5.3017C10.4403 5.67615 10.8801 6.21527 11.1285 6.86067C11.2371 7.14276 11.0965 7.45944 10.8144 7.56805C10.7498 7.59298 10.6833 7.60477 10.6179 7.60477C10.3981 7.60477 10.1908 7.4713 10.1071 7.25391C9.94286 6.82729 9.65189 6.47078 9.26559 6.22287C9.01123 6.0596 8.93735 5.72109 9.10055 5.46673ZM10.3311 7.16771C10.3779 7.28942 10.4941 7.36477 10.6179 7.36477C10.6543 7.36477 10.6914 7.35824 10.728 7.34412C10.8864 7.28314 10.9655 7.10527 10.9046 6.9469C10.6745 6.34926 10.2678 5.8506 9.72708 5.50365M4.65733 8.06434L4.65845 8.06426C4.82773 8.0532 4.956 7.90699 4.9449 7.73764C4.86727 6.55181 5.16284 5.39586 5.79955 4.39676C5.89072 4.2537 5.84869 4.06373 5.70556 3.97249C5.5626 3.88139 5.37261 3.92336 5.28128 4.06647M4.67409 8.30375C4.66193 8.3046 4.64983 8.30497 4.63779 8.30497C4.35181 8.30497 4.1112 8.0829 4.09217 7.7934C4.00248 6.42438 4.34373 5.09106 5.07889 3.93749C5.24142 3.68265 5.57976 3.60773 5.83454 3.77009C6.08944 3.93256 6.16436 4.2709 6.00194 4.52574C5.39277 5.48163 5.11008 6.58686 5.18439 7.72195C5.20415 8.02355 4.9757 8.28405 4.67409 8.30375ZM4.33165 7.77765C4.2453 6.45948 4.57368 5.17683 5.28128 4.06647L4.33165 7.77765ZM4.33165 7.77765C4.34236 7.94019 4.47749 8.06497 4.63779 8.06497C4.645 8.06497 4.65146 8.06475 4.65733 8.06434M5.06585 9.50853C5.01033 9.4159 4.91032 9.35924 4.80233 9.35924H4.6336C4.46387 9.35924 4.32633 9.49678 4.32633 9.6665V23.4528C4.32633 23.6226 4.46387 23.7601 4.6336 23.7601H19.3598C19.5295 23.7601 19.667 23.6226 19.667 23.4528V9.6665C19.667 9.49678 19.5295 9.35924 19.3598 9.35924H19.191C19.083 9.35924 18.983 9.41591 18.9275 9.50849C18.7604 9.78721 18.4546 9.95788 18.1293 9.95788C17.8039 9.95788 17.4982 9.78719 17.3312 9.50854C17.2757 9.41593 17.1757 9.35924 17.0676 9.35924H16.7431C16.6351 9.35924 16.5351 9.41591 16.4796 9.50855C16.3126 9.7872 16.0068 9.95788 15.6815 9.95788C15.3561 9.95788 15.0504 9.78723 14.8833 9.50852C14.8277 9.41586 14.7277 9.35924 14.6197 9.35924H14.2822C14.1742 9.35924 14.0741 9.41592 14.0186 9.50853C13.8516 9.78721 13.5458 9.95788 13.2204 9.95788C12.8951 9.95788 12.5894 9.7872 12.4224 9.50854C12.3669 9.41593 12.2668 9.35924 12.1588 9.35924H11.8344C11.7264 9.35924 11.6264 9.41591 11.5709 9.50853C11.4038 9.78717 11.098 9.95788 10.7726 9.95788C10.4473 9.95788 10.1416 9.7872 9.97458 9.50854C9.91906 9.41591 9.81904 9.35924 9.71106 9.35924H9.37352C9.26555 9.35924 9.16554 9.41588 9.11005 9.50844C8.94291 9.78707 8.63717 9.95788 8.31176 9.95788C7.98642 9.95788 7.68069 9.78722 7.5137 9.50858C7.4582 9.41594 7.35813 9.35924 7.25013 9.35924H6.92566C6.81772 9.35924 6.71766 9.41591 6.66215 9.50853C6.49506 9.78715 6.18934 9.95788 5.86397 9.95788C5.53861 9.95788 5.23289 9.7872 5.06585 9.50853ZM15.0891 9.38509C15.2122 9.59037 15.4392 9.71788 15.6815 9.71788C15.9238 9.71788 16.1507 9.59037 16.2737 9.38521C16.3726 9.22018 16.5508 9.11924 16.7431 9.11924H17.0676C17.26 9.11924 17.4382 9.22018 17.5371 9.38515C17.6601 9.59037 17.887 9.71788 18.1293 9.71788C18.3716 9.71788 18.5986 9.59037 18.7217 9.38509C18.8205 9.22018 18.9987 9.11924 19.191 9.11924H19.3598C19.662 9.11924 19.907 9.36423 19.907 9.6665V23.4528C19.907 23.7551 19.662 24.0001 19.3598 24.0001H4.6336C4.33132 24.0001 4.08633 23.7551 4.08633 23.4528V9.6665C4.08633 9.36423 4.33132 9.11924 4.6336 9.11924H4.80233C4.99467 9.11924 5.17283 9.22018 5.27171 9.38515C5.39472 9.59037 5.62165 9.71788 5.86397 9.71788C6.10629 9.71788 6.33322 9.59037 6.45629 9.38515C6.55516 9.22018 6.73339 9.11924 6.92566 9.11924H7.25013C7.44246 9.11924 7.62069 9.22018 7.71956 9.38521C7.84251 9.59037 8.06945 9.71788 8.31176 9.71788C8.55408 9.71788 8.78107 9.59031 8.90421 9.38503C9.00308 9.22012 9.18125 9.11924 9.37352 9.11924H9.71106C9.90339 9.11924 10.0816 9.22018 10.1804 9.38515C10.3034 9.59037 10.5304 9.71788 10.7726 9.71788C11.0149 9.71788 11.2419 9.59037 11.365 9.38515C11.4639 9.22018 11.6421 9.11924 11.8344 9.11924H12.1588C12.3511 9.11924 12.5294 9.22018 12.6282 9.38515C12.7512 9.59037 12.9782 9.71788 13.2204 9.71788C13.4628 9.71788 13.6897 9.59037 13.8127 9.38515C13.9116 9.22018 14.0898 9.11924 14.2822 9.11924H14.6197C14.812 9.11924 14.9902 9.22012 15.0891 9.38509ZM19.0525 10.3168L19.0526 23.1456H4.94092V10.3169L5.27272 10.4543C5.4582 10.5311 5.65904 10.5724 5.86415 10.5724C6.26069 10.5724 6.64058 10.4178 6.92406 10.1526L7.08803 9.99918L7.25199 10.1526C7.53544 10.4178 7.91532 10.5724 8.31195 10.5724C8.71114 10.5724 9.09345 10.4158 9.37753 10.1473L9.54238 9.99148L9.70723 10.1473C9.99125 10.4157 10.3736 10.5724 10.7729 10.5724C11.1694 10.5724 11.5492 10.4178 11.8327 10.1526L11.9967 9.99917L12.1607 10.1526C12.4441 10.4178 12.824 10.5724 13.2206 10.5724C13.6199 10.5724 14.0022 10.4158 14.2862 10.1473L14.451 9.99146L14.6159 10.1473C14.9 10.4157 15.2823 10.5724 15.6815 10.5724C16.0782 10.5724 16.458 10.4178 16.7414 10.1526L16.9054 9.99917L17.0694 10.1526C17.3528 10.4178 17.7327 10.5724 18.1293 10.5724C18.3344 10.5724 18.5352 10.5311 18.7206 10.4542L19.0525 10.3168ZM7.67852 8.08758C7.61941 8.10801 7.55921 8.11768 7.50005 8.11768C7.27299 8.11768 7.0609 7.97539 6.9827 7.7487C6.75662 7.09326 6.74543 6.39757 6.95029 5.73696C7.0398 5.44825 7.34627 5.28686 7.6351 5.37625C7.92375 5.46582 8.0852 5.77241 7.99575 6.06106C7.86033 6.49784 7.86781 6.95797 8.01746 7.39183C8.11596 7.67756 7.96425 7.98907 7.67852 8.08758ZM7.79057 7.47008C7.62434 6.98814 7.61592 6.4757 7.76651 5.98999C7.81671 5.82792 7.72606 5.65576 7.56397 5.60547C7.40166 5.55534 7.22975 5.64604 7.17953 5.80803C6.98983 6.41975 7.00011 7.06314 7.20958 7.67044C7.25337 7.79739 7.37222 7.87768 7.50005 7.87768C7.53295 7.87768 7.56662 7.87233 7.60011 7.86075C7.76047 7.80547 7.84587 7.63055 7.79057 7.47008ZM14.5916 13.977C14.5353 13.9159 14.4566 13.8801 14.3735 13.878C13.5979 13.8578 12.7914 14.2493 12.1652 14.9608L11.989 15.1609L11.8085 14.9648C11.1715 14.2732 10.3563 13.891 9.58026 13.9262C9.49727 13.93 9.41937 13.9673 9.3643 14.0296C8.63352 14.8561 8.51258 16.2794 9.13583 17.5817C9.73984 18.8436 10.872 19.634 11.9451 19.634C11.9728 19.634 12.0005 19.6335 12.0278 19.6325L12.0415 19.632C13.1389 19.653 14.2975 18.8314 14.8913 17.5238L15.1098 17.623C14.488 18.9924 13.2552 19.8957 12.0369 19.8723C12.0064 19.8735 11.9756 19.874 11.9451 19.874C10.7569 19.874 9.55241 19.0079 8.91935 17.6853C8.26658 16.3213 8.37312 14.7883 9.18447 13.8707C9.28255 13.7597 9.42137 13.6932 9.56932 13.6865C10.3616 13.6505 11.1687 14.0052 11.8168 14.6301C11.8742 14.6854 11.9303 14.7428 11.985 14.8022C12.0384 14.7415 12.0932 14.6829 12.1493 14.6264C12.788 13.9824 13.5877 13.6175 14.3796 13.6381C14.5277 13.6418 14.6679 13.7056 14.7682 13.8145C15.5978 14.7159 15.735 16.2464 15.1098 17.623L14.8913 17.5238C15.4882 16.2094 15.3388 14.7889 14.5916 13.977ZM9.73774 14.5324L9.89098 14.5517C10.7048 14.6543 11.5008 15.3329 11.9357 16.2417C12.3706 17.1503 12.3999 18.1959 11.9693 18.8941L11.8882 19.0256L11.735 19.0062C10.9212 18.9036 10.1251 18.2251 9.69019 17.3164C9.25528 16.4077 9.22608 15.362 9.65667 14.6638L9.73774 14.5324ZM14.2284 14.4873L14.312 14.6171C14.7566 15.3066 14.7484 16.3525 14.3318 17.2697C14.0644 17.8586 13.6517 18.3474 13.1817 18.6573L12.6859 18.9843L12.8154 18.4046C12.9808 17.6643 12.8806 16.7923 12.49 15.9764C12.4691 15.9326 12.4474 15.8891 12.4252 15.8465L12.3556 15.7134L12.4449 15.5927C12.8772 15.0084 13.4699 14.5984 14.0755 14.5097L14.2284 14.4873ZM5.2769 0.768465C5.82257 0.457575 6.24407 0.423596 6.56556 0.573707L5.2769 0.768465ZM9.86095 14.7898C10.5703 14.8793 11.3079 15.4859 11.7192 16.3453C12.1305 17.2047 12.1403 18.1596 11.765 18.7681C11.0557 18.6787 10.318 18.0721 9.90668 17.2127C9.49538 16.3534 9.48565 15.3984 9.86095 14.7898ZM10.3311 7.16771C10.1484 6.69325 9.82428 6.29625 9.39521 6.02088L10.3311 7.16771ZM16.9054 10.3278C17.2324 10.6338 17.6706 10.8124 18.1293 10.8124C18.2803 10.8124 18.4291 10.793 18.5725 10.7561C18.6545 10.735 18.7347 10.7082 18.8125 10.676L18.8126 22.9056H5.18092V10.676C5.25873 10.7082 5.33893 10.7351 5.42092 10.7562C5.56429 10.793 5.71313 10.8124 5.86415 10.8124C6.32282 10.8124 6.761 10.6338 7.08802 10.3278C7.41504 10.6338 7.85322 10.8124 8.31195 10.8124C8.77365 10.8124 9.21463 10.6315 9.54238 10.3217C9.87007 10.6314 10.3111 10.8124 10.7729 10.8124C11.2315 10.8124 11.6697 10.6338 11.9967 10.3278C12.3237 10.6338 12.7619 10.8124 13.2206 10.8124C13.6824 10.8124 14.1234 10.6315 14.451 10.3217C14.7788 10.6314 15.2198 10.8124 15.6815 10.8124C16.1403 10.8124 16.5784 10.6338 16.9054 10.3278ZM13.1073 18.1165C13.1914 17.4023 13.0607 16.6127 12.7065 15.8728C12.6844 15.8264 12.6615 15.7806 12.6379 15.7354C13.0434 15.1872 13.5845 14.8242 14.1103 14.7471C14.4978 15.3481 14.5072 16.3031 14.1133 17.1704C13.9196 17.597 13.6457 17.9641 13.3333 18.2394C13.2417 18.32 13.1468 18.3928 13.0496 18.4569C13.0745 18.3458 13.0937 18.2321 13.1073 18.1165Z" fill="#222222"/>
</g>
<defs>
<clipPath id="clip0_1912_14424">
<rect width="24" height="24" fill="white"/>
</clipPath>
</defs>
</svg>
