<svg width="49" height="48" viewBox="0 0 49 48" fill="none" xmlns="http://www.w3.org/2000/svg">
<path d="M11.4128 34.3743C11.4385 34.3761 11.4605 34.3776 11.4785 34.3786L11.5221 34.4222H11.5842L11.6246 34.4222L11.6263 34.4222L15.7069 34.3759C16.4504 37.0487 18.9179 39.0323 21.8151 39.0323C25.2932 39.0323 28.1521 36.1734 28.1521 32.6953C28.1521 29.2171 25.2932 26.3582 21.8151 26.3582C18.7489 26.3582 16.1639 28.5801 15.5946 31.4894L11.6646 31.5342H11.6645L11.6644 31.5342L11.6637 31.5342L11.6634 31.5342H11.6613L11.6526 31.5342L11.6258 31.5343L11.5986 31.5343L11.5904 31.5343C11.4487 31.5242 9.46962 31.3329 7.44908 30.2578C6.39864 29.6988 5.39003 28.9589 4.64304 27.8505C3.89691 26.7435 3.40396 25.2572 3.40396 23.1922C3.40396 21.3791 3.83928 20.017 4.49886 18.9635C5.15924 17.9087 6.04999 17.1542 6.97395 16.5655C7.89598 15.9781 8.82349 15.6089 9.52121 15.3866C9.8698 15.2756 10.1603 15.2014 10.3631 15.1551C10.4645 15.132 10.5439 15.1158 10.5976 15.1055C10.6245 15.1003 10.6449 15.0966 10.6585 15.0943L10.6667 15.0928H14.2127H15.0619H15.1593L15.1989 15.0037L15.5223 14.2762L15.5224 14.276L15.5225 14.2759L15.5228 14.2751L15.5246 14.2712L15.5322 14.2547C15.539 14.2399 15.5495 14.2176 15.5636 14.1884C15.5918 14.13 15.6346 14.0437 15.6923 13.9335C15.8076 13.7132 15.9826 13.3975 16.2199 13.0182C16.6948 12.2593 17.4185 11.2474 18.4133 10.2358C20.4023 8.21319 23.4697 6.19641 27.7999 6.19641C32.1594 6.19641 34.7687 7.77386 36.5499 9.54945C38.2127 11.207 39.0737 13.0378 39.6031 14.1635C39.6421 14.2465 39.6793 14.3256 39.7149 14.4006C39.7774 14.5321 39.8431 14.7651 39.9055 15.0809C39.9673 15.3931 40.0237 15.775 40.0715 16.197C40.167 17.0408 40.2271 18.0381 40.2261 18.946C40.2248 19.8569 40.1946 20.7036 40.1647 21.3228C40.1497 21.6323 40.1349 21.8848 40.1237 22.0598C40.1182 22.1473 40.1135 22.2154 40.1103 22.2616L40.1066 22.314L40.1056 22.3273L40.1054 22.3306L40.1053 22.3306L40.1053 22.3315L40.1053 22.3316V22.3317L39.9841 23.7863L39.9698 23.9581L40.1419 23.9485L41.5937 23.8678H41.5941L41.603 23.8678C41.6115 23.8678 41.6243 23.8679 41.6412 23.8682C41.675 23.8688 41.7252 23.8701 41.7891 23.8732C41.9169 23.8795 42.0996 23.893 42.3172 23.9218C42.7535 23.9795 43.3248 24.0981 43.8743 24.3404C44.4312 24.5859 44.9372 24.8872 45.308 25.4098C45.6784 25.9321 45.9264 26.6937 45.928 27.8832C45.9292 28.6774 45.7458 29.2449 45.4617 29.6798C45.1762 30.1167 44.7816 30.4314 44.3404 30.7079C43.904 30.9814 43.4612 31.1588 43.1265 31.2677C42.9594 31.3221 42.8201 31.3592 42.723 31.3826C42.6745 31.3943 42.6366 31.4026 42.6111 31.4079L42.5875 31.4126L33.8179 31.2478C33.1395 25.2153 28.0251 20.4947 21.8151 20.4947C20.1583 20.4947 18.5819 20.8745 17.1471 21.4769L17.0045 21.5368L17.0687 21.6774L18.3223 24.4273L18.3818 24.5578L18.5149 24.5041C19.5375 24.0917 20.6445 23.8276 21.8151 23.8276C26.6869 23.8276 30.5615 27.7409 30.5615 32.6144C30.5615 37.4871 26.6878 41.3608 21.8151 41.3608C20.5817 41.3608 19.4126 41.1345 18.3556 40.6853L18.2211 40.6281L18.1605 40.7611L16.9069 43.5109L16.8437 43.6496L16.9834 43.7106C18.4633 44.3564 20.1031 44.6937 21.8151 44.6937C27.9712 44.6937 33.0515 40.0887 33.7995 34.1355L42.7998 34.3009H42.8026H42.9238H42.9592L42.9908 34.2852L43.0519 34.2547C43.0629 34.2527 43.0776 34.2501 43.0959 34.2466C43.1386 34.2385 43.2006 34.226 43.2791 34.2083C43.436 34.1729 43.659 34.1167 43.9258 34.033C44.4586 33.8659 45.1688 33.5882 45.8746 33.1458C47.2893 32.2592 48.8197 30.5223 48.8161 27.8829C48.8109 24.5182 46.8765 22.4869 45.0467 21.6801C44.312 21.3561 43.6262 21.2459 43.0421 21.1626C43.0435 21.1411 43.0449 21.1197 43.0463 21.0985C43.0821 20.5528 43.113 20.0837 43.1143 18.9464L43.1143 18.9362C43.1168 16.9998 43.1196 14.84 42.3314 13.1801L42.1959 13.2445L42.3314 13.1801C42.2879 13.0884 42.2384 12.9807 42.1825 12.859C41.6736 11.751 40.6301 9.47863 38.622 7.47689C36.3889 5.25091 32.8836 3.3085 27.7999 3.3085C18.8032 3.3085 14.4836 10.1951 13.3952 12.2049H10.452H10.3711H10.3467L10.3237 12.2126L10.2144 12.249L10.1986 12.2515C10.18 12.2546 10.1527 12.2592 10.1173 12.2656C10.0466 12.2783 9.94346 12.2981 9.81255 12.3267C9.55078 12.3837 9.17767 12.4755 8.72995 12.6149C7.835 12.8936 6.63921 13.3636 5.43801 14.1289C3.03157 15.6621 0.516016 18.5633 0.516016 23.1922C0.516016 28.337 3.3593 31.3719 6.09515 32.8276C7.45979 33.5538 8.81904 33.9419 9.83612 34.1486C10.345 34.2521 10.7691 34.3103 11.0665 34.3427C11.2153 34.3589 11.3324 34.3686 11.4128 34.3743Z" fill="#AB0E12" stroke="#AB0E12" stroke-width="0.3"/>
</svg>
