<svg width="49" height="48" viewBox="0 0 49 48" fill="none" xmlns="http://www.w3.org/2000/svg">
<g clip-path="url(#clip0_336_2786)">
<path d="M12.335 40.2127C12.335 32.6466 21.335 34.1606 21.335 31.1346C21.4356 30.06 21.1444 28.9853 20.515 28.1086C19.7973 27.428 19.2319 26.6031 18.8561 25.6882C18.4804 24.7733 18.3027 23.7891 18.335 22.8005C18.2373 21.1052 18.8128 19.4398 19.9364 18.1664C21.0599 16.8931 22.6407 16.1147 24.3351 16.0005C26.0294 16.1147 27.6102 16.8931 28.7337 18.1664C29.8573 19.4398 30.4328 21.1052 30.3351 22.8005C30.3711 23.792 30.1922 24.7795 29.8107 25.6954C29.4293 26.6113 28.8542 27.4338 28.1251 28.1066C27.521 28.9949 27.242 30.0644 27.3351 31.1346C27.3351 34.1606 36.3351 32.6486 36.3351 40.2147C36.3351 40.2147 33.9451 42.0027 24.3351 42.0027C14.725 42.0027 12.335 40.2127 12.335 40.2127Z" stroke="#AB0E12" stroke-width="2.93145" stroke-miterlimit="10"/>
<path d="M11.3051 31.9342C10.1671 31.8822 9.16306 31.8042 8.28105 31.7062C6.21081 31.6651 4.17695 31.1542 2.33301 30.2122C2.33301 22.6461 11.3331 24.1601 11.3331 21.1341C11.4337 20.0595 11.1424 18.9848 10.5131 18.1081C9.79532 17.4276 9.22993 16.6026 8.85416 15.6877C8.4784 14.7728 8.3008 13.7886 8.33305 12.8001C8.23539 11.1047 8.81089 9.4393 9.93444 8.16594C11.058 6.89258 12.6388 6.1142 14.3331 6C16.0274 6.1142 17.6082 6.89258 18.7318 8.16594C19.8553 9.4393 20.4308 11.1047 20.3331 12.8001" stroke="#AB0E12" stroke-width="2.93145" stroke-miterlimit="10"/>
<path d="M37.361 31.9342C38.499 31.8822 39.503 31.8042 40.385 31.7062C42.4553 31.6651 44.4891 31.1542 46.3331 30.2122C46.3331 22.6461 37.333 24.1601 37.333 21.1341C37.2324 20.0595 37.5236 18.9848 38.153 18.1081C38.8708 17.4276 39.4362 16.6026 39.8119 15.6877C40.1877 14.7728 40.3653 13.7886 40.333 12.8001C40.4307 11.1047 39.8552 9.4393 38.7316 8.16594C37.6081 6.89258 36.0273 6.1142 34.333 6C32.6387 6.1142 31.0579 6.89258 29.9343 8.16594C28.8108 9.4393 28.2353 11.1047 28.3329 12.8001" stroke="#AB0E12" stroke-width="2.93145" stroke-miterlimit="10"/>
</g>
<defs>
<clipPath id="clip0_336_2786">
<rect width="48.0004" height="48.0004" fill="white" transform="translate(0.333496)"/>
</clipPath>
</defs>
</svg>
