<svg width="58" height="58" viewBox="0 0 58 58" fill="none" xmlns="http://www.w3.org/2000/svg">
<g clip-path="url(#clip0_497_3760)">
<path d="M21.4912 29.2351V12.5947C21.4912 8.63823 24.6985 5.43091 28.655 5.43091C32.6114 5.43091 35.8187 8.63823 35.8187 12.5947V14.9894" stroke="#BBBBBB" stroke-width="2.5" stroke-linecap="round"/>
<path d="M35.8187 29.3142V46.0254C35.8187 49.9819 32.6114 53.1892 28.655 53.1892C24.6985 53.1892 21.4912 49.9819 21.4912 46.0254V43.6017" stroke="#BBBBBB" stroke-width="2.5" stroke-linecap="round"/>
<path d="M28.6555 36.4737H11.9212C7.97521 36.4737 4.77637 33.2664 4.77637 29.31C4.77637 25.3536 7.97521 22.1462 11.9212 22.1462H14.3144" stroke="#BBBBBB" stroke-width="2.5" stroke-linecap="round"/>
<path d="M28.6553 22.1462H45.3573C49.3211 22.1462 52.5344 25.3536 52.5344 29.31C52.5344 33.2664 49.3211 36.4737 45.3573 36.4737H43.0619" stroke="#BBBBBB" stroke-width="2.5" stroke-linecap="round"/>
</g>
<defs>
<clipPath id="clip0_497_3760">
<rect width="57.31" height="57.31" fill="white" transform="translate(0 0.655029)"/>
</clipPath>
</defs>
</svg>
