<svg width="58" height="58" viewBox="0 0 58 58" fill="none" xmlns="http://www.w3.org/2000/svg">
<path d="M39.4006 4.83398H17.9093C15.6014 4.83398 13.7305 6.70492 13.7305 9.01284V49.6074C13.7305 51.9153 15.6014 53.7863 17.9093 53.7863H39.4006C41.7085 53.7863 43.5794 51.9153 43.5794 49.6074V9.01284C43.5794 6.70492 41.7085 4.83398 39.4006 4.83398Z" stroke="#BBBBBB" stroke-width="2.5"/>
<path d="M21.4912 47.2195H35.8187" stroke="#BBBBBB" stroke-width="2.5" stroke-linecap="round"/>
<path d="M28.3097 17.8101H23.1667C22.2462 17.8101 21.5 18.5563 21.5 19.4767V24.6197C21.5 25.0617 21.6756 25.4856 21.9882 25.7982L28.0656 31.8756C29.0419 32.852 30.6247 32.852 31.6011 31.8756L35.5656 27.9111C36.5419 26.9348 36.5419 25.352 35.5656 24.3756L29.4882 18.2982C29.1756 17.9857 28.7517 17.8101 28.3097 17.8101Z" stroke="#BBBBBB" stroke-width="1.5" stroke-linecap="round" stroke-linejoin="round"/>
<path d="M26.293 23.853C26.9833 23.853 27.543 23.2934 27.543 22.603C27.543 21.9127 26.9833 21.353 26.293 21.353C25.6026 21.353 25.043 21.9127 25.043 22.603C25.043 23.2934 25.6026 23.853 26.293 23.853Z" fill="#BBBBBB"/>
</svg>
