<svg width="50" height="36" viewBox="0 0 50 36" fill="none" xmlns="http://www.w3.org/2000/svg">
<path d="M38.9016 12.81C37.4163 5.86625 31.1872 0.750488 24.0029 0.750488C15.5928 0.750488 8.7529 7.59039 8.7529 16.0005C8.7529 16.2705 8.76164 16.5453 8.78008 16.8306C4.25621 17.4319 0.75293 21.3137 0.75293 26.0005C0.75293 31.1006 4.90286 35.2505 10.0029 35.2505H17.003C17.693 35.2505 18.253 34.6906 18.253 34.0005C18.253 33.3104 17.693 32.7505 17.003 32.7505H10.0029C6.28103 32.7505 3.2529 29.7224 3.2529 26.0004C3.2529 22.282 6.27439 19.2585 9.9243 19.2485C10.1245 19.2711 10.344 19.2489 10.5465 19.1856C10.7534 19.121 10.9604 19.0076 11.1099 18.8342C11.3474 18.5614 11.4548 18.1984 11.4023 17.8384C11.2996 17.1292 11.253 16.5456 11.253 16.0005C11.253 8.97053 16.973 3.25046 24.003 3.25046C30.3004 3.25046 35.721 7.95483 36.6095 14.1917C36.6571 14.5274 36.8733 14.7934 37.1271 14.9692C37.3815 15.1454 37.6997 15.2505 38.003 15.2505C42.8269 15.2505 46.753 19.1765 46.753 24.0005C46.753 28.8244 42.8269 32.7505 38.003 32.7505H35.003C34.3129 32.7505 33.7529 33.3104 33.7529 34.0005C33.7529 34.6906 34.3129 35.2505 35.003 35.2505H38.003C44.2071 35.2505 49.2529 30.2025 49.2529 24.0006C49.2529 18.1417 44.7541 13.3197 38.9016 12.81Z" fill="#AB0E12" stroke="#AB0E12" stroke-width="0.5"/>
</svg>
