<svg width="49" height="48" viewBox="0 0 49 48" fill="none" xmlns="http://www.w3.org/2000/svg">
<path fill-rule="evenodd" clip-rule="evenodd" d="M8.3335 22C8.3335 14.268 14.6015 8 22.3335 8C30.0655 8 36.3335 14.268 36.3335 22C36.3335 29.732 30.0655 36 22.3335 36C14.6015 36 8.3335 29.732 8.3335 22ZM22.3335 4C12.3924 4 4.3335 12.0589 4.3335 22C4.3335 31.9412 12.3924 40 22.3335 40C26.5835 40 30.4895 38.527 33.5689 36.0638L40.9193 43.4142C41.7003 44.1952 42.9667 44.1952 43.7477 43.4142C44.5287 42.6332 44.5287 41.3668 43.7477 40.5858L36.3973 33.2354C38.8605 30.156 40.3335 26.25 40.3335 22C40.3335 12.0589 32.2747 4 22.3335 4Z" fill="#AB0E12"/>
</svg>
