<svg width="50" height="48" viewBox="0 0 50 48" fill="none" xmlns="http://www.w3.org/2000/svg">
<path d="M38.9026 14.81C37.4173 7.86625 31.1881 2.75049 24.0039 2.75049C15.5938 2.75049 8.75387 9.59039 8.75387 18.0005C8.75387 18.2705 8.76261 18.5453 8.78105 18.8306C4.25718 19.4319 0.753906 23.3137 0.753906 28.0005C0.753906 33.1006 4.90384 37.2505 10.0039 37.2505H17.0039C17.694 37.2505 18.254 36.6906 18.254 36.0005C18.254 35.3104 17.694 34.7505 17.0039 34.7505H10.0039C6.28201 34.7505 3.25388 31.7224 3.25388 28.0004C3.25388 24.282 6.27536 21.2585 9.92528 21.2485C10.1255 21.2711 10.345 21.2489 10.5475 21.1856C10.7544 21.121 10.9614 21.0076 11.1109 20.8342C11.3484 20.5614 11.4558 20.1984 11.4033 19.8384C11.3006 19.1292 11.2539 18.5456 11.2539 18.0005C11.2539 10.9705 16.974 5.25046 24.004 5.25046C30.3014 5.25046 35.722 9.95483 36.6104 16.1917C36.6581 16.5274 36.8743 16.7934 37.1281 16.9692C37.3825 17.1454 37.7006 17.2505 38.0039 17.2505C42.8279 17.2505 46.7539 21.1765 46.7539 26.0005C46.7539 30.8244 42.8279 34.7505 38.0039 34.7505H35.0039C34.3139 34.7505 33.7539 35.3104 33.7539 36.0005C33.7539 36.6906 34.3139 37.2505 35.0039 37.2505H38.0039C44.208 37.2505 49.2539 32.2025 49.2539 26.0006C49.2539 20.1417 44.7551 15.3197 38.9026 14.81Z" fill="#AB0E12" stroke="#AB0E12" stroke-width="0.5"/>
<path d="M21.7179 31.3049L21.9012 32.4434C22.4254 32.516 22.8937 32.8566 22.943 33.4643L22.9431 33.4649C23.0222 34.4665 23.5101 35.4786 24.2429 36.1662L24.2438 36.167C24.5714 36.4773 24.7132 36.9414 24.6003 37.3819C24.6002 37.3822 24.6001 37.3825 24.6 37.3828L24.1748 39.0858C24.1747 39.086 24.1747 39.0861 24.1747 39.0863C24.0641 39.5381 23.7106 39.8849 23.2649 39.9969L23.2644 39.997L19.6808 40.8909L21.7179 31.3049ZM21.7179 31.3049C21.9675 31.2458 22.1943 31.1107 22.3667 30.9166L22.3667 30.9166L22.3683 30.9149C22.6045 30.644 22.7148 30.289 22.6698 29.9314C22.6698 29.9314 22.6698 29.9314 22.6698 29.9314L22.4218 29.9626C22.3458 29.3586 22.2238 28.2646 22.2238 27.9126C22.2238 26.8786 22.2238 25.9006 25.1458 25.8706M21.7179 31.3049L25.8639 25.8875M25.1458 25.8706L25.1482 26.1206C25.1482 26.1206 25.1483 26.1206 25.1483 26.1206L25.1458 25.8706ZM25.1458 25.8706C25.3498 25.8687 25.5518 25.8046 25.7178 25.6846M25.7178 25.6846L25.8634 25.8878C25.8636 25.8877 25.8637 25.8876 25.8639 25.8875M25.7178 25.6846C26.6718 25.0006 27.7657 25.0006 28.2918 25.0006C29.8278 25.0006 30.2478 25.6407 30.3817 25.8526L25.8639 25.8875M25.7178 25.6846L25.8643 25.8872C25.8641 25.8873 25.864 25.8874 25.8639 25.8875M32.9368 38.464L32.9364 38.4639L30.0801 37.7522L30.0225 37.5218C30.7604 36.6733 31.2889 35.6186 31.531 34.5196C32.0786 34.1945 32.4726 33.6279 32.558 32.9582L32.558 32.9577L32.776 31.2196C32.776 31.2196 32.776 31.2196 32.776 31.2196C32.8509 30.6224 32.6648 30.0196 32.2706 29.5664L32.2705 29.5663C32.1798 29.4622 32.0795 29.3683 31.9723 29.2853L32.013 28.4563L32.1297 28.3383L32.1298 28.3383L32.1341 28.3338C32.4116 28.039 32.747 27.567 32.859 26.9313C32.9722 26.2887 32.8513 25.5105 32.2692 24.6215L32.2691 24.6214C31.7001 23.7538 30.5461 22.7505 28.292 22.7505H28.2872C27.6521 22.7505 26.1852 22.7505 24.7426 23.6311C22.6826 23.715 21.47 24.3169 20.7805 25.165C20.0897 26.0149 19.968 27.0603 19.968 27.9145C19.968 28.2279 20.0187 28.7758 20.0695 29.2567C19.9508 29.3449 19.8429 29.445 19.7456 29.5538L19.7443 29.5553C19.3432 30.0108 19.155 30.616 19.2298 31.2212L19.2299 31.2216L19.4478 32.9596C19.5358 33.6609 19.9603 34.2439 20.5837 34.56C20.8215 35.6071 21.3193 36.6153 22.0062 37.437L21.9275 37.7543L19.0715 38.466L19.0712 38.4661C16.5298 39.1019 14.7539 41.378 14.7539 44.0006C14.7539 44.3313 14.8831 44.6519 15.1201 44.8863L15.2959 44.7086L15.1201 44.8863C15.3544 45.118 15.6713 45.2505 16.0039 45.2505L36.0039 45.2486C36.694 45.2486 37.2539 44.6886 37.2539 43.9985C37.2539 41.3778 35.4779 39.102 32.9368 38.464ZM27.8033 36.2201C27.4574 36.5284 27.3129 37.0038 27.4252 37.4532L27.4253 37.4535L27.8352 39.0874L27.8353 39.0875C27.9477 39.5349 28.2975 39.8846 28.7447 39.997L28.7452 39.9971L32.3288 40.891C33.3298 41.1421 34.1191 41.846 34.5019 42.7505L17.5063 42.7485C17.8905 41.8444 18.6796 41.1422 19.6805 40.891L27.8033 36.2201Z" fill="#AB0E12" stroke="#AB0E12" stroke-width="0.5"/>
</svg>
