<svg width="48" height="48" viewBox="0 0 48 48" fill="none" xmlns="http://www.w3.org/2000/svg">
<path d="M8.25049 39.75C11.1005 42.6 15.9005 42.6 18.7505 39.75L24.0005 34.5L13.5005 24L8.25049 29.25C5.25049 32.25 5.25049 36.9 8.25049 39.75Z" stroke="#AB0E12" stroke-width="3" stroke-miterlimit="10" stroke-linecap="round" stroke-linejoin="round"/>
<path d="M12.0005 22.5L25.5005 36" stroke="#AB0E12" stroke-width="3" stroke-miterlimit="10" stroke-linecap="round" stroke-linejoin="round"/>
<path d="M15.0005 25.5L21.0005 19.5" stroke="#AB0E12" stroke-width="3" stroke-miterlimit="10" stroke-linecap="round" stroke-linejoin="round"/>
<path d="M22.5005 33L28.5005 27" stroke="#AB0E12" stroke-width="3" stroke-miterlimit="10" stroke-linecap="round" stroke-linejoin="round"/>
<path d="M3.00049 45L7.50049 40.5" stroke="#AB0E12" stroke-width="3" stroke-miterlimit="10" stroke-linecap="round" stroke-linejoin="round"/>
<path d="M39.7505 8.25005C36.9005 5.40005 32.1005 5.40005 29.2505 8.25005L24.0005 13.5L34.5005 24L39.7505 18.75C42.7505 15.75 42.7505 11.1 39.7505 8.25005Z" stroke="#AB0E12" stroke-width="3" stroke-miterlimit="10" stroke-linecap="round" stroke-linejoin="round"/>
<path d="M45.0005 3L40.5005 7.5" stroke="#AB0E12" stroke-width="3" stroke-miterlimit="10" stroke-linecap="round" stroke-linejoin="round"/>
</svg>
