<svg width="16" height="16" viewBox="0 0 16 16" fill="none" xmlns="http://www.w3.org/2000/svg">
<path d="M14.6663 3.8676C14.167 4.08892 13.6374 4.23409 13.095 4.29827C13.6665 3.95657 14.0942 3.41869 14.2983 2.78493C13.7614 3.10391 13.1738 3.3285 12.561 3.44893C12.1855 3.04922 11.6986 2.77153 11.1634 2.65187C10.6282 2.53222 10.0694 2.57612 9.55949 2.77788C9.04955 2.97965 8.61199 3.32997 8.30354 3.78342C7.9951 4.23687 7.83001 4.77252 7.82967 5.32093C7.8293 5.53069 7.85279 5.73981 7.89967 5.94427C6.81218 5.88967 5.74832 5.60701 4.77714 5.11465C3.80595 4.62228 2.94915 3.9312 2.26234 3.08627C1.91251 3.6885 1.80534 4.40142 1.96264 5.07989C2.11993 5.75837 2.52987 6.3514 3.10901 6.73827C2.67429 6.72494 2.24909 6.60767 1.86901 6.39627V6.43093C1.86911 7.06258 2.08771 7.67474 2.48773 8.16358C2.88774 8.65242 3.44454 8.98783 4.06367 9.11293C3.8288 9.1768 3.58641 9.20886 3.34301 9.20827C3.17011 9.20835 2.99758 9.19228 2.82767 9.16027C3.00237 9.7037 3.34252 10.179 3.80055 10.5196C4.25859 10.8603 4.81162 11.0493 5.38234 11.0603C4.23529 11.958 2.77928 12.3648 1.33301 12.1916C2.58371 12.9956 4.03951 13.4224 5.52634 13.4209C6.55019 13.4278 7.5652 13.2313 8.51244 12.8426C9.45968 12.454 10.3203 11.881 11.0442 11.157C11.7682 10.433 12.3411 9.57236 12.7296 8.62508C13.1182 7.67781 13.3147 6.66278 13.3077 5.63893C13.3077 5.52027 13.3048 5.40249 13.299 5.2856C13.8354 4.89787 14.2984 4.4177 14.6663 3.8676Z" fill="white"/>
</svg>
