<svg width="60" height="90" viewBox="0 0 60 90" fill="none" xmlns="http://www.w3.org/2000/svg">
<path d="M29.9844 45.0163C29.9844 36.7463 36.6888 30.0078 44.9928 30.0078C53.2628 30.0078 60.0013 36.7123 60.0013 45.0163C60.0013 53.2863 53.2968 60.0248 44.9928 60.0248C36.7229 60.0248 29.9844 53.2863 29.9844 45.0163Z" fill="#1ABCFE"/>
<path d="M0 74.9997C0 66.7297 6.70446 59.9912 15.0085 59.9912H30.0169V74.9997C30.0169 83.2697 23.3125 90.0082 15.0085 90.0082C6.70446 90.0082 0 83.3037 0 74.9997Z" fill="#0ACF83"/>
<path d="M29.9844 0.0252438V30.0082H44.9928C53.2628 30.0082 60.0013 23.3037 60.0013 14.9997C60.0013 6.72972 53.2968 -0.00878906 44.9928 -0.00878906H29.9844V0.0252438Z" fill="#FF7262"/>
<path d="M0 15.0339C0 23.3039 6.70446 30.0424 15.0085 30.0424H30.0169V0.0253906H15.0085C6.70446 0.0253906 0 6.72987 0 15.0339Z" fill="#F24E1E"/>
<path d="M0 45.0163C0 53.2863 6.70446 60.0248 15.0085 60.0248H30.0169V30.0078H15.0085C6.70446 30.0078 0 36.7463 0 45.0163Z" fill="#A259FF"/>
</svg>
